<svg width="98" height="90" viewBox="0 0 98 90" fill="none" xmlns="http://www.w3.org/2000/svg">
<g clip-path="url(#clip0_1349_2443)">
<path d="M71.8583 5.6685C71.6323 5.50223 71.3517 5.36453 71.266 5.09953C71.1257 4.67085 71.5829 4.22658 71.4712 3.7901C71.3751 3.42378 70.9412 3.27569 70.5671 3.22113C70.193 3.16397 69.7643 3.11461 69.5486 2.80024C69.372 2.54044 69.4135 2.19489 69.372 1.88313C69.2888 1.2544 68.8056 0.695813 68.1951 0.521743C67.5455 0.33728 66.9792 0.92704 66.4362 1.16346C65.8438 1.42067 65.4827 1.92729 65.3502 2.56642C65.2229 3.17696 65.3138 3.81349 65.4463 4.42143C65.5788 5.02938 65.7555 5.63473 65.8022 6.25826C65.8542 6.95195 65.6983 7.56249 65.5087 8.2172C65.3814 8.66147 65.3502 9.28501 65.5892 9.6955C65.8256 10.0982 66.3011 10.2879 66.7505 10.4178C67.6209 10.6698 68.5406 10.8049 69.4369 10.6698C70.2865 10.5425 71.1101 10.145 71.6635 9.49285C72.0558 9.16549 72.3727 8.7524 72.5494 8.27176C72.882 7.36764 72.6377 6.23748 71.8609 5.6685H71.8583Z" fill="#485070"/>
<path d="M67.347 2.52234C67.4561 2.89906 67.4067 3.31995 67.2093 3.6603C67.1443 3.77201 67.043 3.88633 66.9131 3.87593C66.765 3.86554 66.6819 3.70446 66.6351 3.56157C66.5052 3.17446 66.4246 2.76916 66.3909 2.36126C66.3701 2.11185 66.4169 1.65979 66.7728 1.74552C67.0482 1.81307 67.2716 2.27813 67.3418 2.51975L67.347 2.52234Z" fill="#BB0003"/>
<path d="M67.347 8.64058C67.0846 9.5525 65.6011 9.99417 64.7464 8.94195C64.6425 8.81205 64.5437 8.67695 64.4502 8.53925C63.5305 8.72112 62.1587 9.12122 61.5456 9.86946C61.3481 10.1111 61.2494 10.4177 61.1611 10.719C60.8389 11.8102 60.5739 12.9196 60.3635 14.0393C60.3401 14.1667 60.3167 14.3018 60.3609 14.4239C60.4128 14.5745 60.5531 14.6733 60.6804 14.7746C61.9535 15.7775 62.286 17.3986 62.7069 18.8614C63.3434 21.0827 63.6344 24.1588 64.2709 26.3801C66.352 26.5412 75.0269 24.5719 76.0687 23.6574C74.5723 20.9632 73.3616 16.1022 72.8861 12.7195C72.6861 11.2854 72.1223 9.92142 71.5741 8.58082C71.4468 8.26646 71.3299 7.5416 71.0908 7.33895C70.7739 7.06875 67.7523 7.52601 67.4328 7.5364C67.4432 7.71567 67.4536 7.89234 67.4562 8.0716C67.4614 8.27945 67.399 8.46131 67.347 8.64058Z" fill="#939393"/>
<path d="M64.2555 7.17021C64.1542 6.85325 64.0191 6.55187 63.8477 6.27388C64.3647 6.25829 64.8479 6.09202 65.2714 5.79064C65.4792 5.64255 65.6663 5.46848 65.843 5.28662C65.9053 5.22167 66.004 5.05799 66.1054 4.93848C65.9677 5.09956 66.3054 5.99849 66.373 6.18295C66.5133 6.56746 66.7133 6.94938 66.9887 7.25595C67.2615 7.55992 67.4408 7.60928 67.4901 8.03796C67.5421 8.49003 67.446 8.98886 67.2927 9.41234C67.1966 9.67734 67.0563 9.94234 66.8198 10.0956C66.5418 10.2723 66.1833 10.2645 65.8638 10.1814C65.326 10.0411 64.5881 9.59161 64.3958 9.03042C64.2945 8.73684 64.4088 8.58616 64.4348 8.28218C64.4686 7.91326 64.3699 7.52355 64.2582 7.17281L64.2555 7.17021Z" fill="#FFC1A6"/>
<path d="M64.4374 8.12881C64.4374 8.09763 64.4374 8.06905 64.4348 8.03788C64.4088 7.7443 64.3465 7.44812 64.2555 7.16753C64.1542 6.85056 64.0191 6.54919 63.8477 6.27119C64.3647 6.25561 64.8479 6.08933 65.2714 5.78796C65.4792 5.63987 65.6663 5.4658 65.843 5.28393C65.9053 5.21898 66.004 5.0553 66.1054 4.93579C66.121 5.10207 66.1443 5.26834 66.1729 5.43202C66.1028 6.49723 65.3727 7.64557 64.4374 8.13141V8.12881Z" fill="#E3856D"/>
<path d="M61.0069 4.28105C61.2122 5.11763 61.7006 5.88406 62.3735 6.42186C62.558 6.56994 62.758 6.70245 62.9867 6.7596C63.2153 6.81676 63.4725 6.79078 63.657 6.64529C63.9194 6.43744 63.9635 6.06332 63.9817 5.72817C64.0181 5.10204 64.0389 4.47071 63.922 3.85497C63.8051 3.23923 63.5401 2.63648 63.0802 2.2104C62.7035 1.86226 61.6721 1.35823 61.2174 1.83628C60.7238 2.35849 60.8511 3.65492 61.0043 4.27845L61.0069 4.28105Z" fill="#485070"/>
<path d="M61.5434 2.81069C61.6317 2.22093 62.2968 2.66 62.8372 2.41058C63.3075 2.19235 63.6634 2.00529 64.1934 2.04166C64.6636 2.07543 65.1339 2.2599 65.4638 2.60544C65.5522 2.69897 65.6353 2.7951 65.7107 2.89123C65.9185 3.23937 66.1134 3.5953 66.2589 3.97462C66.2589 3.98241 66.2615 3.9928 66.264 4.0006C66.3134 4.75663 66.1315 5.4685 65.7756 6.08424C65.4301 6.6818 64.8091 7.10009 64.1181 7.0845C63.7491 7.0767 63.3906 6.95459 63.0632 6.674C62.7359 6.39341 62.4969 6.02709 62.289 5.65037C61.9721 5.0762 61.4446 3.4576 61.5434 2.81069Z" fill="#FFC1A6"/>
<path d="M64.1186 3.9148C63.4769 3.76411 62.8144 3.67058 62.2246 3.37959C61.7933 3.16655 61.3984 2.81582 61.2036 2.36895C61.0061 1.91429 61.1412 1.59473 61.4036 1.20242C61.7752 0.641238 62.3727 0.225548 63.0222 0.056674C63.6743 -0.114798 64.4901 0.137214 65.1163 0.355451C65.5501 0.506139 65.9658 0.74516 66.2594 1.0985C66.7686 1.71424 66.9427 2.77425 66.9011 3.55366C66.883 3.88622 66.7946 4.18499 66.7037 4.49936C66.6309 4.75917 66.4984 5.05275 66.1971 5.08912C65.9892 5.1151 65.5761 4.52534 65.3657 4.39284C65.0331 4.18499 64.6564 4.05249 64.2797 3.95636C64.2251 3.94337 64.1732 3.93038 64.1186 3.91739V3.9148Z" fill="#485070"/>
<path d="M63.1338 4.6214C63.1442 4.72532 63.2377 4.80067 63.3416 4.79027C63.4455 4.77988 63.5209 4.68635 63.5105 4.58243C63.5001 4.47851 63.4066 4.40316 63.3026 4.41356C63.1987 4.42395 63.1234 4.51748 63.1338 4.6214Z" fill="#485070"/>
<path fill-rule="evenodd" clip-rule="evenodd" d="M62.9961 4.04279C63.1316 3.9765 63.286 3.95507 63.4351 3.98549C63.4878 3.99625 63.5218 4.04771 63.511 4.10043C63.5003 4.15315 63.4488 4.18717 63.3961 4.17641C63.2905 4.15487 63.1799 4.16981 63.0816 4.21784C63.0333 4.24147 62.975 4.22145 62.9513 4.17311C62.9277 4.12477 62.9477 4.06642 62.9961 4.04279Z" fill="#485070"/>
<path d="M61.9658 4.93561C61.9762 5.03953 62.0697 5.11488 62.1736 5.10448C62.2776 5.09409 62.3529 5.00056 62.3425 4.89664C62.3321 4.79272 62.2386 4.71737 62.1347 4.72776C62.0308 4.73816 61.9554 4.83169 61.9658 4.93561Z" fill="#485070"/>
<path fill-rule="evenodd" clip-rule="evenodd" d="M61.8281 4.35724C61.9637 4.29096 62.118 4.26952 62.2671 4.29994C62.3198 4.3107 62.3538 4.36216 62.3431 4.41489C62.3323 4.46761 62.2808 4.50162 62.2281 4.49086C62.1226 4.46932 62.0119 4.48426 61.9137 4.53229C61.8653 4.55593 61.807 4.5359 61.7834 4.48756C61.7597 4.43922 61.7798 4.38087 61.8281 4.35724Z" fill="#485070"/>
<path fill-rule="evenodd" clip-rule="evenodd" d="M62.6268 4.8618C62.6791 4.84934 62.7317 4.88167 62.7441 4.93401C62.7891 5.12285 62.7562 5.32557 62.6576 5.48995L62.656 5.49253L62.656 5.4925C62.6437 5.51152 62.636 5.52418 62.6314 5.53531C62.6305 5.53751 62.6298 5.53927 62.6294 5.54064C62.6309 5.54167 62.6328 5.54275 62.6351 5.54369C62.6379 5.54482 62.6404 5.54543 62.6423 5.54568C62.6667 5.54829 62.6952 5.54178 62.7414 5.52822C62.793 5.51303 62.8472 5.54257 62.8623 5.59419C62.8775 5.64581 62.848 5.69997 62.7964 5.71515L62.7947 5.71564C62.7527 5.72799 62.6886 5.74687 62.6204 5.7393L62.6198 5.73923L62.6198 5.73923C62.5491 5.73092 62.4542 5.67949 62.4365 5.5763C62.4281 5.53022 62.4393 5.48949 62.4517 5.45995C62.4636 5.43153 62.4801 5.40581 62.4912 5.38846C62.5635 5.26726 62.5874 5.1172 62.5546 4.97915C62.5421 4.9268 62.5744 4.87427 62.6268 4.8618Z" fill="#485070"/>
<path fill-rule="evenodd" clip-rule="evenodd" d="M63.666 5.82813C63.7055 5.86465 63.7079 5.92629 63.6714 5.9658C63.4916 6.16034 63.2193 6.25971 62.9577 6.23032C62.9042 6.22431 62.8657 6.17609 62.8717 6.12262C62.8777 6.06915 62.9259 6.03067 62.9794 6.03668C63.1803 6.05925 63.3911 5.98195 63.5283 5.83355C63.5648 5.79403 63.6265 5.7916 63.666 5.82813Z" fill="#485070"/>
<path d="M66.3103 3.9538C66.3493 4.33312 66.0739 4.67346 65.692 4.71243C65.3127 4.75141 64.9723 4.47601 64.9334 4.0941C64.8944 3.71478 65.1698 3.37443 65.5517 3.33546C65.931 3.29649 66.2714 3.57188 66.3103 3.9538Z" fill="#FFC1A6"/>
<path fill-rule="evenodd" clip-rule="evenodd" d="M65.3867 3.7975C65.4603 3.68187 65.5943 3.61387 65.7286 3.61731C65.7824 3.61869 65.8249 3.66341 65.8235 3.7172C65.8221 3.77099 65.7774 3.81348 65.7236 3.8121C65.6552 3.81035 65.5866 3.84627 65.5511 3.90211C65.5351 3.92716 65.5251 3.95566 65.5211 3.98483C65.5803 3.96874 65.6444 3.97011 65.7035 3.99254C65.8164 4.03537 65.895 4.14857 65.8988 4.26755C65.9005 4.32133 65.8584 4.36633 65.8046 4.36807C65.7508 4.3698 65.7058 4.32761 65.7041 4.27383C65.7027 4.23173 65.6721 4.18905 65.6344 4.17473C65.598 4.16091 65.5488 4.17236 65.52 4.20388C65.498 4.22803 65.4653 4.23951 65.433 4.23444C65.4007 4.22937 65.3731 4.20844 65.3595 4.1787C65.3041 4.05743 65.3146 3.9108 65.3867 3.7975Z" fill="#485070"/>
<path d="M82.3463 48.908H27.5402C26.2862 48.908 25.2695 49.9246 25.2695 51.1787V81.9293C25.2695 83.1834 26.2862 84.2 27.5402 84.2H82.3463C83.6004 84.2 84.6171 83.1834 84.6171 81.9293V51.1787C84.6171 49.9246 83.6004 48.908 82.3463 48.908Z" fill="#DCE4FF"/>
<path fill-rule="evenodd" clip-rule="evenodd" d="M27.54 49.0054C26.3397 49.0054 25.3667 49.9784 25.3667 51.1787V81.9293C25.3667 83.1296 26.3397 84.1026 27.54 84.1026H82.3461C83.5464 84.1026 84.5194 83.1296 84.5194 81.9293V51.1787C84.5194 49.9784 83.5464 49.0054 82.3461 49.0054H27.54ZM25.1719 51.1787C25.1719 49.8708 26.2321 48.8105 27.54 48.8105H82.3461C83.654 48.8105 84.7143 49.8708 84.7143 51.1787V81.9293C84.7143 83.2372 83.654 84.2975 82.3461 84.2975H27.54C26.2321 84.2975 25.1719 83.2372 25.1719 81.9293V51.1787Z" fill="#485070"/>
<path d="M89.0092 84.2441H20.875C20.875 85.8082 22.1429 87.076 23.7069 87.076H86.1747C87.7387 87.076 89.0066 85.8082 89.0066 84.2441H89.0092Z" fill="#BAC5EF"/>
<path fill-rule="evenodd" clip-rule="evenodd" d="M20.7773 84.1467H89.0089V84.2442H89.1038C89.1038 85.862 87.7923 87.1735 86.1745 87.1735H23.7067C22.0888 87.1735 20.7773 85.862 20.7773 84.2442V84.1467ZM88.9072 84.3416H20.9739C21.0252 85.8067 22.229 86.9786 23.7067 86.9786H86.1745C87.6521 86.9786 88.8559 85.8067 88.9072 84.3416Z" fill="#485070"/>
<path d="M81.417 50.2927H28.4659C27.4859 50.2927 26.6914 51.0872 26.6914 52.0672V81.3162C26.6914 82.2962 27.4859 83.0907 28.4659 83.0907H81.417C82.397 83.0907 83.1915 82.2962 83.1915 81.3162V52.0672C83.1915 51.0872 82.397 50.2927 81.417 50.2927Z" fill="#939393"/>
<path d="M55.7336 49.5704C55.7336 49.8146 55.5362 50.0095 55.2945 50.0095C55.0529 50.0095 54.8555 49.812 54.8555 49.5704C54.8555 49.3288 55.0529 49.1313 55.2945 49.1313C55.5362 49.1313 55.7336 49.3288 55.7336 49.5704Z" fill="#333333"/>
<path d="M77.1173 82.6511H32.7695L32.7695 17.2539H77.1173V82.6511Z" fill="white" stroke="#E1E1E1" stroke-width="0.5"/>
<path d="M59.0622 77.6713L53.0944 70.2356L47.9035 76.8867L43.4062 72.0257L43.9934 71.4827L47.8515 75.65L53.0866 68.9444L58.8985 76.1878L62.2708 69.3003L69.3921 68.0403L69.5324 68.8275L62.8112 70.0174L59.0622 77.6713Z" fill="#E6EDFF"/>
<path d="M70.4913 68.4351C70.4913 67.8661 70.0314 67.4062 69.4624 67.4062C68.8935 67.4062 68.4336 67.8661 68.4336 68.4351C68.4336 69.0041 68.8935 69.4639 69.4624 69.4639C70.0314 69.4639 70.4913 69.0041 70.4913 68.4351Z" fill="#FF6EA1"/>
<path d="M60.0538 76.9307C60.0538 76.3617 59.5939 75.9019 59.0249 75.9019C58.4559 75.9019 57.9961 76.3617 57.9961 76.9307C57.9961 77.4997 58.4559 77.9595 59.0249 77.9595C59.5939 77.9595 60.0538 77.4997 60.0538 76.9307Z" fill="#628AEC"/>
<path d="M63.4522 69.6587C63.4522 69.0897 62.9923 68.6299 62.4234 68.6299C61.8544 68.6299 61.3945 69.0897 61.3945 69.6587C61.3945 70.2277 61.8544 70.6875 62.4234 70.6875C62.9923 70.6875 63.4522 70.2277 63.4522 69.6587Z" fill="#FFB861"/>
<path d="M53.0523 70.6875C53.6205 70.6875 54.0811 70.2269 54.0811 69.6587C54.0811 69.0905 53.6205 68.6299 53.0523 68.6299C52.4841 68.6299 52.0234 69.0905 52.0234 69.6587C52.0234 70.2269 52.4841 70.6875 53.0523 70.6875Z" fill="#FFB861"/>
<path d="M48.0015 77.1748C48.5697 77.1748 49.0303 76.7142 49.0303 76.146C49.0303 75.5778 48.5697 75.1172 48.0015 75.1172C47.4333 75.1172 46.9727 75.5778 46.9727 76.146C46.9727 76.7142 47.4333 77.1748 48.0015 77.1748Z" fill="#FF6EA1"/>
<path d="M44.9522 71.9478C44.9522 71.3788 44.4923 70.9189 43.9234 70.9189C43.3544 70.9189 42.8945 71.3788 42.8945 71.9478C42.8945 72.5168 43.3544 72.9766 43.9234 72.9766C44.4923 72.9766 44.9522 72.5168 44.9522 71.9478Z" fill="#3FD4C7"/>
<path fill-rule="evenodd" clip-rule="evenodd" d="M39.3008 65.45H39.4956V79.3795H70.6997V79.5743H39.3008V65.45Z" fill="#485070"/>
<path d="M46.6685 43.0598H41.8906V54.1561H46.6685V43.0598Z" fill="#FFB861"/>
<path d="M54.0513 37.6272H49.2734V54.1535H54.0513V37.6272Z" fill="#FF6EA1"/>
<path fill-rule="evenodd" clip-rule="evenodd" d="M56.0803 28.5642C56.121 28.5994 56.1255 28.661 56.0903 28.7017C51.9606 33.4797 46.7895 37.3516 41.0402 39.9684C40.9912 39.9907 40.9334 39.9691 40.9111 39.9201C40.8888 39.8712 40.9105 39.8134 40.9594 39.7911C46.6832 37.1859 51.8315 33.3311 55.9429 28.5742C55.9781 28.5335 56.0396 28.5291 56.0803 28.5642Z" fill="#485070"/>
<path d="M56.4549 28.1235L56.1171 29.09L55.9742 28.6639L55.5352 28.5756L56.4549 28.1235Z" fill="#485070"/>
<path d="M61.438 30.1345H56.6602V54.1562H61.438V30.1345Z" fill="#3FD4C7"/>
<path d="M68.8247 40.6411H64.0469V54.1562H68.8247V40.6411Z" fill="#628AEC"/>
<path fill-rule="evenodd" clip-rule="evenodd" d="M38.9805 30.5813H39.1753V54.0951H70.9977V54.2899H38.9805V30.5813Z" fill="#485070"/>
<path d="M70.9468 56.4709H38.8945V58.0843H70.9468V56.4709Z" fill="#E6EDFF"/>
<path d="M64.512 24.5173H45.25V26.1307H64.512V24.5173Z" fill="#E6EDFF"/>
<path d="M70.9078 21.6985H38.8555V23.3119H70.9078V21.6985Z" fill="#E6EDFF"/>
<path d="M70.9468 59.4302H38.8945V61.0436H70.9468V59.4302Z" fill="#E6EDFF"/>
<path d="M70.9468 62.3894H38.8945V64.0028H70.9468V62.3894Z" fill="#E6EDFF"/>
<path d="M69.731 7.40652C69.3569 7.49485 68.9854 7.59878 68.619 7.7027C68.5567 7.72089 68.4917 7.73907 68.445 7.78064C68.3774 7.8404 68.354 7.93133 68.3358 8.01966C68.0942 9.19399 68.4242 10.7476 69.1802 11.6907C69.4088 11.9765 69.679 12.2233 69.9259 12.4935C70.1701 12.7585 70.4948 12.9975 70.7131 13.2781C70.9677 13.6029 71.0742 14.1277 71.1937 14.5148C71.4639 15.406 71.6328 16.3283 71.6925 17.2558C71.7315 17.8741 71.7601 18.5756 72.2355 18.9731C72.7058 19.368 73.4488 19.2667 73.9321 18.8926C74.4153 18.5184 74.6907 17.9339 74.896 17.3571C75.4312 15.8606 75.7247 14.2446 75.6468 12.652C75.5767 11.1997 75.1324 9.45119 74.1945 8.30285C73.5657 7.53383 72.5317 7.19088 71.5393 7.17529C70.9287 7.1649 70.326 7.26623 69.731 7.40652Z" fill="#939393"/>
<path fill-rule="evenodd" clip-rule="evenodd" d="M71.2281 13.327C71.056 14.2597 70.8839 15.1924 70.7111 16.1251L70.5195 16.0896C70.6923 15.157 70.8644 14.2243 71.0365 13.2916L71.0366 13.2915C71.2087 12.3588 71.3808 11.4261 71.5536 10.4934L71.7452 10.5289C71.5724 11.4616 71.4003 12.3942 71.2282 13.3269L71.2281 13.327Z" fill="#485070"/>
<path fill-rule="evenodd" clip-rule="evenodd" d="M71.0659 11.3548C71.0062 11.2022 70.9464 11.0496 70.8867 10.8977L71.0681 10.8264C71.1278 10.9785 71.1876 11.1312 71.2474 11.2838L71.2474 11.2838C71.3071 11.4365 71.3669 11.589 71.4266 11.7409L71.2452 11.8122C71.1855 11.6602 71.1257 11.5075 71.0659 11.3549L71.0659 11.3548Z" fill="#485070"/>
<path d="M63.9488 20.1267C64.0761 20.0799 64.2138 20.0539 64.3618 20.0487C65.6219 20.0201 66.8534 19.8902 68.1238 19.7629C68.976 19.6772 69.8282 19.6278 70.6751 19.6174C71.3584 19.607 72.1508 19.7577 72.8185 19.5681C73.5226 19.368 74.0033 19.1706 74.3566 18.5886C74.5281 18.3054 74.6813 18.017 74.819 17.726C74.8996 17.5546 74.9749 17.3701 74.9386 17.196C74.884 16.9388 74.6008 16.7829 74.3228 16.6816C73.7331 16.4634 73.3667 16.1256 72.6886 16.0555C72.0001 15.9853 71.2727 16.0737 70.579 16.2218C69.228 16.505 67.8744 16.6219 66.5494 17.0168C65.0503 17.4636 63.6188 18.0872 62.2003 18.7185C61.6806 18.9497 61.1454 19.1965 60.7713 19.5837C60.1946 20.176 60.1322 21.0594 60.6232 21.6127C60.7661 21.7738 60.9844 21.9141 61.2338 21.87C61.4832 21.8258 61.6495 21.4984 61.439 21.4023C62.803 21.9271 62.8394 20.5242 63.9488 20.1267Z" fill="#FFC1A6"/>
<path d="M59.6848 20.3424L59.6952 20.2593C59.6744 20.3112 59.6536 20.3606 59.6328 20.4126C59.651 20.3892 59.6692 20.3658 59.6848 20.3424Z" fill="#FF6EA1"/>
<path d="M63.2222 9.79163C63.1443 9.64355 63.03 9.52144 62.8741 9.4305C62.4324 9.1733 61.5075 9.5682 61.1126 9.78644C61.0269 9.8332 60.9463 9.88257 60.8632 9.93972C60.3851 10.2411 59.9669 10.6542 59.6005 11.0569C59.4732 11.1972 59.3485 11.3375 59.2264 11.4804C57.3948 13.5978 56.2101 15.9283 56.5062 18.7627C56.5686 19.3707 56.6907 20.0228 57.1428 20.4333C57.5013 20.7581 58.0261 20.8698 58.5015 20.7814C58.9536 20.6983 59.3667 20.4541 59.7044 20.1423L59.6915 20.2592C59.7148 20.2047 59.7356 20.1501 59.759 20.0929C60.4813 19.3915 60.6501 18.4224 60.8268 17.4767V17.4715C61.401 16.0608 61.9752 14.6526 62.5493 13.2419C62.8247 12.569 63.7107 10.7165 63.2196 9.79423L63.2222 9.79163Z" fill="#939393"/>
<path d="M60.2939 30.7112C61.0837 29.42 59.6418 29.2044 59.434 28.0508C59.4106 27.9183 59.4054 27.778 59.4288 27.6299C59.6288 26.3725 59.7197 25.1306 59.8185 23.8472C59.886 22.9898 59.9899 22.135 60.1302 21.2881C60.2264 20.7165 60.4472 20.0826 60.4758 19.4902C60.4628 19.3005 60.4394 19.1109 60.4082 18.9264C60.177 18.4925 59.8055 18.147 59.2209 17.9573C58.5324 17.7339 57.7036 17.9054 57.1425 18.3704C56.997 18.5913 56.8697 18.8251 56.758 19.0615C56.6125 19.6747 56.5813 20.3242 56.6047 20.9555C56.6514 22.3377 56.5267 23.6991 56.693 25.0682C56.8801 26.6167 57.2646 28.121 57.6621 29.6123C57.8076 30.1578 57.9635 30.7216 58.2934 31.1451C58.8 31.792 59.699 31.9687 60.3615 31.5478C60.5511 31.4257 60.7382 31.2257 60.7382 30.9736C60.7382 30.7216 60.4316 30.5138 60.2913 30.7086L60.2939 30.7112Z" fill="#FFC1A6"/>
<path fill-rule="evenodd" clip-rule="evenodd" d="M62.4604 14.2426C61.5339 15.693 60.8654 17.3087 60.499 18.9887L60.3086 18.9472C60.68 17.2446 61.3573 15.6075 62.2962 14.1377L62.4604 14.2426Z" fill="#485070"/>
<path fill-rule="evenodd" clip-rule="evenodd" d="M62.4453 14.8722L61.7698 15.3086L61.6641 15.145L62.3396 14.7085L62.4453 14.8722Z" fill="#485070"/>
<path d="M17.8476 47.8227C18.8141 48.9269 19.2116 50.4182 19.539 51.8133C19.9624 53.6164 20.3885 55.422 20.812 57.2251C20.9107 57.6486 21.0121 58.0746 21.025 58.5111C21.0458 59.21 20.8458 60.0959 20.6821 60.7688C20.4717 61.6314 19.9546 61.5794 19.1882 61.5015C17.9723 61.382 16.32 61.0131 15.499 60.0232C15.1093 59.5529 14.9846 58.9216 14.8702 58.3215C14.717 57.4953 14.5611 56.6691 14.4078 55.8403C13.7765 52.4628 13.1451 48.9788 13.8596 45.6169C15.5613 45.869 16.8552 46.6847 17.8476 47.8201V47.8227Z" fill="white"/>
<path d="M19.6348 58.5033C20.1726 58.7579 20.687 59.0853 21.204 59.397C22.025 59.8907 22.8824 60.2388 23.7241 60.6987C23.9632 60.8286 24.2074 60.9585 24.4698 61.0052C24.9192 61.0858 25.3947 60.9143 25.8493 60.9766C26.4547 61.0572 26.9717 61.5976 27.1925 62.312C27.5615 63.5149 26.6963 63.0681 26.1221 62.9616C25.6753 62.8784 25.2258 62.7979 24.7789 62.7147C23.0175 62.3926 21.3287 62.2367 19.5257 62.1432C18.5462 62.0912 16.8185 62.1146 16.0858 61.2235C15.7299 60.7896 15.335 58.8956 15.8052 58.4279C15.8936 58.3396 16.0001 58.3006 16.1066 58.2643C17.0471 57.9525 18.011 57.9395 18.9203 58.2201C19.1645 58.2954 19.4036 58.3916 19.6348 58.5033Z" fill="#9C5240"/>
<path d="M18.9976 72.421H1.81401C1.25023 72.421 0.792969 71.9637 0.792969 71.3999C0.792969 70.8362 1.25023 70.3789 1.81401 70.3789H18.9976C19.5614 70.3789 20.0186 70.8362 20.0186 71.3999C20.0186 71.9637 19.5614 72.421 18.9976 72.421Z" fill="#485070"/>
<path d="M16.7305 58.9449V52.9122C16.7305 52.0039 15.9942 51.2676 15.0859 51.2676H1.64352C0.73525 51.2676 -0.00104904 52.0039 -0.00104904 52.9122V58.9449C-0.00104904 59.8531 0.73525 60.5894 1.64352 60.5894H15.0859C15.9942 60.5894 16.7305 59.8531 16.7305 58.9449Z" fill="#485070"/>
<path d="M3.17985 59.0747H2.14062V71.4779H3.17985V59.0747Z" fill="#485070"/>
<path d="M14.3908 59.0747H13.3516V71.4779H14.3908V59.0747Z" fill="#485070"/>
<path d="M10.3869 71.9092H9.34766V86.9753H10.3869V71.9092Z" fill="#485070"/>
<path d="M2.57438 71.9092H1.53516V86.9753H2.57438V71.9092Z" fill="#485070"/>
<path d="M19.2345 71.9092H18.1953V86.9753H19.2345V71.9092Z" fill="#485070"/>
<path d="M13.9025 71.9092H12.8633V86.9753H13.9025V71.9092Z" fill="#485070"/>
<path d="M29.6308 77.1963C29.041 77.321 28.6357 77.3496 27.9395 77.4483C26.9262 77.5912 25.913 77.7107 24.8945 77.7964C25.1595 79.6281 25.4012 81.2389 25.4635 81.561C25.7285 82.964 25.583 86.4792 26.2092 87.812C26.9704 87.9055 27.6303 87.7808 28.3422 87.7236C28.7215 84.2085 29.0306 80.6803 29.6308 77.1963Z" fill="#CF9378"/>
<path d="M24.32 80.2801C24.32 80.5659 24.3278 80.8621 24.385 81.1401C25.1904 81.9922 26.3985 82.4287 27.5598 82.4859C28.2405 82.5196 28.8926 82.4131 29.5135 82.2131C29.5889 80.8413 29.6694 79.4695 29.7578 78.0977C29.8721 76.3129 29.963 74.5306 30.1864 72.7535C30.2852 71.9637 30.4021 69.6229 30.2124 67.9549C29.7578 66.2116 28.599 65.7362 28.599 65.7362C28.599 65.7362 25.3618 64.4553 22.8833 63.9097C19.841 63.242 16.7467 62.7458 13.6861 62.0781C12.2156 61.7585 9.75528 61.8157 8.99405 63.4265C8.1159 65.2867 9.86699 67.7601 11.2777 68.8357C12.7379 69.9476 14.5383 70.5088 16.331 70.9011C18.8667 71.4545 21.4699 71.7039 24.0654 71.6442C23.9823 71.6442 24.3122 79.6332 24.3174 80.2775L24.32 80.2801Z" fill="#757E96"/>
<path d="M24.0667 71.6625C24.0667 71.6625 24.0771 71.6547 24.0823 71.6495C23.5159 71.0884 22.9833 70.4934 22.4169 69.9322C21.5752 69.0956 20.7568 68.2357 19.9228 67.3939C18.2626 65.7234 16.5921 64.058 14.9683 62.3511C14.5422 62.2653 14.1161 62.1744 13.6901 62.0835C12.2195 61.7639 9.75918 61.8211 8.99795 63.4319C8.11981 65.2921 9.8709 67.7654 11.2816 68.841C12.7418 69.953 14.5422 70.5142 16.3349 70.9065C18.8706 71.4599 21.4738 71.7093 24.0693 71.6495C24.0693 71.6495 24.0667 71.6573 24.0641 71.6651L24.0667 71.6625Z" fill="#485070"/>
<path fill-rule="evenodd" clip-rule="evenodd" d="M24.1974 70.8524C24.1688 71.3042 24.1404 71.754 24.1391 72.1587L24.0352 72.1584C24.0365 71.7502 24.0651 71.2975 24.0937 70.8468L24.0937 70.8459C24.1223 70.3941 24.1508 69.9443 24.1521 69.5396L24.256 69.5399C24.2547 69.948 24.226 70.4007 24.1975 70.8514L24.1974 70.8524Z" fill="#485070"/>
<path fill-rule="evenodd" clip-rule="evenodd" d="M26.0782 64.8193C26.1218 64.8333 26.1654 64.8473 26.2091 64.8613L26.1496 65.0469C26.1063 65.033 26.0631 65.0191 26.02 65.0053C23.894 64.3226 21.9318 63.6925 18.8086 63.271L18.8347 63.0779C21.975 63.5017 23.9507 64.1361 26.0782 64.8193Z" fill="#485070"/>
<path d="M25.8359 88.8096H32.8039V89.563H26.0854C25.9477 89.563 25.8359 89.4513 25.8359 89.3136V88.8096Z" fill="#B3B3B3"/>
<path d="M32.7047 89.0148C32.7281 88.9784 32.7515 88.9446 32.7697 88.9031C32.9385 88.5315 32.7411 88.0847 32.4163 87.8197C32.0916 87.5547 31.6707 87.4352 31.2602 87.3182C30.3846 87.0714 29.5429 86.8376 28.6413 86.7155C28.4049 86.6817 25.8666 86.4505 25.877 86.3362C25.838 86.9753 25.7991 87.6144 25.7601 88.2562C25.7445 88.5212 25.6769 88.781 25.7575 89.0122H32.7021L32.7047 89.0148Z" fill="#485070"/>
<path d="M27.0326 85.8114C27.4197 85.4919 28.0199 85.4919 28.4356 85.7725C28.8513 86.0531 29.0773 86.5727 29.0539 87.0715C29.0487 87.165 29.0331 87.2663 28.963 87.3261C28.8928 87.3884 28.7915 87.3936 28.698 87.3936C28.2979 87.3988 27.8978 87.404 27.4977 87.4066C27.2482 87.4092 26.9287 87.4664 26.7572 87.243C26.4506 86.8481 26.7338 86.105 27.0326 85.8088V85.8114Z" fill="#485070"/>
<path fill-rule="evenodd" clip-rule="evenodd" d="M29.0218 87.2167C29.1205 86.9514 29.4039 86.7779 29.6814 86.8056C29.7349 86.811 29.774 86.8587 29.7686 86.9123C29.7633 86.9658 29.7155 87.0049 29.662 86.9995C29.4718 86.9805 29.2719 87.1031 29.2044 87.2847C29.1856 87.3351 29.1295 87.3608 29.0791 87.342C29.0287 87.3233 29.003 87.2672 29.0218 87.2167Z" fill="#B3B3B3"/>
<path fill-rule="evenodd" clip-rule="evenodd" d="M30.5099 87.1742C30.5105 87.2281 30.4673 87.2721 30.4135 87.2727C30.2081 87.275 30.0082 87.3897 29.9035 87.5633C29.8758 87.6094 29.8159 87.6243 29.7698 87.5965C29.7237 87.5687 29.7089 87.5089 29.7366 87.4628C29.8763 87.2311 30.1387 87.0809 30.4114 87.0779C30.4652 87.0773 30.5093 87.1204 30.5099 87.1742Z" fill="#B3B3B3"/>
<path fill-rule="evenodd" clip-rule="evenodd" d="M31.0679 87.4522C30.9493 87.4522 30.8324 87.5318 30.7899 87.6418C30.7705 87.692 30.7141 87.717 30.6639 87.6977C30.6137 87.6783 30.5887 87.6219 30.6081 87.5717C30.6799 87.3856 30.8697 87.2573 31.0679 87.2573C31.1217 87.2573 31.1654 87.3009 31.1654 87.3548C31.1654 87.4086 31.1217 87.4522 31.0679 87.4522Z" fill="#B3B3B3"/>
<path d="M18.0822 76.2504C17.1911 76.3751 16.2948 76.4791 15.3984 76.5622C16.0765 79.8955 16.3883 83.2912 16.9417 86.6479C17.7029 86.6453 18.3966 86.4842 19.2072 86.5024C19.3605 85.4865 19.6722 79.4538 20.1477 75.9153C19.3293 76.1179 18.9162 76.1335 18.0822 76.253V76.2504Z" fill="#CF9378"/>
<path d="M15.534 80.9945C15.7184 81.7454 15.9341 82.2052 16.6719 82.4988C17.3137 82.7534 18.0151 82.8574 18.701 82.7846C19.6233 82.6859 20.3768 82.0078 20.3768 82.0078C20.3768 82.0078 21.3303 67.773 20.1429 65.9492C18.6906 63.7174 15.508 63.2602 13.0295 62.7146C10.8575 62.2365 8.65951 61.8494 6.46675 61.4233C5.93155 63.4524 6.31866 65.84 7.09288 67.7132C7.09808 67.7236 7.10067 67.7314 7.10587 67.7418C7.72161 69.2123 9.13236 70.2074 10.7198 70.3425C11.8811 70.4412 13.0476 70.4776 14.2116 70.4516C14.196 70.4516 14.8715 78.3081 15.5314 80.9945H15.534Z" fill="#757E96"/>
<path fill-rule="evenodd" clip-rule="evenodd" d="M14.342 69.6547C14.3134 70.1065 14.2849 70.5562 14.2836 70.961L14.1797 70.9606C14.181 70.5525 14.2097 70.0998 14.2382 69.6491L14.2382 69.6481C14.2669 69.1963 14.2953 68.7465 14.2966 68.3418L14.4005 68.3421C14.3992 68.7503 14.3706 69.203 14.342 69.6537L14.342 69.6547Z" fill="#485070"/>
<path d="M16.7617 88.7004H23.7297V89.4539H17.0111C16.8734 89.4539 16.7617 89.3422 16.7617 89.2045V88.7004Z" fill="#B3B3B3"/>
<path d="M23.6305 88.9057C23.6539 88.8693 23.6773 88.8355 23.6954 88.7939C23.8643 88.4224 23.6669 87.9755 23.3421 87.7105C23.0173 87.4455 22.5965 87.326 22.186 87.2091C21.3104 86.9623 20.4686 86.7285 19.5671 86.6064C19.3307 86.5726 16.7924 86.3414 16.8028 86.2271C16.7638 86.8662 16.7248 87.5053 16.6859 88.147C16.6703 88.412 16.6027 88.6718 16.6833 88.9031H23.6279L23.6305 88.9057Z" fill="#485070"/>
<path d="M17.9584 85.7023C18.3455 85.3827 18.9457 85.3827 19.3613 85.6633C19.777 85.9439 20.0031 86.4635 19.9797 86.9624C19.9745 87.0559 19.9589 87.1572 19.8888 87.217C19.8186 87.2793 19.7173 87.2845 19.6238 87.2845C19.2236 87.2897 18.8235 87.2949 18.4234 87.2975C18.174 87.3001 17.8545 87.3573 17.683 87.1338C17.3764 86.7389 17.6596 85.9959 17.9584 85.6997V85.7023Z" fill="#485070"/>
<path fill-rule="evenodd" clip-rule="evenodd" d="M19.9475 87.1076C20.0463 86.8423 20.3296 86.6688 20.6071 86.6965C20.6607 86.7019 20.6997 86.7496 20.6944 86.8031C20.689 86.8567 20.6413 86.8958 20.5877 86.8904C20.3976 86.8714 20.1977 86.994 20.1302 87.1756C20.1114 87.226 20.0553 87.2517 20.0049 87.2329C19.9545 87.2141 19.9288 87.158 19.9475 87.1076Z" fill="#B3B3B3"/>
<path fill-rule="evenodd" clip-rule="evenodd" d="M21.4357 87.0651C21.4362 87.1189 21.3931 87.163 21.3393 87.1636C21.1339 87.1658 20.9339 87.2806 20.8293 87.4542C20.8016 87.5003 20.7417 87.5151 20.6956 87.4874C20.6495 87.4596 20.6347 87.3997 20.6624 87.3536C20.802 87.122 21.0645 86.9717 21.3372 86.9688C21.391 86.9682 21.4351 87.0113 21.4357 87.0651Z" fill="#B3B3B3"/>
<path fill-rule="evenodd" clip-rule="evenodd" d="M21.9937 87.343C21.875 87.343 21.7582 87.4226 21.7157 87.5327C21.6963 87.5829 21.6399 87.6079 21.5897 87.5885C21.5395 87.5692 21.5145 87.5128 21.5339 87.4626C21.6057 87.2765 21.7954 87.1482 21.9937 87.1482C22.0475 87.1482 22.0912 87.1918 22.0912 87.2456C22.0912 87.2994 22.0475 87.343 21.9937 87.343Z" fill="#B3B3B3"/>
<path d="M6.17683 64.1748C6.23918 64.5021 6.29894 64.8295 6.36129 65.1568C7.49145 64.5619 8.84504 64.6866 10.1207 64.684C12.9162 64.6788 15.7065 63.9825 18.1747 62.6731C18.037 61.9768 17.8785 61.3091 17.8733 60.6102C17.8707 59.8983 17.5745 59.2099 17.5745 58.4954C17.5278 57.5315 17.5641 56.565 17.6135 55.6038C17.7044 53.7799 17.8265 51.9353 17.4862 50.14C17.2654 48.9761 16.8289 47.8278 16.1222 46.8717C15.7975 46.4326 15.348 45.861 14.8492 45.609C14.3218 45.3414 13.5293 45.4297 12.9344 45.3778C12.5005 45.3388 12.0588 45.2998 11.6302 45.3752C11.1002 45.4661 10.6117 45.7233 10.1519 45.9987C7.6915 47.4744 7.39272 49.8542 6.65227 52.4159C6.28335 53.6968 5.70138 54.9075 5.33246 56.1857C5.12461 56.9002 5.03888 57.6458 5.05706 58.3889C5.07265 59.0618 5.33246 59.6593 5.45457 60.3218C5.69619 61.6079 5.93521 62.8939 6.17683 64.18V64.1748Z" fill="#A4A4A4"/>
<path fill-rule="evenodd" clip-rule="evenodd" d="M15.5481 47.4885C15.5748 47.478 15.605 47.4912 15.6155 47.5179C15.7017 47.738 15.5877 47.9893 15.4119 48.126C15.2359 48.2629 15.0102 48.3081 14.7987 48.3213L14.7984 48.3214C14.1902 48.3559 13.5691 48.1489 13.1042 47.7531C13.0824 47.7345 13.0797 47.7017 13.0983 47.6798C13.1169 47.658 13.1497 47.6553 13.1716 47.6739C13.616 48.0523 14.2107 48.2506 14.7924 48.2176C14.9965 48.2048 15.1968 48.1617 15.3481 48.044C15.4997 47.9261 15.5831 47.7202 15.5187 47.5558C15.5082 47.5291 15.5214 47.4989 15.5481 47.4885Z" fill="#485070"/>
<path fill-rule="evenodd" clip-rule="evenodd" d="M12.5565 53.0313C12.584 53.023 12.613 53.0386 12.6213 53.066C13.1439 54.8013 14.5245 56.2541 16.2315 56.8642C16.2585 56.8739 16.2726 56.9036 16.2629 56.9307C16.2533 56.9577 16.2235 56.9718 16.1965 56.9621C14.4585 56.3408 13.0539 54.8629 12.5218 53.096C12.5135 53.0685 12.529 53.0396 12.5565 53.0313Z" fill="#485070"/>
<path fill-rule="evenodd" clip-rule="evenodd" d="M14.1319 54.3973C14.154 54.3789 14.1867 54.3819 14.2051 54.4039C14.6434 54.9288 15.2885 55.2756 15.9663 55.3521C15.9948 55.3553 16.0154 55.381 16.0121 55.4095C16.0089 55.438 15.9832 55.4585 15.9547 55.4553C15.2503 55.3759 14.5808 55.016 14.1254 54.4705C14.107 54.4485 14.1099 54.4157 14.1319 54.3973Z" fill="#485070"/>
<path fill-rule="evenodd" clip-rule="evenodd" d="M11.0051 54.2812C11.0324 54.2726 11.0616 54.2878 11.0703 54.3151C11.699 56.3048 12.8297 58.1316 14.3253 59.5832C14.3459 59.6031 14.3464 59.636 14.3264 59.6566C14.3064 59.6772 14.2735 59.6777 14.2529 59.6577C12.7451 58.1942 11.6051 56.3526 10.9712 54.3464C10.9625 54.3191 10.9777 54.2899 11.0051 54.2812Z" fill="#485070"/>
<path fill-rule="evenodd" clip-rule="evenodd" d="M17.452 50.1926C17.336 49.3383 17.2477 48.688 16.6406 47.6435L16.7305 47.5913C17.3482 48.6541 17.4389 49.3229 17.5551 50.1796C17.573 50.3112 17.5914 50.4472 17.6125 50.5898L17.6125 50.5898C17.7896 51.7928 17.8729 53.0088 17.8573 54.225C17.8489 54.8837 17.796 55.5265 17.7439 56.1602C17.7154 56.5062 17.6872 56.8495 17.6665 57.1912C17.6079 58.1615 17.6095 59.1263 17.8352 60.1287L17.7338 60.1515C17.5049 59.1352 17.5039 58.1592 17.5628 57.1849C17.5838 56.8384 17.6122 56.493 17.6407 56.1462C17.6927 55.5151 17.745 54.8793 17.7534 54.2236C17.7689 53.0132 17.686 51.8026 17.5097 50.605C17.4885 50.4612 17.4699 50.3245 17.452 50.1926Z" fill="#485070"/>
<path d="M15.2051 44.9932C15.3116 44.6529 15.4597 44.3281 15.6442 44.0293C15.0882 44.0112 14.5686 43.8319 14.1165 43.5097C13.8931 43.3513 13.693 43.1642 13.5008 42.9693C13.4332 42.8992 13.3293 42.7225 13.2202 42.5952C13.1085 43.8189 12.6512 44.9698 11.6094 45.6687C11.9601 46.313 12.5525 46.7963 13.1864 47.1626C13.7294 47.477 15.0856 48.0875 15.1168 46.9859C15.1272 46.6248 14.9843 46.2923 15.0154 45.9259C15.0414 45.609 15.1116 45.2946 15.2077 44.9932H15.2051Z" fill="#CF9378"/>
<path d="M15.0112 46.0247C15.0112 45.9935 15.0112 45.9597 15.0138 45.9259C15.0398 45.609 15.11 45.2946 15.2061 44.9932C15.3126 44.6529 15.4607 44.3281 15.6452 44.0293C15.0892 44.0112 14.5696 43.8319 14.1175 43.5097C13.8941 43.3513 13.694 43.1642 13.5018 42.9693C13.4342 42.8992 13.3303 42.7225 13.2212 42.5952C13.2056 42.7745 13.1796 42.9512 13.1484 43.1278C13.2238 44.2684 14.0058 45.5024 15.0112 46.0247Z" fill="#9C5240"/>
<path d="M7.00929 47.8227C6.04281 48.9269 5.64531 50.4182 5.31795 51.8133C4.89447 53.6164 4.46839 55.422 4.0449 57.2251C3.89681 57.8512 3.66039 58.706 3.80068 59.3425C3.95137 60.0362 4.4502 60.6779 5.05555 61.0416C5.69727 61.4261 6.67414 61.6028 7.38081 61.2755C8.0719 60.9533 8.86171 60.6285 9.36313 60.0232C9.75284 59.5529 9.87755 58.9216 9.99186 58.3215C10.1452 57.4953 10.301 56.6691 10.4543 55.8403C11.0856 52.4628 11.717 48.9788 11.0025 45.6169C9.30078 45.869 8.00695 46.6847 7.01449 47.8201L7.00929 47.8227Z" fill="#A4A4A4"/>
<path fill-rule="evenodd" clip-rule="evenodd" d="M9.80044 52.5222C9.96244 51.8794 10.2908 51.3165 11.0198 51.1265L11.046 51.227C10.3695 51.4033 10.0588 51.9225 9.90121 52.5476C9.82237 52.8604 9.7827 53.1972 9.75484 53.5267C9.74455 53.6483 9.73585 53.7695 9.72734 53.888C9.71293 54.0885 9.69907 54.2814 9.67902 54.4562C9.49165 56.0957 9.17678 57.722 8.74484 59.3171L8.64453 59.2899C9.07515 57.6997 9.38901 56.0785 9.57577 54.4444L9.57577 54.4444C9.59562 54.2714 9.60916 54.0827 9.62341 53.8841C9.63194 53.7652 9.64073 53.6427 9.65128 53.5179C9.67928 53.1869 9.7195 52.8433 9.80044 52.5222Z" fill="#485070"/>
<path fill-rule="evenodd" clip-rule="evenodd" d="M10.8603 50.8869C10.4732 51.2027 10.1776 51.6359 10.0248 52.1147L9.92578 52.0831C10.0847 51.5851 10.3919 51.1349 10.7946 50.8064L10.8603 50.8869Z" fill="#485070"/>
<path d="M9.14609 58.8305C9.89953 58.9941 10.64 59.2358 11.3778 59.4592C12.5522 59.8151 13.7421 60.0204 14.9346 60.3373C15.2723 60.4283 15.6179 60.5166 15.9686 60.5192C16.5714 60.5244 17.1533 60.2802 17.7561 60.2672C18.5615 60.249 19.3513 60.6985 19.7878 61.3688C20.5256 62.4963 19.3019 62.1949 18.5329 62.182C17.9327 62.1742 17.3326 62.1638 16.7324 62.156C14.3734 62.1222 12.1417 62.2417 9.77482 62.4392C8.48878 62.5483 6.24666 62.8497 5.10351 62.0858C4.54752 61.7143 3.63041 59.9113 4.14223 59.3709C4.23835 59.2695 4.37085 59.2124 4.49816 59.1604C5.6569 58.7006 6.90916 58.5317 8.15103 58.6616C8.48619 58.698 8.81614 58.7551 9.1435 58.8253L9.14609 58.8305Z" fill="#CF9378"/>
<path d="M28.921 64.7153H13.33C13.1564 64.7153 13.0156 64.8561 13.0156 65.0297V65.1388C13.0156 65.3124 13.1564 65.4532 13.33 65.4532H28.921C29.0946 65.4532 29.2353 65.3124 29.2353 65.1388V65.0297C29.2353 64.8561 29.0946 64.7153 28.921 64.7153Z" fill="#485070"/>
<path d="M30.8763 65.4531H17.0156L18.2211 57.4901C18.2627 57.2147 18.4965 57.0068 18.7693 57.0068H31.531C31.861 57.0068 32.1078 57.303 32.0584 57.6382L30.8737 65.4531H30.8763Z" fill="#B0B3B9"/>
<path d="M17.9481 39.9245C17.7896 39.3062 17.1271 39.844 16.5218 39.6388C15.997 39.4569 15.5969 39.2958 15.0357 39.3945C14.5369 39.4803 14.0536 39.7297 13.7418 40.135C13.6561 40.2441 13.5808 40.3558 13.5106 40.4649C13.3262 40.8572 13.1573 41.2599 13.0456 41.6808C13.0456 41.6912 13.0456 41.699 13.043 41.7094C13.0715 42.52 13.3443 43.2631 13.7912 43.8788C14.2251 44.4789 14.9318 44.8557 15.6696 44.7673C16.0619 44.718 16.4308 44.5491 16.7504 44.2139C17.0674 43.8788 17.2856 43.4605 17.4649 43.037C17.7403 42.3901 18.1248 40.6052 17.9507 39.9245H17.9481Z" fill="#CF9378"/>
<path d="M15.0255 40.5324C15.0307 40.5064 15.0359 40.4753 15.0437 40.4389C15.0983 40.1817 15.1528 39.9219 15.2074 39.6647C15.8595 40.1531 16.5662 40.8468 17.4106 41.1274C18.0497 41.3404 18.7694 41.104 19.1746 40.5714C19.2474 40.4753 19.302 40.3713 19.3565 40.2648C19.3799 40.2155 19.4448 40.0102 19.4682 39.992C19.2422 40.1479 18.9174 40.0362 18.7356 39.8309C18.5537 39.6257 18.4706 39.3555 18.3667 39.1009C18.1224 38.5059 17.7197 37.9681 17.1897 37.6018C16.6597 37.2355 15.9998 37.0484 15.3607 37.1264C14.958 37.1731 14.5683 37.329 14.2461 37.5732C14.0876 37.6927 13.937 37.8356 13.82 37.9993C13.7655 38.0747 13.5369 38.4877 13.6304 38.5683C13.4875 38.4462 13.2641 38.4592 13.1004 38.5527C12.9367 38.6488 12.825 38.8099 12.7341 38.9736C12.3365 39.6699 12.1937 40.5038 12.3158 41.2963C12.3703 41.6496 12.4976 41.9588 12.6275 42.2861C12.7341 42.5537 12.9081 42.8551 13.2329 42.8603C13.6823 42.8707 13.633 42.1146 13.7603 41.7249C13.8097 41.5716 13.7993 41.3794 13.9811 41.3352C14.1656 41.2885 14.4644 41.6392 14.6073 41.3534C14.6592 41.2495 14.6332 41.1274 14.6099 41.0131C14.5865 40.8987 14.5683 40.774 14.6306 40.6753C14.6358 40.6649 14.8697 40.6753 14.9034 40.6649C14.9866 40.6363 15.01 40.5922 15.0229 40.5298L15.0255 40.5324Z" fill="#485070"/>
<path fill-rule="evenodd" clip-rule="evenodd" d="M13.9751 37.3238C14.0182 37.3559 14.0271 37.417 13.9949 37.4601C13.6653 37.902 13.5967 38.5269 13.8237 39.0297C13.8459 39.0788 13.8241 39.1365 13.775 39.1586C13.726 39.1808 13.6683 39.159 13.6461 39.1099C13.3899 38.5424 13.4668 37.8422 13.8387 37.3436C13.8709 37.3005 13.9319 37.2916 13.9751 37.3238Z" fill="#485070"/>
<path fill-rule="evenodd" clip-rule="evenodd" d="M13.5145 38.6182C13.327 38.3972 12.9674 38.3392 12.7234 38.4922C12.6778 38.5208 12.6177 38.507 12.5891 38.4615C12.5605 38.4159 12.5743 38.3558 12.6199 38.3272C12.9475 38.1217 13.4141 38.1987 13.6631 38.4922C13.6979 38.5332 13.6928 38.5947 13.6518 38.6295C13.6108 38.6643 13.5493 38.6592 13.5145 38.6182Z" fill="#485070"/>
<path d="M16.2534 42.2342C16.3654 42.2342 16.4561 42.1434 16.4561 42.0315C16.4561 41.9196 16.3654 41.8289 16.2534 41.8289C16.1415 41.8289 16.0508 41.9196 16.0508 42.0315C16.0508 42.1434 16.1415 42.2342 16.2534 42.2342Z" fill="#485070"/>
<path fill-rule="evenodd" clip-rule="evenodd" d="M16.4723 41.588C16.3615 41.5481 16.2379 41.544 16.1266 41.5789C16.0753 41.595 16.0206 41.5665 16.0045 41.5151C15.9884 41.4638 16.0169 41.4091 16.0683 41.393C16.2221 41.3448 16.3894 41.3511 16.5383 41.4047C16.589 41.4229 16.6152 41.4787 16.597 41.5294C16.5788 41.58 16.523 41.6063 16.4723 41.588Z" fill="#485070"/>
<path d="M17.7334 42.2393C17.7334 42.351 17.6425 42.4419 17.5308 42.4419C17.4191 42.4419 17.3281 42.351 17.3281 42.2393C17.3281 42.1276 17.4191 42.0366 17.5308 42.0366C17.6425 42.0366 17.7334 42.1276 17.7334 42.2393Z" fill="#485070"/>
<path fill-rule="evenodd" clip-rule="evenodd" d="M17.7497 41.7958C17.6388 41.7559 17.5152 41.7518 17.404 41.7867C17.3526 41.8028 17.2979 41.7742 17.2818 41.7229C17.2657 41.6716 17.2943 41.6169 17.3456 41.6008C17.4994 41.5525 17.6667 41.5588 17.8157 41.6125C17.8663 41.6307 17.8926 41.6865 17.8744 41.7371C17.8561 41.7878 17.8003 41.814 17.7497 41.7958Z" fill="#485070"/>
<path fill-rule="evenodd" clip-rule="evenodd" d="M17.0216 42.2416C17.0749 42.2486 17.1124 42.2976 17.1054 42.3509C17.0854 42.5018 17.1277 42.663 17.2187 42.7856C17.2194 42.7865 17.2202 42.7875 17.2209 42.7885C17.2339 42.8049 17.2527 42.8287 17.2674 42.8546C17.2833 42.8824 17.3005 42.9222 17.2984 42.9698C17.2975 43.0273 17.2685 43.0721 17.2381 43.1013C17.2073 43.131 17.1686 43.1516 17.131 43.1621L17.1297 43.1624L17.1297 43.1624C17.0654 43.1793 16.9987 43.167 16.959 43.1597C16.9524 43.1585 16.9466 43.1574 16.9416 43.1567C16.8885 43.1483 16.8522 43.0984 16.8606 43.0452C16.869 42.9921 16.9189 42.9558 16.972 42.9642C16.9848 42.9662 16.9958 42.9681 17.0055 42.9697C17.0437 42.9761 17.0606 42.9789 17.0794 42.9742C17.0833 42.973 17.0878 42.9712 17.0922 42.9688C17.0968 42.9662 17.1004 42.9634 17.1029 42.9611C17.1029 42.961 17.103 42.961 17.103 42.9609C17.1023 42.959 17.1009 42.9558 17.0983 42.9513C17.0909 42.9383 17.0804 42.925 17.0647 42.905L17.0631 42.903L17.0632 42.903C16.9416 42.74 16.8854 42.5275 16.9122 42.3254C16.9193 42.272 16.9682 42.2345 17.0216 42.2416ZM17.1054 42.9583C17.1055 42.9582 17.1055 42.9581 17.1055 42.9581L17.1054 42.9583Z" fill="#485070"/>
<path fill-rule="evenodd" clip-rule="evenodd" d="M16.0246 43.3801C16.0604 43.3399 16.1219 43.3363 16.1622 43.372C16.3254 43.5172 16.5609 43.5769 16.7751 43.529C16.8276 43.5173 16.8797 43.5504 16.8914 43.6029C16.9031 43.6554 16.8701 43.7075 16.8175 43.7192C16.5432 43.7805 16.2435 43.7051 16.0327 43.5177C15.9925 43.4819 15.9889 43.4203 16.0246 43.3801Z" fill="#485070"/>
<path d="M12.9922 41.6652C12.9922 42.0757 13.3247 42.4082 13.7352 42.4082C14.1457 42.4082 14.4783 42.0757 14.4783 41.6652C14.4783 41.2547 14.1457 40.9221 13.7352 40.9221C13.3247 40.9221 12.9922 41.2547 12.9922 41.6652Z" fill="#CF9378"/>
<path fill-rule="evenodd" clip-rule="evenodd" d="M13.8014 41.524C13.7558 41.4678 13.675 41.4358 13.6004 41.4449C13.547 41.4514 13.4984 41.4134 13.4919 41.36C13.4854 41.3066 13.5234 41.258 13.5768 41.2515C13.7153 41.2346 13.8631 41.2909 13.9526 41.4011C14.0417 41.5108 14.0685 41.6687 14.0207 41.802C14.0096 41.8327 13.9839 41.8559 13.9522 41.8637C13.9205 41.8715 13.887 41.8629 13.863 41.8408C13.8289 41.8094 13.7738 41.8008 13.7278 41.8227C13.6859 41.844 13.657 41.895 13.6599 41.9425C13.6631 41.9962 13.6222 42.0423 13.5685 42.0456C13.5148 42.0489 13.4687 42.008 13.4654 41.9542C13.4579 41.8305 13.5275 41.705 13.6412 41.6482L13.6423 41.6476L13.6423 41.6476C13.7058 41.6169 13.7776 41.6084 13.8453 41.6219C13.8386 41.5858 13.8237 41.5514 13.8014 41.524Z" fill="#485070"/>
<path d="M96.158 84.1408C96.1372 84.0473 93.4846 84.5123 93.191 84.5565C93.1806 84.5669 93.1702 84.5747 93.1598 84.5851C92.2427 85.3645 91.0788 85.788 89.9408 86.2011C89.7642 86.266 89.5823 86.3336 89.4602 86.4765C88.9432 87.0818 90.0396 87.3442 90.4293 87.3754C91.0658 87.43 91.6971 87.3001 92.3155 87.1909C93.5937 86.9649 94.8979 87.0403 96.1632 86.7259C96.2126 86.7129 96.2671 86.6973 96.2957 86.6583C96.3191 86.6246 96.3243 86.583 96.3269 86.5414C96.397 85.7438 96.3399 84.9306 96.1606 84.1408H96.158Z" fill="#485070"/>
<path d="M90.3504 65.4844C90.9922 71.8705 92.1587 78.4228 92.8913 84.8036C94.3878 84.9335 94.9308 84.8348 96.3831 84.588C97.3366 77.6486 97.7393 74.2997 96.8794 67.2589C96.791 66.5366 96.8664 60.5507 96.8404 59.7817C96.6871 55.2065 97.3003 49.9818 94.5515 46.1185C93.8578 45.1416 92.7199 44.3934 91.5637 44.4843C90.7194 44.5492 90.0673 45.0117 89.5814 45.6716C88.1629 47.5994 88.9527 52.8345 89.2073 55.1208C89.5424 58.1501 90.0465 62.4421 90.3504 65.4844Z" fill="#757E96"/>
<path d="M90.8012 69.4567C91.061 68.3499 91.378 67.2535 91.6898 66.1597C92.7835 62.3328 93.233 58.4019 93.7812 54.4684C93.9111 53.5357 94.041 52.603 94.0254 51.6599C94.0072 50.7038 93.8825 49.7452 93.8072 48.7917C93.7032 47.4926 93.5759 46.1858 93.2694 44.9232C92.7446 44.6114 92.16 44.4373 91.5676 44.4841C90.7233 44.549 90.0712 45.0115 89.5853 45.6714C88.1668 47.5992 88.9566 52.8343 89.2112 55.1206C89.5463 58.1499 90.0504 62.4419 90.3543 65.4842C90.4842 66.7885 90.6375 68.1161 90.8038 69.4567H90.8012Z" fill="#545D78"/>
<path d="M85.9282 85.0267C85.9023 85.0267 85.8737 85.0267 85.8503 85.0319C85.0007 85.1332 84.1382 85.1306 83.2886 85.0189C83.1795 85.0059 83.0704 84.9877 82.9638 85.0137C82.8677 85.0371 82.782 85.089 82.6988 85.141C81.9038 85.6242 81.0231 85.962 80.1086 86.1309C79.5812 86.227 79.0148 86.2815 78.5991 86.6167C78.4043 86.7726 78.251 87.0636 78.3991 87.2636C78.451 87.3312 78.5264 87.3753 78.6043 87.4117C79.4019 87.7858 80.6074 87.6403 81.4648 87.5936C82.8495 87.5156 84.2213 87.6014 85.5879 87.3234C85.6451 87.313 85.7022 87.2974 85.7464 87.261C85.8087 87.209 85.8295 87.1259 85.8477 87.048C85.936 86.6712 86.0088 86.2867 86.0555 85.8996C86.0737 85.7463 86.1595 85.1982 86.0555 85.0708C86.027 85.0371 85.9828 85.0267 85.9386 85.0241L85.9282 85.0267Z" fill="#485070"/>
<path d="M89.3153 45.3621C86.1664 45.3128 85.2025 48.5993 84.8284 51.1272C84.036 56.4662 83.48 61.839 83.1631 67.2274C83.0046 69.9086 82.7941 72.1715 82.7058 74.8553C82.6123 77.6093 82.4642 82.3767 82.5837 85.1177C82.5837 85.1722 82.5915 85.232 82.6253 85.2761C82.6668 85.3229 82.7344 85.3333 82.7967 85.3411C83.9503 85.4632 85.1168 85.4814 86.2755 85.3905C86.3301 85.3853 86.3873 85.3801 86.4314 85.3489C86.4808 85.3125 86.0365 85.1384 86.0547 85.0787C86.9406 82.3429 87.546 77.4534 87.824 74.5929C88.406 68.6148 89.6478 62.7977 91.877 57.2768C94.1061 52.0625 95.3662 45.4608 89.3179 45.3621H89.3153Z" fill="#757E96"/>
<path fill-rule="evenodd" clip-rule="evenodd" d="M93.9468 51.2891C93.0468 54.4391 91.9595 57.5344 90.6954 60.5543L90.5156 60.479C91.7768 57.4662 92.8615 54.3781 93.7594 51.2356L93.9468 51.2891Z" fill="#485070"/>
<path d="M89.9334 52.4445C89.9334 52.4445 89.9542 52.4471 89.9646 52.4497C90.253 52.4964 90.5414 52.538 90.8298 52.5744C91.0428 52.6004 91.2559 52.6238 91.4689 52.6419C91.539 52.6497 91.6092 52.6549 91.6793 52.6601C91.8586 52.6757 92.0353 52.6887 92.2145 52.6965C92.3159 52.7017 92.4172 52.7069 92.5159 52.7095C92.5939 52.7121 92.6744 52.7173 92.7523 52.7199C94.1111 52.7614 95.4751 52.6705 96.8131 52.4341C96.6131 50.0205 96.0857 47.6952 94.6827 45.7259C93.989 44.749 92.8511 44.0008 91.6949 44.0917C90.8506 44.1567 90.1984 44.6191 89.7126 45.279C89.6061 45.4219 89.5152 45.5882 89.4346 45.7649C86.6989 45.7025 85.4908 48.4591 84.8828 50.7843C85.4986 51.1584 86.1766 51.4442 86.8418 51.6755C87.8446 52.0262 88.8864 52.2704 89.936 52.4445H89.9334Z" fill="#545D78"/>
<path d="M91.3057 28.1994C91.3238 27.8435 91.3005 27.4875 91.2303 27.1446C91.7551 27.3212 92.3059 27.3368 92.8437 27.1913C93.1087 27.1212 93.3607 27.0147 93.6075 26.8978C93.6959 26.8562 93.8544 26.7263 93.9998 26.6458C93.6777 27.8305 93.7037 29.0697 94.4389 30.0882C93.8855 30.5688 93.1633 30.8156 92.441 30.9378C91.8201 31.0443 90.3392 31.1404 90.6951 30.0986C90.812 29.7582 91.0614 29.4958 91.1602 29.1399C91.2459 28.8333 91.2901 28.5138 91.3057 28.1994Z" fill="#F7B699"/>
<path d="M92.7423 27.2122C92.2383 27.3291 91.7239 27.3084 91.2302 27.1421C91.3004 27.4876 91.3238 27.841 91.3056 28.1969C91.29 28.5139 91.2458 28.8334 91.1601 29.1374C91.1523 29.1686 91.1393 29.1998 91.1289 29.2309C91.1913 29.2231 91.251 29.2127 91.3134 29.1998C92.0148 28.7269 92.4955 28.0098 92.7423 27.2096V27.2122Z" fill="#C46E58"/>
<path d="M90.5027 22.489C90.8665 21.9641 91.3003 22.702 91.9395 22.7176C92.4955 22.7306 92.9267 22.7176 93.4178 23.0086C93.8542 23.2632 94.2206 23.6659 94.3738 24.1543C94.4154 24.2868 94.4492 24.4167 94.4752 24.544C94.5116 24.9779 94.5297 25.4144 94.4882 25.8483C94.4882 25.856 94.483 25.8664 94.4804 25.8742C94.1686 26.6251 93.6568 27.2252 93.0229 27.6461C92.4071 28.0566 91.6121 28.1631 90.9548 27.8228C90.6041 27.6409 90.3157 27.3525 90.1338 26.929C89.952 26.5056 89.8948 26.0379 89.874 25.5755C89.8402 24.874 90.1026 23.0657 90.5053 22.489H90.5027Z" fill="#F7B699"/>
<path d="M91.2215 23.7073C90.7226 23.7801 90.3173 23.858 89.8601 23.5904C89.5119 23.3878 89.2469 23.0526 89.13 22.6681C89.0963 22.5512 89.0781 22.4369 89.0651 22.3174C89.0599 22.2628 89.0729 22.0472 89.0547 22.0238C89.2132 22.2472 89.5561 22.2576 89.7977 22.1303C90.0394 22.003 90.2108 21.777 90.3979 21.5743C90.8344 21.1015 91.4007 20.7404 92.0243 20.5819C92.6478 20.4234 93.3311 20.478 93.9053 20.7741C94.2638 20.9586 94.5756 21.2418 94.7938 21.5821C94.9003 21.751 94.9913 21.9381 95.0432 22.1303C95.0666 22.2213 95.1367 22.6889 95.0224 22.7305C95.1991 22.6655 95.4044 22.7565 95.5239 22.9019C95.6434 23.0474 95.6901 23.2397 95.7213 23.4242C95.8148 24.0061 95.7343 24.7492 95.4901 25.2896C95.2978 25.713 95.0952 26.1807 94.8588 26.5834C94.6535 26.9341 94.3677 27.2511 94.0014 27.4304C93.5389 27.6538 93.0011 27.6382 92.4867 27.6096C92.0139 27.5837 91.6527 27.4148 91.4579 26.9601C91.3696 26.7549 91.341 26.5029 91.3254 26.282C91.3202 26.1859 91.2734 25.5182 91.354 25.4792C91.2578 25.5286 91.1565 25.5805 91.0474 25.5883C90.9383 25.5961 90.8188 25.552 90.772 25.4532C90.7278 25.3623 90.7564 25.2532 90.785 25.1545C90.9279 24.6712 91.0734 24.188 91.2163 23.7047L91.2215 23.7073Z" fill="#485070"/>
<path fill-rule="evenodd" clip-rule="evenodd" d="M95.1365 21.4393C95.1881 21.4241 95.2423 21.4535 95.2576 21.5051C95.4341 22.1007 95.2582 22.7869 94.823 23.2276C94.7852 23.2659 94.7235 23.2663 94.6852 23.2285C94.6469 23.1907 94.6465 23.129 94.6844 23.0907C95.0702 22.7 95.2268 22.0872 95.0708 21.5604C95.0555 21.5088 95.0849 21.4546 95.1365 21.4393Z" fill="#485070"/>
<path fill-rule="evenodd" clip-rule="evenodd" d="M95.0146 22.6429C95.3529 22.4529 95.8138 22.5469 96.0512 22.8525C96.0842 22.895 96.0765 22.9562 96.034 22.9892C95.9915 23.0222 95.9303 23.0145 95.8973 22.9721C95.7189 22.7425 95.364 22.6702 95.11 22.8128C95.0631 22.8391 95.0037 22.8224 94.9773 22.7755C94.951 22.7286 94.9677 22.6692 95.0146 22.6429Z" fill="#485070"/>
<path d="M92.4017 25.8507C92.2588 26.2352 91.8301 26.43 91.4482 26.2872C91.0637 26.1443 90.8688 25.7156 91.0117 25.3337C91.1546 24.9492 91.5833 24.7543 91.9652 24.8972C92.3497 25.0401 92.5446 25.4688 92.4017 25.8507Z" fill="#F7B699"/>
<path fill-rule="evenodd" clip-rule="evenodd" d="M91.5909 25.2703C91.7136 25.1988 91.871 25.1957 91.9963 25.26C92.0442 25.2846 92.063 25.3433 92.0385 25.3912C92.0139 25.4391 91.9552 25.458 91.9073 25.4334C91.8404 25.399 91.7536 25.4011 91.6891 25.4387C91.6589 25.4563 91.6334 25.4826 91.6148 25.5135C91.6825 25.5247 91.7463 25.5574 91.7935 25.6067C91.8817 25.6987 91.9034 25.8434 91.8504 25.9569C91.8277 26.0056 91.7697 26.0267 91.7209 26.004C91.6722 25.9812 91.6511 25.9232 91.6739 25.8745C91.6936 25.8321 91.6841 25.7741 91.6528 25.7415C91.6194 25.7065 91.5631 25.6947 91.5218 25.712C91.4914 25.7247 91.4565 25.7212 91.4292 25.7026C91.4019 25.6839 91.3859 25.6528 91.3867 25.6197C91.3901 25.481 91.4669 25.3427 91.5909 25.2703Z" fill="#485070"/>
<path d="M82.0915 34.2737C82.1356 34.0424 82.3071 33.8424 82.5305 33.7645C82.7592 33.6839 83.1463 33.6839 83.2242 33.4527C83.2632 33.3384 83.2996 33.2942 83.2086 33.2163C83.1151 33.1383 82.993 33.1045 82.8709 33.0994C82.4994 33.076 82.1226 33.2864 81.946 33.6138C81.8914 33.7151 81.8135 33.8476 81.7018 33.8138C81.6498 33.7982 81.616 33.7489 81.5952 33.6995C81.4653 33.3955 81.6446 33.0578 81.8187 32.7772C81.9538 32.5564 82.1019 32.3277 82.3253 32.1978C82.5773 32.0549 82.8865 32.0627 83.1775 32.0835C83.7646 32.1251 84.3778 32.1692 84.874 32.5174C85.0039 32.6083 85.1234 32.7148 85.2533 32.8084C85.5859 33.0448 85.9782 33.1773 86.3653 33.3046C86.2458 33.7229 86.1237 34.1412 86.0041 34.5621C85.9989 34.5828 85.9912 34.6062 85.9704 34.6192C85.9496 34.6322 85.9236 34.627 85.9002 34.6192C85.1884 34.4451 84.3674 34.2997 83.6529 34.1879C83.1411 34.123 82.6007 34.1879 82.0941 34.2737H82.0915Z" fill="#F7B699"/>
<path d="M86.0065 32.3694C85.3544 33.1878 85.0036 34.2426 85.0374 35.2896C85.4946 35.4715 85.9519 35.6533 86.4092 35.8378C86.5676 35.1129 86.7235 34.3881 86.882 33.6658C86.9288 33.4476 87.1236 32.9851 86.9989 32.8059C86.8664 32.6136 86.2273 32.4681 86.0065 32.372V32.3694Z" fill="white"/>
<path d="M90.7206 34.0867C90.3491 33.8554 89.9516 33.6502 89.5411 33.4657C88.837 33.1488 88.0939 32.889 87.3847 32.6447C87.1171 32.5512 86.8339 32.4473 86.5559 32.3901C85.7843 33.2137 85.5141 34.6089 85.6076 35.7806C86.4208 36.4925 87.6107 36.916 88.507 37.4745C89.0085 37.7889 89.5073 38.1163 90.0581 38.3319C90.6089 38.5475 91.2272 38.6463 91.7962 38.4826C92.0924 38.3969 92.3859 38.2228 92.5158 37.9422C92.5964 37.7681 92.6068 37.5681 92.6016 37.3758C92.5678 36.0586 91.8378 34.7804 90.718 34.0841L90.7206 34.0867Z" fill="#545D78"/>
<path d="M77.3297 38.6567C77.0258 38.1137 76.953 37.4356 77.179 36.8563C77.2622 36.6406 77.4025 36.4276 77.6207 36.3574C77.8831 36.2743 78.1741 36.4328 78.3404 36.6536C78.5066 36.8744 78.5846 37.1472 78.6911 37.4019C78.8054 37.6772 78.9561 37.9396 79.138 38.1761C79.3276 38.4229 79.5563 38.6619 79.6108 38.9659C79.655 39.2075 79.5718 39.4699 79.3952 39.644C78.7431 40.2857 77.6467 39.2179 77.3297 38.6567Z" fill="#F7B699"/>
<path d="M84.6751 38.262L80.7338 40.1716L75.5195 35.4379L79.4608 33.5283L84.6751 38.262Z" fill="#F4AE2D"/>
<path d="M84.0309 38.0644L80.6457 39.7037L76.1406 35.6144L79.5259 33.9724L84.0309 38.0644Z" fill="white"/>
<path d="M80.0383 34.8402L77.2246 36.2016L76.9492 35.9548L79.7655 34.5908L80.0383 34.8402Z" fill="#C8DDF7"/>
<path d="M81.4771 36.1444L78.6634 37.5084L78.3906 37.259L81.2043 35.895L81.4771 36.1444Z" fill="#C8DDF7"/>
<path d="M81.9563 36.5758L79.1426 37.9398L78.8672 37.6904L81.6809 36.3264L81.9563 36.5758Z" fill="#C8DDF7"/>
<path d="M82.4289 37.0097L79.6152 38.3711L79.3398 38.1242L82.1535 36.7603L82.4289 37.0097Z" fill="#C8DDF7"/>
<path d="M82.9068 37.4408L80.0931 38.8048L79.8203 38.5554L82.634 37.1914L82.9068 37.4408Z" fill="#C8DDF7"/>
<path d="M83.3821 37.8722L80.5684 39.2362L80.293 38.9868L83.1067 37.6228L83.3821 37.8722Z" fill="#C8DDF7"/>
<path d="M79.358 34.3596L76.9937 35.5053L75.9883 34.5908L78.3525 33.4451L79.358 34.3596Z" fill="#485070"/>
<path d="M77.7363 38.2229C77.6974 38.2696 77.661 38.3164 77.6298 38.3684C77.331 38.8464 77.9078 39.2933 78.2767 39.5505C79.1107 40.1377 80.1292 40.4182 81.0956 40.6988C81.6412 40.8573 83.2208 40.4676 82.7844 39.6102C82.4856 39.0257 81.6048 38.6879 81.0255 38.5321C80.4227 38.4203 79.9083 38.1683 79.6823 37.5578C79.581 37.2876 79.542 36.9966 79.4537 36.7212C79.4329 36.6537 79.4069 36.5835 79.3523 36.5367C79.3004 36.49 79.212 36.4718 79.1575 36.516C79.1263 36.5419 79.1107 36.5809 79.0951 36.6173C78.9262 37.0875 79.2302 37.4357 78.6483 37.7137C78.456 37.8046 78.2456 37.8566 78.0585 37.9579C77.9364 38.0254 77.8273 38.1164 77.7363 38.2203V38.2229Z" fill="#F7B699"/>
<path d="M80.641 37.7136C80.0798 38.597 79.846 39.6856 79.9914 40.7222C80.4669 40.8547 80.9397 40.9872 81.4152 41.1197C81.4931 40.3818 81.5711 39.6466 81.6516 38.9087C81.675 38.6879 81.8179 38.2047 81.675 38.041C81.5217 37.8643 80.8722 37.789 80.6436 37.7162L80.641 37.7136Z" fill="white"/>
<path d="M90.3918 29.1296C90.6698 28.8802 91.0725 28.8334 91.444 28.7971C92.4079 28.7061 93.3692 28.6178 94.3331 28.5269C94.5149 29.1712 94.6968 29.8155 94.8787 30.4598C94.8709 30.4338 91.7558 30.5559 91.457 30.5481C91.1452 30.5378 90.1294 30.6391 89.9995 30.3481C89.854 30.0233 90.1502 29.3452 90.3892 29.1296H90.3918Z" fill="white"/>
<path d="M96.7226 45.1882C96.7252 44.162 96.7823 43.1383 96.8473 42.1147C96.933 40.7819 97.0317 39.4491 97.0499 38.1137C97.0707 36.4925 97.0057 34.783 96.72 33.1488C96.6498 32.7409 96.5641 32.3382 96.4627 31.9433C96.442 31.8628 96.4186 31.7744 96.3952 31.6861C96.0886 30.9508 95.5067 29.974 94.7298 29.5401C94.5999 29.5323 94.47 29.5401 94.3401 29.5479C93.449 29.6076 92.5605 29.7064 91.6771 29.8415C91.0692 29.935 90.6379 30.0129 90.191 30.478C89.0505 31.6653 87.9801 34.3283 87.6813 35.9625C87.3955 37.5239 87.5072 37.6149 87.3461 39.1893C87.1539 41.0651 86.8785 42.9331 86.5278 44.7855C86.2316 46.347 85.7847 48.0435 84.4883 48.9632C86.6395 49.8673 88.8167 50.7767 91.1211 51.1378C93.4256 51.4989 95.9068 51.2573 97.8683 49.992C96.9434 48.5657 96.72 46.8925 96.7252 45.1908L96.7226 45.1882Z" fill="#757E96"/>
<path d="M91.4059 34.6219C91.3176 34.4505 91.2085 34.2816 91.0474 34.1751C90.8759 34.0607 90.6603 34.0296 90.4551 34.04C89.5535 34.0789 88.8391 34.8168 88.3584 35.5806C87.8778 36.3444 87.5063 37.207 86.8178 37.7916C85.6201 38.8152 82.7336 37.9786 81.393 37.6798C80.372 38.6775 80.2629 39.8336 80.7929 41.1794C82.5907 41.9692 86.3735 43.8424 88.335 42.9071C89.0183 42.5824 89.5276 42.016 89.9484 41.3743C90.1901 41.0028 90.4031 40.6079 90.6031 40.2182C91.05 39.3452 91.4787 38.4515 91.6839 37.4928C91.8892 36.5341 91.8554 35.4949 91.4059 34.6219Z" fill="#757E96"/>
<path d="M92.2037 31.3769C91.6062 30.7404 90.5773 30.6702 89.8551 31.1249C89.4316 31.3899 89.2185 31.9381 89.0003 32.372C88.7327 32.9046 88.5041 33.4553 88.3196 34.0217C88.1273 34.6063 87.9793 35.2064 87.8 35.7936C87.5038 36.7575 87.1193 37.698 86.8985 38.6826C86.6776 39.6673 86.6283 40.7247 86.9998 41.6626C87.5298 43.0032 89.2939 42.2914 90.0785 41.5457C90.7566 40.904 91.0787 39.9843 91.3827 39.1009C91.6867 38.2124 91.9881 37.3265 92.292 36.4379C92.5467 35.6897 92.8402 34.6972 92.8948 33.7385C92.9442 32.8526 92.7883 31.9926 92.2089 31.3769H92.2037Z" fill="#757E96"/>
<path fill-rule="evenodd" clip-rule="evenodd" d="M89.6884 31.4004C88.6753 33.1216 87.9413 35.0084 87.5226 36.9649L87.332 36.9242C87.7551 34.9473 88.4968 33.0409 89.5205 31.3015L89.6884 31.4004Z" fill="#485070"/>
<path fill-rule="evenodd" clip-rule="evenodd" d="M92.1422 36.7925L92.7229 35.2297L92.9055 35.2976L91.7442 38.4231C91.6944 38.5571 91.6443 38.7002 91.5925 38.8479C91.5025 39.1046 91.4076 39.3752 91.3014 39.6359C91.1331 40.0492 90.9303 40.4541 90.6566 40.775M92.1422 36.7925L91.5616 38.3552L92.1422 36.7925ZM91.5616 38.3552L91.6529 38.3891L91.5616 38.3552ZM91.4057 38.7916C91.4579 38.6427 91.5091 38.4965 91.5616 38.3552L91.6529 38.3891M91.4057 38.7916C91.3171 39.0444 91.2258 39.305 91.121 39.5624L91.4057 38.7916ZM91.121 39.5624C90.9555 39.9688 90.762 40.3512 90.5084 40.6486L91.121 39.5624ZM90.5084 40.6486C90.3926 40.7844 90.2791 40.922 90.166 41.0591L90.5084 40.6486ZM90.166 41.0591C89.7604 41.5509 89.3587 42.0379 88.8647 42.4279L90.166 41.0591ZM88.8647 42.4279C88.2508 42.9093 87.4854 43.2304 86.7261 43.1558L86.707 43.3497C87.5325 43.4309 88.3467 43.0818 88.985 42.5811L88.9853 42.5809C89.4973 42.1767 89.9165 41.6683 90.324 41.174C90.4352 41.0392 90.5455 40.9053 90.6566 40.775" fill="#485070"/>
<path fill-rule="evenodd" clip-rule="evenodd" d="M92.3164 36.3392C92.5173 35.9727 92.8211 35.6635 93.1847 35.4546L93.2818 35.6235C92.949 35.8147 92.6709 36.0979 92.4873 36.4329L92.3164 36.3392Z" fill="#485070"/>
<path d="M81.094 35.0844L80.6289 35.3364L80.8653 34.8636L83.6686 31.9615C83.7284 31.8992 83.8297 31.8966 83.8947 31.9563C83.957 32.0161 83.9596 32.1174 83.8999 32.1824L81.0966 35.0844H81.094Z" fill="#485070"/>
</g>
<defs>
<clipPath id="clip0_1349_2443">
<rect width="97.8664" height="89.5656" fill="white"/>
</clipPath>
</defs>
</svg>
