<svg width="80" height="81" viewBox="0 0 80 81" fill="none" xmlns="http://www.w3.org/2000/svg">
<g clip-path="url(#clip0_1_957)">
<rect x="35.9355" y="10.887" width="36.8889" height="52.049" rx="5" fill="white" stroke="#363A74" stroke-width="2"/>
<path d="M16.9094 12.5772L16.9774 12.4866C17.2115 12.9095 17.355 13.3777 17.6042 13.7855C18.1554 14.6917 19.1145 15.4091 20.134 15.696C20.6022 15.832 21.1534 15.832 21.6367 15.7942V16.1944L21.7802 17.9086L22.2862 18.1503C24.9217 19.0716 27.0059 20.1666 28.6748 22.4849C28.4785 22.4698 28.2519 22.4849 28.1085 22.3565L28.0556 22.4925L28.3652 23.0135C29.3771 25.9738 29.3847 28.7905 29.2563 31.8791L31.2197 31.8867L33.0019 31.8791H35.2825L36.1811 31.8867C36.9438 31.8716 38.4617 31.645 39.0281 32.1887C39.3226 32.4757 39.4434 32.7702 39.4283 33.178C39.3981 34.0917 39.0432 35.1414 38.8619 36.0476C38.3484 38.6378 37.8727 41.3262 37.1628 43.8711C37.5253 43.8711 37.7367 43.8711 38.0388 44.1127C38.0237 44.5507 38.0464 44.6715 37.7972 45.0491C37.3969 45.3814 36.6795 45.2681 36.1887 45.2606H29.0071L28.8863 46.1667C25.9789 48.3341 18.8502 47.9791 15.384 47.4807L13.2393 47.0578C13.2091 47.5336 13.2771 48.3643 12.9826 48.7267L10.0752 48.0622L10.0526 46.567L10.0299 45.91C9.78827 45.7892 9.51641 45.6079 9.32007 45.4116C9.06331 45.1624 9.10107 44.8075 9.10107 44.4752C9.31251 43.7653 9.41068 42.98 9.52396 42.2475C7.04703 41.0694 4.48704 39.8385 2.4028 38.0337C0.832066 36.6819 0.175076 35.3528 0.0240444 33.2837C-0.164746 31.1617 0.907582 28.8887 1.9195 27.0763C3.3694 24.471 5.56692 21.2842 8.23264 19.8117C9.05576 19.3586 9.9544 19.1018 10.853 18.8526C11.646 18.6865 12.4238 18.4977 13.2242 18.3542C13.8057 18.2485 14.508 18.1956 15.0593 17.9917C15.6332 17.6368 16.1392 17.6368 16.7962 17.6141C17.3172 17.0478 17.1737 15.1674 17.1435 14.4198L17.0605 14.3292C17.0756 14.1177 16.9774 13.8761 16.9547 13.6571C16.9019 13.2871 16.917 12.9246 16.9094 12.5772Z" fill="#949494"/>
<path d="M8.46673 31.8338C8.5649 32.8457 8.67063 33.835 8.95759 34.8167C8.38367 34.7487 7.53033 33.7066 6.95641 33.3668C7.30379 32.8231 7.99853 32.2944 8.46673 31.8338Z" fill="#FEFEFE"/>
<path d="M6.95641 33.3668H6.82048L6.53352 33.0723C6.58638 32.7778 6.86579 32.5739 7.07724 32.37C7.5983 31.8565 8.11936 31.3429 8.63287 30.8219C10.0148 29.4399 11.2835 27.9145 12.3105 26.2532C12.6352 25.7321 12.9297 25.1959 13.1789 24.6296C13.3375 24.2671 13.4281 23.814 13.7151 23.5346C13.413 24.841 12.892 25.8831 12.2576 27.0536C12.0084 27.5143 11.7441 28.0882 11.3665 28.4582C10.7775 29.0699 10.264 29.7496 9.69764 30.3839C9.28986 30.837 8.76125 31.2976 8.45918 31.8263C7.99853 32.2945 7.30379 32.8231 6.95641 33.3668Z" fill="#5C5C5C"/>
<path d="M15.7087 40.0651C15.8522 39.9291 16.0183 39.7026 16.2222 39.7177C16.4941 39.7328 16.7584 39.8914 16.9849 40.0273C17.9364 40.571 18.8124 41.5074 19.5223 42.3381C19.7941 42.6553 20.1415 43.0328 20.3076 43.418L15.0215 43.4859L13.4432 43.4708L13.4583 43.3878C13.5339 43.0026 13.8057 42.7157 14.0398 42.4136C14.5231 41.885 15.6634 40.7523 15.7087 40.0651Z" fill="#F49A80"/>
<path d="M0.00138855 33.2762L0.107111 32.9288C0.590413 33.9029 0.854719 34.7261 1.61743 35.5718C2.12339 36.1307 2.74262 36.5838 3.34675 37.0217C4.88727 38.1469 6.55618 39.0305 8.24018 39.914C9.90154 40.7824 11.6762 41.7415 13.4659 42.3154C13.6547 42.3758 13.851 42.3909 14.0474 42.3985C13.8133 42.7006 13.5414 42.9875 13.4659 43.3726L13.4508 43.4557L13.5263 44.0296L12.9373 44.1052C12.7107 44.3317 12.6503 44.3695 12.5824 44.6791C12.6654 44.9207 12.7032 45.034 12.9448 45.1624C13.3904 45.3965 27.2325 45.2379 28.992 45.2303L28.8712 46.1365C25.9638 48.3038 18.8351 47.9489 15.3689 47.4505L13.2242 47.0276C13.194 47.5034 13.262 48.334 12.9675 48.6965L10.0601 48.032L10.0375 46.5368L10.0148 45.8798C9.77316 45.759 9.5013 45.5777 9.30496 45.3814C9.04821 45.1322 9.08596 44.7772 9.08596 44.445C9.29741 43.7351 9.39558 42.9498 9.50885 42.2173C7.03193 41.0392 4.47194 39.8083 2.38769 38.0035C0.80941 36.6668 0.152421 35.3453 0.00138855 33.2762Z" fill="#787878"/>
<path d="M10.0073 45.8949C11.072 46.3857 12.0915 46.7331 13.2167 47.0427C13.1865 47.5185 13.2545 48.3492 12.9599 48.7116L10.0526 48.0471L10.0299 46.5519L10.0073 45.8949Z" fill="#191146"/>
<path d="M36.1736 31.8716C36.9363 31.8565 38.4541 31.6299 39.0205 32.1736C39.315 32.4606 39.4358 32.7551 39.4207 33.1629C39.3905 34.0766 39.0356 35.1263 38.8544 36.0325C38.3409 38.6227 37.8651 41.3111 37.1553 43.856C37.5177 43.856 37.7292 43.856 38.0313 44.0976C38.0161 44.5356 38.0388 44.6564 37.7896 45.034C37.3894 45.3663 36.672 45.253 36.1811 45.2455H28.9995C27.24 45.253 13.3979 45.4191 12.9524 45.1775C12.7107 45.0491 12.673 44.9283 12.5899 44.6942C12.6579 44.3846 12.7107 44.3468 12.9448 44.1203L13.5339 44.0447L13.4583 43.4708L15.0366 43.4859L20.3227 43.418H21.4026L21.7575 41.1072C22.0068 39.3552 22.3239 37.6183 22.6109 35.8664C22.7619 34.9677 22.8148 33.9936 23.0942 33.1327C23.1999 32.8004 23.3358 32.5965 23.5775 32.3549C23.8116 32.1283 24.0759 31.9546 24.3931 31.8791C24.8764 31.7583 25.5031 31.8414 26.0091 31.8489L29.2714 31.8716L31.2348 31.8791L33.017 31.8716H36.1736Z" fill="#6D708E"/>
<path d="M13.4508 43.4708L15.0291 43.4859L15.1423 43.4935L20.6022 43.5388C19.8923 43.6974 19.0012 43.5992 18.2763 43.5992C18.012 43.5992 17.6948 43.5388 17.4833 43.6974L17.5136 43.8711H19.5827C19.8319 43.8711 20.2019 43.8106 20.3983 43.9617L13.5263 44.0447L13.4508 43.4708Z" fill="#5165CB"/>
<path d="M30.0794 37.1577C30.2909 37.1728 30.5325 37.1803 30.7364 37.2483C31.0158 37.3389 31.2575 37.6334 31.3783 37.8902C31.5142 38.162 31.5218 38.5774 31.416 38.8643C31.2499 39.3023 30.895 39.4836 30.5023 39.6724C30.306 39.6648 30.1096 39.6573 29.9208 39.6044C29.5961 39.5062 29.3318 39.2872 29.1732 38.9852C29.0297 38.7058 29.0297 38.2829 29.143 37.9959C29.3394 37.5353 29.6716 37.3465 30.0794 37.1577Z" fill="#CCD8ED"/>
<path d="M37.1553 43.8635C37.5177 43.8635 37.7292 43.8635 38.0312 44.1051C38.0161 44.5431 38.0388 44.664 37.7896 45.0415C37.3894 45.3738 36.672 45.2605 36.1811 45.253H28.9995C27.24 45.2605 13.3979 45.4267 12.9524 45.185C12.7107 45.0566 12.673 44.9358 12.5899 44.7017C12.6579 44.3921 12.7107 44.3543 12.9448 44.1278L13.5339 44.0523L20.4058 43.9692C23.7814 44.0598 27.1947 43.9617 30.5778 43.9692H35.0408C35.6676 43.9617 36.5511 44.0674 37.1553 43.8635Z" fill="#191146"/>
<path d="M37.1553 43.8635C37.5177 43.8635 37.7292 43.8635 38.0313 44.1051C37.8047 44.0976 37.5328 44.0674 37.3441 44.2109L37.1779 44.3468C37.0269 44.4601 36.8683 44.528 36.6795 44.5431C35.7054 44.6036 34.6859 44.528 33.7042 44.5054C31.8389 44.4676 29.9737 44.4374 28.1085 44.4374C25.2539 44.4299 22.407 44.4299 19.5525 44.4148C17.355 44.4072 15.1121 44.4601 12.9297 44.1278L13.5188 44.0523L20.3907 43.9692C23.7663 44.0598 27.1796 43.9617 30.5627 43.9692H35.0257C35.6676 43.9617 36.5511 44.0674 37.1553 43.8635Z" fill="#242761"/>
<path d="M16.9094 12.5772L16.9774 12.4866C17.2115 12.9095 17.355 13.3777 17.6042 13.7855C18.1554 14.6917 19.1145 15.4091 20.134 15.696C20.6022 15.832 21.1534 15.832 21.6367 15.7942V16.1944L21.7802 17.9086L22.2862 18.1503C24.9217 19.0716 27.0059 20.1666 28.6748 22.4849C28.4785 22.4698 28.2519 22.4849 28.1085 22.3565L28.0556 22.4925L28.3652 23.0135C29.3771 25.9738 29.3847 28.7905 29.2563 31.8791C28.1689 31.8716 27.0814 31.864 25.994 31.8565C25.488 31.8489 24.8688 31.7658 24.378 31.8867C24.0608 31.9697 23.7965 32.1434 23.5624 32.3624C23.3132 32.6041 23.1848 32.808 23.0791 33.1402C22.7997 34.0011 22.7393 34.9753 22.5958 35.8739C22.3088 37.6183 21.9917 39.3628 21.7424 41.1147C19.8545 40.0651 18.2385 38.9021 16.7131 37.3691C14.795 35.4435 13.2771 33.2535 12.1142 30.7992C11.7517 30.029 11.3741 29.3342 11.3741 28.4733C11.7441 28.1033 12.016 27.5294 12.2652 27.0687C12.8995 25.8982 13.413 24.8637 13.7226 23.5497L13.8661 23.1193C13.9265 22.8398 13.8359 22.4547 13.8057 22.1753C13.7151 21.473 13.7 20.7783 13.2998 20.159C12.7032 19.2377 11.8347 19.0565 10.8379 18.845C11.6309 18.6789 12.4087 18.4901 13.2091 18.3466C13.7906 18.2409 14.4929 18.1881 15.0442 17.9842C15.6181 17.6292 16.1241 17.6292 16.781 17.6066C17.3021 17.0402 17.1586 15.1599 17.1284 14.4123L17.0454 14.3216C17.0605 14.1102 16.9623 13.8685 16.9396 13.6495C16.9019 13.2871 16.917 12.9246 16.9094 12.5772Z" fill="#858585"/>
<path d="M15.0366 17.9766C15.6106 17.6217 16.1165 17.6217 16.7735 17.599C16.6829 18.3919 16.8641 19.132 17.3776 19.7663C17.8911 20.4007 18.5179 20.6423 19.3108 20.7178C19.847 20.7707 20.4662 20.6423 20.8891 20.2874C21.599 19.6908 21.6669 18.762 21.7802 17.9086L22.2862 18.1503C22.2937 18.7695 22.3239 19.3737 22.1653 19.9853C21.9841 20.7103 21.6292 21.4428 20.942 21.8128C20.3983 22.1073 19.6582 22.0394 19.0843 21.8506C17.1586 21.2238 15.9202 19.721 15.0366 17.9766Z" fill="#4B4B4B"/>
<path d="M16.9094 12.5772L16.9774 12.4866C17.2115 12.9095 17.355 13.3777 17.6042 13.7855C18.1554 14.6917 19.1145 15.4091 20.134 15.696C20.6022 15.832 21.1534 15.832 21.6367 15.7942V16.1944L21.7802 17.9086C21.6669 18.762 21.599 19.6908 20.8891 20.2874C20.4662 20.6423 19.847 20.7707 19.3108 20.7178C18.5179 20.6423 17.8911 20.4007 17.3776 19.7663C16.8641 19.132 16.6829 18.3919 16.7735 17.599C17.2946 17.0327 17.1511 15.1523 17.1209 14.4047L17.0378 14.3141C17.0529 14.1026 16.9547 13.861 16.9321 13.642C16.9019 13.2871 16.917 12.9246 16.9094 12.5772Z" fill="#F49A80"/>
<path d="M16.9094 12.5772L16.9774 12.4866C17.2115 12.9095 17.355 13.3777 17.6042 13.7855C18.1554 14.6917 19.1145 15.4091 20.134 15.696C20.6022 15.832 21.1534 15.832 21.6367 15.7942V16.1944L21.6216 16.8212C21.5235 16.9798 21.3951 17.0855 21.2214 17.1686C20.8438 17.3423 20.2472 17.2441 19.8697 17.1006C18.6463 16.6475 17.6646 15.5752 17.1209 14.4047L17.0378 14.3141C17.0529 14.1026 16.9547 13.861 16.9321 13.642C16.9019 13.2871 16.917 12.9246 16.9094 12.5772Z" fill="#DB524F"/>
<path d="M28.8712 46.1592C29.1883 50.1766 29.3394 54.3149 29.2412 58.3475C29.1959 60.3109 29.0146 62.2894 28.9014 64.2528C28.6748 68.2476 28.4483 72.2349 28.2217 76.2297C28.0933 78.5556 27.9725 80.8739 27.8592 83.1998C27.8064 84.2872 27.8592 85.4728 27.678 86.5452C27.4213 86.7188 27.0588 86.6735 26.7643 86.6811H26.6736L22.9281 86.7264L22.8148 86.7415L22.9356 87.9498L22.996 88.6521L22.9885 89.6187C22.7317 89.9962 22.5656 90.3587 22.3994 90.7816L16.4337 90.7892C15.3462 90.5853 14.3419 89.6413 13.7227 88.7578L13.5263 88.6143L13.5414 87.6855L10.0148 87.6175L10.0299 86.5527L9.08597 86.4847L9.62213 72.3784L9.75806 68.9046C9.81847 68.2023 9.81847 67.4925 9.82603 66.7902C9.83358 66.4881 9.87889 66.0954 9.79582 65.8009L9.75806 65.6876C9.88644 65.4309 9.82603 64.9702 9.82603 64.6908C9.83358 63.8677 9.84868 63.0446 9.85623 62.2214L9.9393 58.3173C10.0375 57.8415 9.98461 57.2525 9.99216 56.7616L10.0677 48.0622L12.975 48.7267C13.2696 48.3643 13.194 47.5336 13.2318 47.0578L15.3765 47.4807C18.8275 47.9716 25.9638 48.3265 28.8712 46.1592Z" fill="#3C4081"/>
<path d="M10.0601 48.0546L12.9675 48.7192L13.1487 48.7796L10.3622 86.4697C9.93174 86.447 9.5013 86.4017 9.07086 86.4848L9.60703 72.3784L9.74295 68.9046C9.80337 68.2023 9.80337 67.4925 9.81092 66.7902C9.81847 66.4881 9.86378 66.0954 9.78071 65.8009L9.74295 65.6876C9.87133 65.4309 9.81092 64.9702 9.81092 64.6908C9.81847 63.8677 9.83357 63.0446 9.84113 62.2215L9.92419 58.3173C10.0224 57.8415 9.9695 57.2525 9.97705 56.7617L10.0601 48.0546Z" fill="#242761"/>
<path d="M13.8284 86.6056L14.3796 86.6282C14.7119 86.5829 14.795 85.7522 14.8705 85.4502C15.9655 80.6851 16.9774 75.8898 17.9969 71.1097C18.4802 68.8291 18.9484 66.5334 19.4619 64.2604C19.5978 63.6487 19.6809 62.6368 20.0282 62.1308C20.5946 68.4742 21.1383 74.8175 21.6896 81.1609C21.8029 82.4824 21.9086 83.8039 22.0143 85.1255C22.0521 85.571 22.0143 86.3186 22.2182 86.7037L22.8072 86.7491L22.928 87.9573L22.9885 88.6596L22.9809 89.6262C22.7242 90.0038 22.558 90.3663 22.3919 90.7892L16.4261 90.7967C15.3387 90.5928 14.3343 89.6489 13.7151 88.7653L13.5188 88.6219L13.5339 87.693L13.8284 86.6056Z" fill="#E5E5E5"/>
<path d="M28.8712 46.1592C29.1883 50.1766 29.3394 54.3149 29.2412 58.3475C29.1959 60.3109 29.0146 62.2894 28.9014 64.2528C28.6748 68.2476 28.4483 72.2349 28.2217 76.2297C28.0933 78.5556 27.9725 80.8739 27.8592 83.1998C27.8064 84.2872 27.8592 85.4728 27.678 86.5452C27.4213 86.7188 27.0588 86.6735 26.7643 86.6811H26.6736L22.9281 86.7264L22.8148 86.7415L22.2257 86.6962C22.0219 86.3111 22.0596 85.5634 22.0219 85.1179C21.9161 83.7964 21.8104 82.4748 21.6971 81.1533C21.1459 74.81 20.6097 68.4666 20.0358 62.1233L20.0509 62.0251C20.0207 61.1944 20.2925 60.4921 20.4662 59.6917C20.7834 58.2795 21.093 56.8598 21.4177 55.4477C21.8557 53.5673 22.2182 51.6719 22.6864 49.7991C22.3239 49.5499 17.574 49.2931 16.7508 49.21C15.5577 49.0968 14.357 48.9382 13.1638 48.7796L12.9826 48.7192C13.2771 48.3567 13.2016 47.526 13.2393 47.0503L15.384 47.4732C18.8275 47.9716 25.9638 48.3265 28.8712 46.1592Z" fill="url(#paint0_linear_1_957)"/>
<path d="M22.6637 49.7991C23.5775 49.8897 24.2269 49.4366 24.9519 48.9533L23.4793 86.598C23.2905 86.6811 23.1168 86.7037 22.9129 86.7188L22.7997 86.7339L22.2106 86.6886C22.0068 86.3035 22.0445 85.5559 22.0068 85.1104C21.901 83.7888 21.7953 82.4673 21.682 81.1458C21.1308 74.8024 20.5946 68.4591 20.0207 62.1157L20.0358 62.0175C20.0056 61.1869 20.2774 60.4846 20.4511 59.6841C20.7683 58.272 21.0779 56.8523 21.4026 55.4401C21.8331 53.5673 22.2031 51.6719 22.6637 49.7991Z" fill="#191146"/>
<path d="M28.3577 23.006L28.048 22.4849L28.1009 22.349C28.2444 22.4849 28.4709 22.4623 28.6673 22.4774C30.5929 25.3394 31.7936 28.6395 32.9868 31.8565L31.2046 31.864L29.2412 31.8565C29.3847 28.7754 29.3696 25.9662 28.3577 23.006Z" fill="#858585"/>
<path d="M28.3577 23.006L28.4936 23.0513C29.6867 25.8756 30.306 28.9491 31.2046 31.8716L29.2412 31.864C29.3847 28.7754 29.3696 25.9662 28.3577 23.006Z" fill="#535353"/>
<path d="M50.6572 7.45723C50.929 6.69452 51.216 6.20366 51.9712 5.84118C52.7792 5.45605 55.0447 5.47116 55.8829 5.77322C56.7287 6.07528 57.1289 6.64921 57.5367 7.39681C58.8053 7.38926 60.074 7.38926 61.3427 7.38926C61.977 7.38926 62.7548 7.31375 63.3665 7.46478C63.5855 7.51764 63.7516 7.63091 63.9102 7.7895C64.4237 8.28035 64.3558 9.10348 64.4162 9.76047L64.4615 10.7648L64.5144 11.8145L44.1854 11.8221L44.1779 10.6969L44.1628 9.6774C44.1779 9.02041 44.2383 8.42383 44.7443 7.94053C44.9406 7.75929 45.1596 7.60826 45.3862 7.47233L50.6572 7.45723Z" fill="#A6DCF7"/>
<path d="M53.8419 6.73227C54.0458 6.73227 54.2648 6.72472 54.4611 6.77758C54.8765 6.89086 55.2012 7.10985 55.4051 7.50254C55.5863 7.84236 55.6014 8.23504 55.4881 8.59752C55.322 9.12613 54.9444 9.31492 54.4762 9.54902C54.2119 9.57167 53.9023 9.56412 53.6455 9.48106C53.351 9.38288 53.0263 9.10348 52.8828 8.82407C52.6865 8.43893 52.6865 7.94053 52.8526 7.5554C53.049 7.0872 53.4114 6.92106 53.8419 6.73227Z" fill="#5165CB"/>
<path d="M16.0863 2.66951C16.479 2.38255 16.8943 2.11069 17.3776 1.98987C18.7218 1.65005 20.066 2.32214 21.3875 2.44296C21.818 2.48072 22.339 2.45052 22.6637 2.14845C22.9583 1.87659 23.064 1.57453 23.0866 1.1894C23.0942 1.05347 23.147 1.03837 23.2301 0.932644C23.8267 1.18185 24.2571 1.77087 24.6347 2.27683C25.1558 3.00933 25.4729 3.84756 25.5711 4.73865C25.5938 5.4334 25.6089 6.14325 25.0878 6.68696C24.8084 6.98148 24.3931 7.16272 24.0155 7.3062V8.31811L24.0079 8.9751C24.023 10.6213 24.3855 13.8081 23.147 15.0994C22.777 15.4846 22.1804 15.7715 21.6443 15.7942C21.161 15.832 20.6097 15.832 20.1415 15.696C19.122 15.4091 18.163 14.6917 17.6117 13.7855C17.3625 13.3777 17.219 12.9095 16.9849 12.4866L16.917 12.5772C16.917 12.9246 16.9094 13.2871 16.9396 13.6344C16.9623 13.8534 17.0605 14.0951 17.0454 14.3065C16.4714 14.0951 15.9655 13.7251 15.452 13.4003L14.6062 12.5244C13.4432 11.1802 12.5068 8.94489 12.673 7.14006C12.7258 6.55859 13.0279 5.96956 13.481 5.59953C13.8359 5.31257 14.4325 5.09358 14.8856 5.15399L15.0593 5.17664C15.3538 5.16909 15.2103 4.47434 15.2556 4.21759C15.3689 3.60591 15.7012 3.15281 16.0863 2.66951Z" fill="#242761"/>
<path d="M15.7918 5.01806C15.9504 4.19494 16.1694 3.14526 16.8868 2.6091C18.6916 1.26491 21.0553 4.34597 22.9054 4.50455C23.2528 4.53476 23.6983 4.39128 23.9626 4.15718C24.5743 3.62101 24.5818 3.03199 24.6272 2.27683C25.1482 3.00933 25.4654 3.84756 25.5636 4.73865C25.1709 5.17664 25.1482 5.75812 24.6649 6.15835C24.2043 6.54348 23.585 6.62655 22.996 6.64165C21.0175 6.67941 19.4317 5.87139 17.5891 5.33523C16.9925 5.16154 16.4035 5.07092 15.7918 5.01806Z" fill="#3C4081"/>
<path d="M16.9094 12.5772C16.63 12.7509 16.3808 12.8793 16.0334 12.7887C15.6634 12.6905 15.2254 12.2827 15.0668 11.9278C14.9309 11.6106 14.9158 11.0518 15.0517 10.7346C15.1424 10.5156 15.3387 10.3193 15.5652 10.2438C16.7357 9.86619 16.7055 11.1424 17.4078 11.4369C17.6646 11.1047 17.5589 10.6667 17.5211 10.2664C17.438 9.40554 17.1209 7.72909 17.6948 6.99658C17.9818 6.6341 20.7909 7.3062 21.3045 7.35151C22.2333 7.42702 23.0715 7.43457 23.9928 7.3062V8.31811L23.9853 8.9751C24.0004 10.6213 24.3629 13.8081 23.1244 15.0994C22.7544 15.4846 22.1578 15.7715 21.6216 15.7942C21.1383 15.832 20.5871 15.832 20.1189 15.696C19.0994 15.4091 18.1403 14.6917 17.5891 13.7855C17.3399 13.3777 17.1964 12.9095 16.9623 12.4866L16.9094 12.5772Z" fill="#F49A80"/>
<path d="M23.1697 9.79823C23.4718 9.86619 23.5171 9.83598 23.6832 10.0852C23.6908 10.425 23.6304 10.6289 23.4944 10.931L23.2754 10.9385L23.1244 10.7573C23.0262 10.3721 23.0036 10.1758 23.1697 9.79823Z" fill="#191146"/>
<path d="M19.9754 9.81332C20.1717 9.91905 20.3001 10.0323 20.4436 10.1985C20.4964 10.5836 20.4209 10.7044 20.2699 11.0518C20.1113 11.0216 20.0056 10.9763 19.9301 10.8177C19.7262 10.425 19.8621 10.206 19.9754 9.81332Z" fill="#191146"/>
<path d="M24.0004 8.9751C23.6001 8.83917 23.0338 9.01286 22.7544 8.82407L22.8072 8.51445L22.9658 8.39362C23.3283 8.17463 23.6304 8.21994 24.0155 8.31811L24.0004 8.9751Z" fill="#191146"/>
<path d="M19.477 8.21239L19.5449 8.19728C19.915 8.13687 20.217 8.09911 20.5266 8.32566C20.6248 8.56731 20.6475 8.56731 20.5493 8.82407L19.7111 8.94489C19.4921 9.02041 19.2806 9.15634 19.0767 9.26961L18.9484 9.20165L18.9182 8.83162C19.0239 8.54466 19.2353 8.40873 19.477 8.21239Z" fill="#191146"/>
<path d="M22.9129 13.2267L23.0564 13.272L23.0187 13.4381C22.9356 13.7402 22.7619 14.0045 22.4749 14.148C22.1125 14.3367 21.8255 14.2386 21.463 14.1328C21.3649 14.0498 21.2742 13.9667 21.1987 13.861C21.0477 13.642 20.9571 13.5589 21.0099 13.2871L22.9129 13.2267Z" fill="#FEFEFE"/>
<path d="M42.0563 55.9612C42.3357 55.8932 42.4338 55.8479 42.6981 56.0065C43.1966 56.3086 43.4231 56.7994 44.0423 56.9429C43.8309 57.2298 43.7101 57.4866 43.5892 57.8189C43.1286 57.4715 42.464 57.0562 42.1318 56.6031C41.9656 56.3765 42.0336 56.2255 42.0563 55.9612Z" fill="#8B96ED"/>
<path d="M60.8522 54.179H65.4134C65.7758 54.179 66.682 54.0733 66.9463 54.2847L66.9614 55.0097C66.1006 54.9946 61.192 55.1531 60.8673 54.8813L60.8522 54.179Z" fill="#8B96ED"/>
<path d="M60.7918 36.1307C62.3248 36.1307 63.8653 36.1231 65.3983 36.1231C65.7834 36.1231 66.6594 36.0098 66.9614 36.2213L66.969 36.9538C66.0703 36.9538 61.2298 37.1124 60.8069 36.8556L60.7918 36.1307Z" fill="#8B96ED"/>
<path d="M60.7767 45.253H65.5946C65.8514 45.253 66.599 45.1624 66.8104 45.253C66.8708 45.2757 66.9086 45.3436 66.9615 45.3889L66.9463 46.1139C66.0099 46.1214 61.2675 46.3102 60.7918 46.0384L60.7767 45.253Z" fill="#8B96ED"/>
<path d="M60.4293 18.8224C61.2902 18.8375 66.6594 18.7016 66.9992 18.9206L67.0067 19.6908C66.093 19.6833 60.8446 19.8419 60.4444 19.6002L60.4293 18.8224Z" fill="#8B96ED"/>
<path d="M51.9186 54.1639C53.9198 54.1941 55.921 54.1714 57.9222 54.179C58.481 54.179 59.5533 54.0355 59.9989 54.2847L60.014 55.0021C57.9826 55.0021 55.9436 55.0021 53.9123 54.9946C53.3988 54.9946 52.5832 55.1154 52.1225 54.9946C52.0546 54.9795 52.0017 54.9191 51.9488 54.8813L51.9186 54.1639Z" fill="#8B96ED"/>
<path d="M51.9111 36.1231C53.9802 36.1231 56.0494 36.1307 58.1185 36.1307C58.5867 36.1307 59.6741 36.0023 60.0064 36.2439L60.0215 36.9613C59.138 36.9689 52.2585 37.1275 51.9338 36.8707L51.9111 36.1231Z" fill="#8B96ED"/>
<path d="M51.9262 18.8224C52.7871 18.8224 59.3041 18.7091 59.6288 18.913L59.6439 19.7059L52.0319 19.6908C51.8431 19.4945 51.9262 19.1018 51.9262 18.8224Z" fill="#8B96ED"/>
<path d="M51.9186 45.253C52.9079 45.253 59.5835 45.1171 59.9611 45.3512L59.9762 46.129C58.8888 46.129 52.4624 46.2876 51.9413 46.0384L51.9186 45.253Z" fill="#8B96ED"/>
<path d="M44.0423 56.9353C45.2959 55.9914 46.1719 54.4886 47.3499 53.4389C47.5765 53.6579 47.9616 53.9449 47.9692 54.2847C47.9692 54.3753 47.9692 54.5415 47.9314 54.6245C47.7653 55.0248 47.2593 55.4779 46.9648 55.8026C46.3229 56.5275 45.681 57.3658 44.9636 58.0152C44.6842 58.272 44.4879 58.2342 44.1405 58.2191L43.5892 57.8038C43.7176 57.4866 43.8384 57.2223 44.0423 56.9353Z" fill="#5165CB"/>
<path d="M51.9413 55.8026C54.4333 55.795 56.9329 55.795 59.4249 55.7875H61.2524C61.562 55.7875 61.9094 55.7422 62.2039 55.8554C62.2643 56.1273 62.2341 56.369 62.2039 56.6408C59.5835 56.6106 56.9556 56.6559 54.3352 56.6559C53.8141 56.6559 52.3566 56.8069 51.9564 56.5653L51.9413 55.8026Z" fill="#6D89EB"/>
<path d="M51.9338 37.9128C54.4938 37.9884 57.0688 37.9279 59.6288 37.9355C60.2707 37.9355 61.6602 37.7769 62.2039 38.0186L62.219 38.7964C61.1241 38.7964 52.2962 38.9021 52.0697 38.7964C52.0093 38.7662 51.9715 38.7058 51.9262 38.668L51.9338 37.9128Z" fill="#6D89EB"/>
<path d="M51.9262 29.2209C54.6599 29.2587 57.4011 29.2209 60.1424 29.2209H61.5923C61.6904 29.2209 61.9849 29.1832 62.0756 29.2209C62.1284 29.2436 62.1662 29.2889 62.2115 29.3267V30.0894H54.6297C54.0331 30.0894 52.4171 30.2555 51.9489 29.9912L51.9262 29.2209Z" fill="#6D89EB"/>
<path d="M51.9338 47.0427C54.6146 47.0427 57.3029 47.0352 59.9838 47.0352H61.5167C61.6225 47.0352 61.9321 46.9974 62.0227 47.0352C62.0831 47.0578 62.1284 47.1107 62.1813 47.1484L62.1737 47.9263C61.0787 47.9263 52.3038 48.032 52.0697 47.9187C52.0093 47.8885 51.9791 47.8356 51.9262 47.7903L51.9338 47.0427Z" fill="#6D89EB"/>
<path d="M51.9186 20.5593C54.6674 20.5593 57.4162 20.5668 60.165 20.5668H61.6376C61.7131 20.5668 62.0151 20.5366 62.068 20.5668C62.1209 20.597 62.1586 20.6499 62.2039 20.6952L62.1964 21.4579L62.136 21.4655C61.2449 21.5259 60.316 21.473 59.4249 21.473H52.5605C52.4624 21.473 52.1376 21.5108 52.0621 21.473C52.0017 21.4504 51.9715 21.3899 51.9186 21.3522V20.5593Z" fill="#6D89EB"/>
<path d="M44.2991 29.9232L47.4481 26.6156C47.652 26.8271 48.0824 27.1594 48.0673 27.4765C48.0447 28.1713 46.8138 29.1228 46.3531 29.6212C45.9604 30.0516 45.5829 30.5802 45.1449 30.9578C44.9561 31.124 44.7975 31.207 44.5558 31.2523C44.4728 31.2372 44.2991 31.2221 44.2311 31.1844C43.7705 30.9276 43.3098 30.3461 42.902 29.9837C42.5924 29.7118 42.0714 29.3795 41.8524 29.0397C41.7769 28.9189 41.7089 28.8358 41.7466 28.6848C41.792 28.5111 41.9656 28.3072 42.0789 28.1637C42.9096 28.5413 43.627 29.3191 44.2991 29.9232Z" fill="#42D39D"/>
<path d="M44.1481 47.1938L47.3801 43.6521C47.6369 43.9013 47.9239 44.1354 48.0673 44.4676C48.0673 44.5809 48.09 44.7772 48.0598 44.883C47.9767 45.1926 47.5236 45.5853 47.3046 45.8269C46.5721 46.6198 45.8472 47.526 45.0543 48.251C44.7975 48.4851 44.6616 48.4775 44.3368 48.4851C43.4005 47.964 42.532 47.0201 41.7089 46.3178C41.6711 45.9855 41.7844 45.8194 41.9883 45.5551L42.0185 45.5173C42.7435 45.7136 43.5817 46.6803 44.1481 47.1938Z" fill="#DB524F"/>
<path d="M47.4632 35.1339C47.7955 35.4737 48.0749 35.6247 48.09 36.1231C48.0975 36.2817 48.0447 36.4327 47.9616 36.5687C47.5538 37.203 46.8289 37.7769 46.3003 38.3357C45.8774 38.7813 45.4847 39.3325 45.024 39.7328C44.7673 39.9593 44.5936 39.9065 44.2764 39.8989C43.3853 39.3325 42.5698 38.449 41.7769 37.7392C41.7315 37.5428 41.7013 37.354 41.6938 37.1501L41.9883 37.0897C42.6302 37.0066 43.6874 38.1469 44.1934 38.5547L47.4632 35.1339Z" fill="#42D39D"/>
<path d="M47.6671 17.6519C47.939 17.9011 48.3316 18.1276 48.3467 18.5203C48.3467 18.6336 48.3392 18.845 48.309 18.9432C48.1957 19.2679 47.7351 19.6757 47.4934 19.9325C46.7685 20.7178 46.0284 21.6467 45.2204 22.3414C44.9938 22.5302 44.8655 22.5302 44.586 22.5227C44.1027 22.2584 43.7101 21.8053 43.2947 21.4428C42.8567 21.0501 41.9581 20.4837 41.7995 19.94C41.8448 19.638 41.9883 19.4492 42.1997 19.2377C43.0002 19.6455 43.7403 20.4988 44.4048 21.1181L47.6671 17.6519Z" fill="#DB524F"/>
<path d="M51.9186 52.5252C55.921 52.5252 59.9309 52.5176 63.9332 52.5176H66.0628C66.244 52.5176 66.6518 52.4648 66.8104 52.5176C66.8633 52.5327 66.901 52.5932 66.9463 52.6309L66.969 53.3634H52.0697C51.8431 53.1444 51.9262 52.8272 51.9186 52.5252Z" fill="#8B96ED"/>
<path d="M51.9111 34.3787C55.8228 34.3787 59.7346 34.3711 63.6463 34.3711H66.025C66.3347 34.3711 66.6745 34.3107 66.9388 34.4693L66.9614 35.2169C65.3227 35.2169 52.2811 35.3755 51.9338 35.1565L51.9111 34.3787Z" fill="#8B96ED"/>
<path d="M51.9111 27.4539C55.6718 27.469 59.44 27.4539 63.2007 27.4463C64.1296 27.4463 65.0509 27.4463 65.9797 27.4388C66.2894 27.4388 66.7122 27.3633 66.9614 27.5445L66.969 28.2997C65.3001 28.2846 52.2736 28.4658 51.9262 28.2392L51.9111 27.4539Z" fill="#8B96ED"/>
<path d="M65.6701 43.4557C66.0024 43.4557 66.7424 43.3575 66.9841 43.5463L66.969 44.2411C66.7198 44.4072 66.3649 44.3468 66.0628 44.3468H63.684C60.1952 44.3468 56.7139 44.3468 53.2251 44.3544C52.855 44.3619 52.2811 44.445 51.9489 44.2939V43.5992C51.9866 43.569 52.0168 43.5161 52.0697 43.501C52.2585 43.4406 52.6814 43.501 52.8852 43.501H55.2413C58.7226 43.4935 62.1964 43.4859 65.6701 43.4557Z" fill="#8B96ED"/>
<path d="M51.9111 17.0402C55.7549 17.0553 59.5986 17.0629 63.4424 17.0553C64.3108 17.0553 65.1868 17.0553 66.0552 17.0478C66.2591 17.0478 66.6745 16.9949 66.8633 17.0478C66.9237 17.0629 66.9614 17.1233 67.0143 17.161L67.037 17.9464C65.3983 17.9388 52.266 18.0521 51.9413 17.8256L51.9111 17.0402Z" fill="#8B96ED"/>
<path d="M51.9186 25.7094L66.8633 25.7321C67.0521 25.936 66.969 26.3287 66.969 26.6081C65.3378 26.6156 52.2887 26.744 51.9337 26.5024L51.9186 25.7094Z" fill="#8B96ED"/>
<path d="M44.1647 11.8145L64.4936 11.8069L64.5163 12.6678L64.3803 12.8113L44.2024 12.8189C44.142 12.5092 44.1722 12.1392 44.1647 11.8145Z" fill="#5165CB"/>
</g>
<defs>
<linearGradient id="paint0_linear_1_957" x1="8.14654" y1="55.2332" x2="36.0052" y2="73.1547" gradientUnits="userSpaceOnUse">
<stop stop-color="#261F5A"/>
<stop offset="1" stop-color="#43407F"/>
</linearGradient>
<clipPath id="clip0_1_957">
<rect width="136.857" height="92.7073" fill="white" transform="translate(0.00138855 1.90735e-05)"/>
</clipPath>
</defs>
</svg>
