<?xml version="1.0" encoding="utf-8"?>
<!-- Generator: Adobe Illustrator 27.6.1, SVG Export Plug-In . SVG Version: 6.00 Build 0)  -->
<!-- <svg version="1.1" id="Layer_1" xmlns="http://www.w3.org/2000/svg" xmlns:xlink="http://www.w3.org/1999/xlink" x="0px" y="0px"
	 viewBox="0 0 1442.1 714.3" style="enable-background:new 0 0 1442.1 714.3;" xml:space="preserve"> -->
<svg version="1.1" id="Layer_1" xmlns="http://www.w3.org/2000/svg" xmlns:xlink="http://www.w3.org/1999/xlink" x="0px" y="0px"
	 viewBox="0 0 2200.1 1000.3" style="enable-background:new 0 0 2200.1 1000.3;" xml:space="preserve">
<style type="text/css">
	.st0{stroke:#000000;stroke-width:0.5;stroke-miterlimit:10;}
	.st1{fill:#EBF5ED;}
	.st2{font-family:'Poppins-SemiBold';}
	.st3{font-size:5.6076px;}
	.st4{font-size:5.0591px;}
	.st5{font-size:3.9161px;}
	.st6{font-size:3.6417px;}
	.st7{font-size:4.8766px;}
	.st8{font-size:4.9827px;}
	.st9{font-size:4.5103px;}
	.st10{font-size:4.5657px;}
	.st11{font-size:5.2281px;}
	.st12{font-size:5.338px;}
	.st13{font-size:5.0652px;}
	.st14{font-size:4.604px;}
	.st15{font-size:5.033px;}
	.st16{font-size:4.9173px;}
	.st17{font-size:5.073px;}
	.st18{font-size:4.7784px;}
	.st19{font-size:4.9238px;}
	.st20{font-size:5.0762px;}
	.st21{font-size:5.086px;}
	.st22{font-size:4.9207px;}
	.st23{font-size:4.9825px;}
	.st24{font-size:4.9784px;}
	.st25{font-size:5.0186px;}
	.st26{font-size:4.9836px;}
	.st27{font-size:5.0132px;}
	.st28{font-size:4.8938px;}
	.st29{font-size:4.8077px;}
	.st30{font-size:4.6416px;}
	.st31{font-size:4.2769px;}
	.st32{font-size:4.4674px;}
	.st33{font-size:3.5729px;}
	.st34{font-size:2.5124px;}
	.st35{font-size:4.8854px;}
	.st36{font-size:4.281px;}
	.st37{font-size:4.7667px;}
	.st38{font-size:5.298px;}
	.st39{font-size:5.1059px;}
	.st40{font-size:4.6765px;}
	.st41{font-size:4.6196px;}
	.st42{font-size:4.5635px;}
	.st43{font-size:4.6674px;}
	.st44{font-size:4.3217px;}
	.st45{font-size:4.5562px;}
	.st46{font-size:3.6191px;}
	.st47{font-size:4.3202px;}
	.st48{font-size:5.5504px;}
	.st49{font-size:4.2444px;}
	.st50{fill:#EBF5ED;}
	svg a {
  pointer-events: all;
}
</style>
<a xlink:href="Plot-269"  transform="matrix(0.2381 0 0 0.2381 6.7402 0)">
	
		<image style="overflow:visible;" width="6000" height="3000" xlink:href="/assets/plotmap/grupesrinivasapuram/bg.jpg" >
	</image>
</a>
<a xlink:href="Plot-206" >
	<rect x="236.9" y="110.7" class="st0" width="24.6" height="40.3"/>
</a>
<a xlink:href="Plot-205" >
	<polygon class="st0" points="212.5,190.3 166.8,190.8 171.9,170.3 212.8,170 	"/>
</a>
<a xlink:href="Plot-181" >
	<polygon class="st0" points="181.2,220.2 157.7,220.2 166.8,190.8 181,190.6 	"/>
</a>
<a xlink:href="Plot-180" >
	<polygon class="st0" points="162,270.7 140.8,270.4 152.1,238.9 161.7,238.9 	"/>
</a>
<a xlink:href="Plot-149" >
	<polygon class="st0" points="161.6,302.5 129,302.1 140.9,270.2 161.4,270.7 	"/>
</a>
<a xlink:href="Plot-148" >
	<polygon class="st0" points="143.1,360.6 108,360.6 120.3,327.1 143.2,327.2 	"/>
</a>
<a xlink:href="Plot-207" >
	<rect x="261.5" y="109.4" class="st0" width="31.3" height="41.7"/>
</a>
<a xlink:href="Plot-204" >
	<rect x="237.8" y="169.9" class="st0" width="34.7" height="24.9"/>
</a>
<a xlink:href="Plot-203" >
	<rect x="272.5" y="169.9" class="st0" width="24.9" height="24.9"/>
</a>
<a xlink:href="Plot-202" >
	<rect x="297.4" y="169.9" class="st0" width="24.9" height="24.9"/>
</a>
<a xlink:href="Plot-185" >
	<rect x="297.4" y="194.9" class="st0" width="24.9" height="25.3"/>
</a>
<a xlink:href="Plot-186" >
	<rect x="322.4" y="194.9" class="st0" width="24.9" height="25.3"/>
</a>
<a xlink:href="Plot-187" >
	<rect x="347.3" y="194.9" class="st0" width="24.9" height="25.3"/>
</a>
<a xlink:href="Plot-201" >
	<rect x="322.4" y="169.9" class="st0" width="24.9" height="24.9"/>
</a>
<a xlink:href="Plot-200" >
	<rect x="347.3" y="169.9" class="st0" width="24.9" height="24.9"/>
</a>
<a xlink:href="Plot-188" >
	<rect x="372.3" y="194.9" class="st0" width="24.9" height="25.3"/>
</a>
<a xlink:href="Plot-199" >
	<rect x="372.3" y="169.9" class="st0" width="24.9" height="24.9"/>
</a>
<a xlink:href="Plot-189" >
	<rect x="397.2" y="194.9" class="st0" width="24.9" height="25.3"/>
</a>
<a xlink:href="Plot-190" >
	<polygon class="st0" points="442.6,220.2 422.1,220.2 422.1,169.9 425.9,169.9 442.3,184.1 	"/>
</a>
<a xlink:href="Plot-191" >
	<polygon class="st0" points="463.1,220.2 442.6,220.2 442.3,184.1 449.7,190.2 486,220.4 	"/>
</a>
<a xlink:href="Plot-198" >
	<rect x="397.2" y="169.9" class="st0" width="24.9" height="24.9"/>
</a>
<a xlink:href="Plot-183" >
	<rect x="237.8" y="194.9" class="st0" width="34.7" height="25.3"/>
</a>
<a xlink:href="Plot-184" >
	<rect x="272.5" y="194.9" class="st0" width="24.9" height="25.3"/>
</a>
<a xlink:href="Plot-182" >
	<rect x="181.2" y="190.6" class="st0" width="31.3" height="29.6"/>
</a>
<a xlink:href="Plot-178" >
	<polygon class="st0" points="212.5,270.3 181.2,270.7 181.2,238.9 212.5,238.9 	"/>
</a>
<a xlink:href="Plot-177" >
	<polygon class="st0" points="272.5,270.6 237.8,270.7 237.8,238.9 272.5,238.9 	"/>
</a>
<a xlink:href="Plot-176" >
	<polygon class="st0" points="297.4,270.7 272.5,270.6 272.5,238.9 297.4,238.9 	"/>
</a>
<a xlink:href="Plot-175" >
	<polygon class="st0" points="322.4,270.6 297.4,270.7 297.4,238.9 322.4,238.9 	"/>
</a>
<a xlink:href="Plot-174" >
	<polygon class="st0" points="347.6,270.7 322.4,270.6 322.4,238.9 347.6,238.9 	"/>
</a>
<a xlink:href="Plot-173" >
	<polygon class="st0" points="372.5,270.6 347.6,270.7 347.6,238.9 372.5,238.9 	"/>
</a>
<a xlink:href="Plot-172" >
	<polygon class="st0" points="397.7,270.7 372.5,270.6 372.5,238.9 397.7,238.9 	"/>
</a>
<a xlink:href="Plot-171" >
	<polygon class="st0" points="422.7,270.6 397.7,270.7 397.7,238.9 422.7,238.9 	"/>
</a>
<a xlink:href="Plot-170" >
	<polygon class="st0" points="447.9,270.7 422.7,270.6 422.7,238.9 447.9,238.9 	"/>
</a>
<a xlink:href="Plot-152" >
	<polygon class="st0" points="272.5,302.4 237.8,302.5 237.8,270.7 272.5,270.7 	"/>
</a>
<a xlink:href="Plot-153" >
	<polygon class="st0" points="297.4,302.5 272.5,302.4 272.5,270.7 297.4,270.7 	"/>
</a>
<a xlink:href="Plot-144" >
	<polygon class="st0" points="272.5,360.5 237.8,360.6 237.8,327.2 272.5,327.2 	"/>
</a>
<a xlink:href="Plot-115" >
	<polygon class="st0" points="272.5,392 237.8,392.1 237.8,360.2 272.5,360.2 	"/>
</a>
<a xlink:href="Plot-143" >
	<polygon class="st0" points="294.9,360.6 272.5,360.5 272.5,327.2 294.9,327.2 	"/>
</a>
<a xlink:href="Plot-142" >
	<polygon class="st0" points="317.3,360.6 294.9,360.5 294.9,327.2 317.3,327.2 	"/>
</a>
<a xlink:href="Plot-141" >
	<polygon class="st0" points="339.7,360.6 317.3,360.5 317.3,327.2 339.7,327.2 	"/>
</a>
<a xlink:href="Plot-140" >
	<polygon class="st0" points="362.8,360.6 339.7,360.5 339.7,327.2 362.8,327.2 	"/>
</a>
<a xlink:href="Plot-139" >
	<polygon class="st0" points="385.9,360.6 362.8,360.5 362.8,327.2 385.9,327.2 	"/>
</a>
<a xlink:href="Plot-18" >
	<polygon class="st0" points="409,360.6 385.9,360.5 385.9,327.2 409,327.2 	"/>
</a>
<a xlink:href="Plot-137" >
	<polygon class="st0" points="430.8,360.6 407.7,360.5 407.7,327.2 430.8,327.2 	"/>
</a>
<a xlink:href="Plot-136" >
	<polygon class="st0" points="453.5,360.6 430.4,360.5 430.4,327.2 453.5,327.2 	"/>
</a>
<a xlink:href="Plot-135" >
	<polygon class="st0" points="476.2,360.6 453.1,360.5 453.1,327.2 476.2,327.2 	"/>
</a>
<a xlink:href="Plot-134" >
	<polygon class="st0" points="499.2,360.6 476.1,360.5 476.1,327.2 499.2,327.2 	"/>
</a>
<a xlink:href="Plot-133" >
	<polygon class="st0" points="522.1,360.6 499.2,360.6 499.4,327.2 522.3,327.2 	"/>
</a>
<a xlink:href="Plot-132" >
	<polygon class="st0" points="551.8,360.6 521.2,360.6 521.4,327.2 552.1,327.2 	"/>
</a>
<a xlink:href="Plot-154" >
	<polygon class="st0" points="322.4,302.4 297.4,302.5 297.4,270.7 322.4,270.7 	"/>
</a>
<a xlink:href="Plot-155" >
	<polygon class="st0" points="347.6,302.5 322.4,302.4 322.4,270.7 347.6,270.7 	"/>
</a>
<a xlink:href="Plot-156" >
	<polygon class="st0" points="372.5,302.4 347.6,302.5 347.6,270.7 372.5,270.7 	"/>
</a>
<a xlink:href="Plot-157" >
	<polygon class="st0" points="397.7,302.5 372.5,302.4 372.5,270.7 397.7,270.7 	"/>
</a>
<a xlink:href="Plot-158" >
	<polygon class="st0" points="422.7,302.4 397.7,302.5 397.7,270.7 422.7,270.7 	"/>
</a>
<a xlink:href="Plot-159" >
	<polygon class="st0" points="447.9,302.5 422.7,302.4 422.7,270.7 447.9,270.7 	"/>
</a>
<a xlink:href="Plot-160" >
	<polygon class="st0" points="473.1,302.5 447.9,302.4 447.9,270.6 473.1,270.7 	"/>
</a>
<a xlink:href="Plot-161" >
	<polygon class="st0" points="498.3,302.5 473.1,302.4 473.1,270.7 498.3,270.7 	"/>
</a>
<a xlink:href="Plot-162" >
	<polygon class="st0" points="521.2,302.5 498.4,302.4 498.4,238.9 513,239 521.2,244 	"/>
</a>
<a xlink:href="Plot-163" >
	<polygon class="st0" points="552,302.2 521.2,302.4 521.2,244 545.2,260 552,264.8 	"/>
</a>
<a xlink:href="Plot-168" >
	<polygon class="st0" points="498.3,270.7 447.9,270.7 447.9,238.9 498.5,239 	"/>
</a>
<a xlink:href="Plot-179" >
	<polygon class="st0" points="181.2,270.7 161.3,270.7 161.7,238.9 181.4,238.9 	"/>
</a>
<a xlink:href="Plot-150" >
	<polygon class="st0" points="180.9,302.5 161.1,302.5 161.5,270.7 181.2,270.7 	"/>
</a>
<a xlink:href="Plot-147" >
	<polygon class="st0" points="162,360.6 142.8,360.6 143.2,327.1 162.2,327.1 	"/>
</a>
<a xlink:href="Plot-146" >
	<polygon class="st0" points="181,360.6 161.8,360.6 162.2,327.1 181.3,327.1 	"/>
</a>
<a xlink:href="Plot-145" >
	<polygon class="st0" points="212.2,360.6 180.9,360.6 181.6,327.1 212.5,327.1 	"/>
</a>
<a xlink:href="Plot-114" >
	<polygon class="st0" points="212,392.1 180.9,392.1 181.6,360.8 212.3,360.8 	"/>
</a>
<a xlink:href="Plot-151" >
	<polygon class="st0" points="212.5,302.2 180.9,302.5 181.2,270.6 212.5,270.7 	"/>
</a>
<a xlink:href="Plot-208" >
	<rect x="292.9" y="106.6" class="st0" width="28.4" height="44.5"/>
</a>
<a xlink:href="Plot-209" >
	<rect x="320.8" y="104.6" class="st0" width="29.3" height="46.5"/>
</a>
<a xlink:href="Plot-210" >
	<polygon class="st0" points="379.3,151.1 350.1,151.1 350.1,104.6 405.8,151.1 	"/>
</a>
<a xlink:href="Plot-112" >
	<polygon class="st0" points="162,392.1 142.8,392.1 143.2,360.6 162.2,360.6 	"/>
</a>
<a xlink:href="Plot-113" >
	<polygon class="st0" points="181,392.1 161.8,392.1 162.2,360.6 181.3,360.6 	"/>
</a>
<a xlink:href="Plot-111" >
	<polygon class="st0" points="143,392.1 123.8,392.1 124.2,360.6 143.2,360.6 	"/>
</a>
<a xlink:href="Plot-108" >
	<polygon class="st0" points="124.2,442.4 105.3,442.4 105.7,411.3 124.4,411.3 	"/>
</a>
<a xlink:href="Plot-107" >
	<polygon class="st0" points="142.9,442.4 123.9,442.4 124.3,411.3 143.1,411.3 	"/>
</a>
<a xlink:href="Plot-106" >
	<polygon class="st0" points="161.8,442.4 142.9,442.4 143.3,411.3 162.1,411.3 	"/>
</a>
<a xlink:href="Plot-105" >
	<polygon class="st0" points="181.2,442.4 161.8,442.4 162.2,411.3 181.4,411.3 	"/>
</a>
<a xlink:href="Plot-104" >
	<polygon class="st0" points="212.3,442.4 181.1,442.4 181.4,411.3 212.7,411.3 	"/>
</a>
<a xlink:href="Plot-103" >
	<polygon class="st0" points="272.5,442.4 237.8,442.4 237.8,411.5 272.5,411.3 	"/>
</a>
<a xlink:href="Plot-68" >
	<polygon class="st0" points="272.5,473.9 237.8,473.9 237.8,442.6 272.5,442.3 	"/>
</a>
<a xlink:href="Plot-67" >
	<polygon class="st0" points="212.1,473.9 180.8,473.9 181.2,442.8 212.4,442.8 	"/>
</a>
<a xlink:href="Plot-64" >
	<polygon class="st0" points="143.1,471 123.9,464.7 124.3,442.3 143.1,442.3 	"/>
</a>
<a xlink:href="Plot-109" >
	<polygon class="st0" points="105.3,436.2 81,436.2 90,411.3 105.7,411.3 	"/>
</a>
<a xlink:href="Plot-110" >
	<polygon class="st0" points="123.8,392.1 97.4,392.1 108,360.6 124.2,360.6 	"/>
</a>
<a xlink:href="Plot-62" >
	<polygon class="st0" points="105.1,457.9 76.3,448.1 81,436.2 105.3,436.2 	"/>
</a>
<a xlink:href="Plot-116" >
	<polygon class="st0" points="291.3,392.1 272.5,392 272.5,360.3 291.3,360.3 	"/>
</a>
<a xlink:href="Plot-117" >
	<polygon class="st0" points="310,392.1 291.3,392 291.3,360.3 310,360.3 	"/>
</a>
<a xlink:href="Plot-118" >
	<polygon class="st0" points="328.7,392.1 310,392 310,360.3 328.7,360.3 	"/>
</a>
<a xlink:href="Plot-119" >
	<polygon class="st0" points="347.4,392.1 328.7,392 328.7,360.3 347.4,360.3 	"/>
</a>
<a xlink:href="Plot-120" >
	<polygon class="st0" points="366.1,392.1 347.4,392 347.4,360.3 366.1,360.3 	"/>
</a>
<a xlink:href="Plot-121" >
	<polygon class="st0" points="384.8,392.1 366.1,392 366.1,360.3 384.8,360.3 	"/>
</a>
<a xlink:href="Plot-122" >
	<polygon class="st0" points="403.5,392.1 384.8,392 384.8,360.3 403.5,360.3 	"/>
</a>
<a xlink:href="Plot-123" >
	<polygon class="st0" points="422.2,392.1 403.5,392 403.5,360.3 422.2,360.3 	"/>
</a>
<a xlink:href="Plot-124" >
	<polygon class="st0" points="440.9,392.1 422.2,392 422.2,360.3 440.9,360.3 	"/>
</a>
<a xlink:href="Plot-125" >
	<polygon class="st0" points="459.6,392.1 440.9,392 440.9,360.3 459.6,360.3 	"/>
</a>
<a xlink:href="Plot-126" >
	<polygon class="st0" points="478.3,392.1 459.6,392 459.6,360.3 478.3,360.3 	"/>
</a>
<a xlink:href="Plot-127" >
	<polygon class="st0" points="497,392.2 478.3,392.1 478.3,360.4 497,360.4 	"/>
</a>
<a xlink:href="Plot-128" >
	<polygon class="st0" points="515.7,392.2 497,392.1 497,360.4 515.7,360.4 	"/>
</a>
<a xlink:href="Plot-129" >
	<polygon class="st0" points="551.9,392.3 515.7,392.2 515.7,360.5 551.9,360.5 	"/>
</a>
<a xlink:href="Plot-102" >
	<polygon class="st0" points="291.3,443.1 272.5,443 272.5,411.3 291.3,411.3 	"/>
</a>
<a xlink:href="Plot-101" >
	<polygon class="st0" points="310,443.1 291.3,443 291.3,411.3 310,411.3 	"/>
</a>
<a xlink:href="Plot-100" >
	<polygon class="st0" points="328.7,443.1 310,443 310,411.3 328.7,411.3 	"/>
</a>
<a xlink:href="Plot-99" >
	<polygon class="st0" points="347.4,443.1 328.7,443 328.7,411.3 347.4,411.3 	"/>
</a>
<a xlink:href="Plot-98" >
	<polygon class="st0" points="366.1,443.1 347.4,443 347.4,411.3 366.1,411.3 	"/>
</a>
<a xlink:href="Plot-97" >
	<polygon class="st0" points="384.8,443.1 366.1,443 366.1,411.3 384.8,411.3 	"/>
</a>
<a xlink:href="Plot-96" >
	<polygon class="st0" points="403.5,443.1 384.8,443 384.8,411.3 403.5,411.3 	"/>
</a>
<a xlink:href="Plot-95" >
	<polygon class="st0" points="422.2,443.1 403.5,443 403.5,411.3 422.2,411.3 	"/>
</a>
<a xlink:href="Plot-94" >
	<polygon class="st0" points="440.9,443.1 422.2,443 422.2,411.3 440.9,411.3 	"/>
</a>
<a xlink:href="Plot-93" >
	<polygon class="st0" points="459.6,443.1 440.9,443 440.9,411.3 459.6,411.3 	"/>
</a>
<a xlink:href="Plot-92" >
	<polygon class="st0" points="478.3,443.1 459.6,443 459.6,411.3 478.3,411.3 	"/>
</a>
<a xlink:href="Plot-91" >
	<polygon class="st0" points="497,443.2 478.3,443.1 478.3,411.4 497,411.4 	"/>
</a>
<a xlink:href="Plot-90" >
	<polygon class="st0" points="515.7,443.2 497,443.1 497,411.4 515.7,411.4 	"/>
</a>
<a xlink:href="Plot-89" >
	<polygon class="st0" points="551.9,443.3 515.7,443.2 515.7,411.5 551.9,411.5 	"/>
</a>
<a xlink:href="Plot-86" >
	<polygon class="st0" points="655.1,442.6 621.4,443 621.4,411.3 639.8,411.6 655.1,422.3 	"/>
</a>
<a xlink:href="Plot-88" >
	<polygon class="st0" points="602.6,443.1 570.5,443 570.5,411.5 602.6,411.5 	"/>
</a>
<a xlink:href="Plot-83" >
	<polygon class="st0" points="602.6,474.4 570.5,474.3 570.5,442.6 602.6,442.6 	"/>
</a>
<a xlink:href="Plot-69" >
	<polygon class="st0" points="291.3,474.2 272.5,474.1 272.5,442.4 291.3,442.4 	"/>
</a>
<a xlink:href="Plot-70" >
	<polygon class="st0" points="310,474.2 291.3,474.1 291.3,442.4 310,442.4 	"/>
</a>
<a xlink:href="Plot-71" >
<polygon class="st0" points="328.7,474.2 310,474.1 310,442.4 328.7,442.4 "/>
</a>
<a xlink:href="Plot-72" >
	<polygon class="st0" points="347.4,474.2 328.7,474.1 328.7,442.4 347.4,442.4 	"/>
</a>
<a xlink:href="Plot-73" >
	<polygon class="st0" points="366.1,474.2 347.4,474.1 347.4,442.4 366.1,442.4 	"/>
</a>
<a xlink:href="Plot-74" >
	<polygon class="st0" points="384.8,474.2 366.1,474.1 366.1,442.4 384.8,442.4 	"/>
</a>
<a xlink:href="Plot-75" >
	<polygon class="st0" points="403.5,474.2 384.8,474.1 384.8,442.4 403.5,442.4 	"/>
</a>
<a xlink:href="Plot-76" >
	<polygon class="st0" points="422.2,474.2 403.5,474.1 403.5,442.4 422.2,442.4 	"/>
</a>
<a xlink:href="Plot-77" >
	<polygon class="st0" points="440.9,474.2 422.2,474.1 422.2,442.4 440.9,442.4 	"/>
</a>
<a xlink:href="Plot-78" >
	<polygon class="st0" points="459.6,474.2 440.9,474.1 440.9,442.4 459.6,442.4 	"/>
</a>
<a xlink:href="Plot-79" >
	<polygon class="st0" points="478.3,474.2 459.6,474.1 459.6,442.4 478.3,442.4 	"/>
</a>
<a xlink:href="Plot-80" >
	<polygon class="st0" points="497,474.3 478.3,474.2 478.3,442.5 497,442.5 	"/>
</a>
<a xlink:href="Plot-81" >
	<polygon class="st0" points="515.7,474.3 497,474.2 497,442.5 515.7,442.5 	"/>
</a>
<a xlink:href="Plot-87" >
	<polygon class="st0" points="621.4,443.1 602.6,443 602.6,411.3 621.4,411.3 	"/>
</a>
<a xlink:href="Plot-84" >
	<polygon class="st0" points="621.4,474.4 602.6,474.3 602.6,442.6 621.4,442.6 	"/>
</a>
<a xlink:href="Plot-43" >
	<polygon class="st0" points="619.3,524.8 601.8,524.7 601.8,493 619.3,493 	"/>
</a>
<a xlink:href="Plot-42" >
	<polygon class="st0" points="636.8,524.4 619.1,524.3 619.1,492.6 636.8,492.6 	"/>
</a>
<a xlink:href="Plot-225" >
	<polygon class="st0" points="654.3,524.4 636.8,524.3 636.8,492.6 654.3,492.6 	"/>
</a>
<a xlink:href="Plot-226" >
	<polygon class="st0" points="674.1,524.4 654.3,524.3 654.3,492.6 674.1,492.6 	"/>
</a>
<a xlink:href="Plot-85" >
	<polygon class="st0" points="636.1,474.4 621.4,474.3 621.4,442.6 636.1,442.6 	"/>
</a>
<a xlink:href="Plot-224" >
	<polygon class="st0" points="655.1,474.4 636.1,474.3 636.1,442.6 655.1,442.6 	"/>
</a>
<a xlink:href="Plot-220" >
	<polygon class="st0" points="674.1,474.4 655.1,474.2 655.1,422.3 674.1,435.1 	"/>
</a>
<a xlink:href="Plot-221" >
	<polygon class="st0" points="693.1,474.4 674.1,474.2 674.1,435.1 693.1,448.8 	"/>
</a>
<a xlink:href="Plot-222" >
	<polygon class="st0" points="712.1,474.3 693.1,474.4 693.1,448.8 712.1,462.1 	"/>
</a>
<a xlink:href="Plot-269">
	<polygon class="st0" points="748.2,495.2 728.9,495.2 728.3,473.8 758.6,495.3 	"/>
</a>
<a xlink:href="Plot-82" >
	<polygon class="st0" points="551.9,474.4 515.7,474.3 515.7,442.6 551.9,442.6 	"/>
</a>
<a xlink:href="Plot-59" >
	<polygon class="st0" points="271.9,524.2 237.1,524.2 237.1,492.7 271.9,492.5 	"/>
</a>
<a xlink:href="Plot-24" >
	<polygon class="st0" points="271.9,556.3 237.1,556.3 237.1,524.4 271.9,524.1 	"/>
</a>
<a xlink:href="Plot-58" >
	<polygon class="st0" points="290.7,524.9 271.9,524.8 271.9,492.5 290.7,492.5 	"/>
</a>
<a xlink:href="Plot-57" >
	<polygon class="st0" points="309.4,524.9 290.7,524.8 290.7,492.5 309.4,492.5 	"/>
</a>
<a xlink:href="Plot-56" >
	<polygon class="st0" points="328.2,524.9 309.4,524.8 309.4,492.5 328.2,492.5 	"/>
</a>
<a xlink:href="Plot-55" >
	<polygon class="st0" points="346.9,524.9 328.2,524.8 328.2,492.5 346.9,492.5 	"/>
</a>
<a xlink:href="Plot-54" >
	<polygon class="st0" points="365.7,524.9 346.9,524.8 346.9,492.5 365.7,492.5 	"/>
</a>
<a xlink:href="Plot-53" >
	<polygon class="st0" points="384.4,524.9 365.7,524.8 365.7,492.5 384.4,492.5 	"/>
</a>
<a xlink:href="Plot-52" >
	<polygon class="st0" points="403.2,524.9 384.4,524.8 384.4,492.5 403.2,492.5 	"/>
</a>
<a xlink:href="Plot-51" >
	<polygon class="st0" points="421.9,524.9 403.2,524.8 403.2,492.5 421.9,492.5 	"/>
</a>
<a xlink:href="Plot-50" >
	<polygon class="st0" points="440.7,524.9 421.9,524.8 421.9,492.5 440.7,492.5 	"/>
</a>
<a xlink:href="Plot-49" >
	<polygon class="st0" points="459.4,524.9 440.7,524.8 440.7,492.5 459.4,492.5 	"/>
</a>
<a xlink:href="Plot-48" >
	<polygon class="st0" points="478.2,524.9 459.4,524.8 459.4,492.5 478.2,492.5 	"/>
</a>
<a xlink:href="Plot-47" >
	<polygon class="st0" points="496.9,525 478.1,524.9 478.1,492.6 496.9,492.6 	"/>
</a>
<a xlink:href="Plot-46" >
	<polygon class="st0" points="515.6,525 496.9,524.9 496.9,492.6 515.6,492.6 	"/>
</a>
<a xlink:href="Plot-45" >
	<polygon class="st0" points="551.9,525.1 515.6,525 515.6,492.7 551.9,492.7 	"/>
</a>
<a xlink:href="Plot-44" >
	<polygon class="st0" points="602.3,524.3 570.5,524.2 570.5,492.7 602.3,492.7 	"/>
</a>
<a xlink:href="Plot-227" >
	<polygon class="st0" points="712.1,520.3 674.1,520.2 674.1,492.9 712.1,492.9 	"/>
</a>
<a xlink:href="Plot-228" >
	<polygon class="st0" points="712.1,555.6 674.1,555.5 674.1,520.3 712.1,520.3 	"/>
</a>
<a xlink:href="Plot-250" >
	<polygon class="st0" points="766.9,571.9 728.9,571.8 728.9,538.2 766.9,538.2 	"/>
</a>
<a xlink:href="Plot-249" >
	<polygon class="st0" points="766.9,600.9 728.9,600.9 728.9,571.9 766.9,571.9 	"/>
</a>
<a xlink:href="Plot-245" >
	<polygon class="st0" points="880.5,601.3 842.5,601.2 842.5,572.2 880.5,572.2 	"/>
</a>
<a xlink:href="Plot-260" >
<polygon class="st0" points="926.2,523.3 860.9,523.7 866.4,518.4 915.5,492 915.5,492 "/>
</a>
<a xlink:href="Plot-268" >
	<polygon class="st0" points="764.1,519.4 729.2,519.4 728.9,495.2 758.6,495.3 764.1,499 	"/>
</a>
<a xlink:href="Plot-40" >
	<polygon class="st0" points="619.3,556 601.8,555.9 601.8,524.2 619.3,524.2 	"/>
</a>
<a xlink:href="Plot-4" >
	<polygon class="st0" points="585.2,599.7 570.5,597.1 570.5,575.3 585.2,575.3 	"/>
</a>
<a xlink:href="Plot-3" >
	<polygon class="st0" points="601.8,603.2 585.2,599.7 585.2,575.3 601.8,575.3 	"/>
</a>
<a xlink:href="Plot-2" >
	<polygon class="st0" points="618.4,605.9 601.8,603.2 601.8,575.3 618.4,575.3 	"/>
</a>
<a xlink:href="Plot-1" >
	<polygon class="st0" points="635,608.8 618.4,605.9 618.4,575.3 635,575.3 	"/>
</a>
<a xlink:href="Plot-231" >
	<polygon class="st0" points="655.1,612.9 635,608.8 635,575.3 655.1,575.3 	"/>
</a>
<a xlink:href="Plot-232" >
	<polygon class="st0" points="674.3,616.8 655.1,612.9 655,575.3 674.1,575.3 	"/>
</a>
<a xlink:href="Plot-41" >
	<polygon class="st0" points="636.8,556 619.1,555.9 619.1,524.2 636.8,524.2 	"/>
</a>
<a xlink:href="Plot-230" >
	<polygon class="st0" points="654.3,556 636.8,555.9 636.8,524.2 654.3,524.2 	"/>
</a>
<a xlink:href="Plot-229" >
	<polygon class="st0" points="674.1,556 654.3,555.9 654.3,524.2 674.1,524.2 	"/>
</a>
<a xlink:href="Plot-251" >
	<polygon class="st0" points="786.1,572.2 766.4,572.1 766.4,537.9 786.1,537.9 	"/>
</a>
<a xlink:href="Plot-252" >
	<polygon class="st0" points="805.9,572.2 786.1,572.1 786.1,537.9 805.9,537.9 	"/>
</a>
<a xlink:href="Plot-253" >
	<polygon class="st0" points="823.4,572.2 804.1,572.1 804.1,537.9 823.4,537.9 	"/>
</a>
<a xlink:href="Plot-254" >
	<polygon class="st0" points="862.3,572.2 842.5,572.1 842.5,537.9 862.3,537.9 	"/>
</a>
<a xlink:href="Plot-255" >
	<polygon class="st0" points="882,572.2 862.3,572.1 862.3,537.9 882,537.9 	"/>
</a>
<a xlink:href="Plot-256" >
	<polygon class="st0" points="899.6,572.2 880.3,572.1 880.3,537.9 899.6,537.9 	"/>
</a>
<a xlink:href="Plot-244" >
	<polygon class="st0" points="899.6,601.3 880.3,601.2 880.3,571.9 899.6,571.9 	"/>
</a>
<a xlink:href="Plot-240" >
	<polygon class="st0" points="880.8,654.3 861.3,677.9 861.5,620 880.8,620 	"/>
</a>
<polygon class="st50" points="888.5,643.7 880.8,654.3 880.4,620 933.7,620 "/>
<a xlink:href="Plot-243" >
	<polygon class="st0" points="918.8,601.4 899.6,601.4 899.6,572.1 918.8,572.1 	"/>
</a>
<a xlink:href="Plot-257" >
	<polygon class="st0" points="918.8,572.2 899.6,572.1 899.6,537.9 918.8,537.9 	"/>
</a>
<a xlink:href="Plot-258" >
	<polygon class="st0" points="938.1,572.2 918.8,572.1 918.8,537.9 930.3,537.4 	"/>
</a>
<a xlink:href="Plot-241" >
	<polygon class="st0" points="944.3,600.9 918.8,601.4 918.8,572.3 938.1,572.2 	"/>
</a>
<a xlink:href="Plot-248" >
	<polygon class="st0" points="786.1,600.9 766.4,600.9 766.4,571.9 786.1,571.9 	"/>
</a>
<a xlink:href="Plot-39" >
	<polygon class="st0" points="602.3,555.9 570.5,555.8 570.5,524.3 602.3,524.3 	"/>
</a>
<a xlink:href="Plot-25" >
	<polygon class="st0" points="290.7,556.6 271.9,556.5 271.9,524.2 290.7,524.2 	"/>
</a>
<a xlink:href="Plot-19" >
	<polygon class="st0" points="290.7,610.8 271.9,610.7 271.9,574.8 290.7,574.8 	"/>
</a>
<a xlink:href="Plot-18" >
	<polygon class="st0" points="309.5,610.8 290.7,610.7 290.7,574.8 309.5,574.8 	"/>
</a>
<a xlink:href="Plot-17" >
	<polygon class="st0" points="328.2,610.8 309.4,610.7 309.4,574.8 328.2,574.8 	"/>
</a>
<a xlink:href="Plot-16" >
	<polygon class="st0" points="347,610.8 328.2,610.7 328.2,574.8 347,574.8 	"/>
</a>
<a xlink:href="Plot-15" >
	<polygon class="st0" points="365.7,610.8 346.9,610.7 346.9,574.8 365.7,574.8 	"/>
</a>
<a xlink:href="Plot-14" >
	<polygon class="st0" points="385,610.9 365.7,610.8 365.7,574.8 385,574.8 	"/>
</a>
<a xlink:href="Plot-13" >
	<polygon class="st0" points="404.4,610.9 385,610.8 385,574.8 404.4,574.8 	"/>
</a>
<a xlink:href="Plot-12" >
	<polygon class="st0" points="423.8,614.4 404.4,610.8 404.4,574.8 423.8,574.8 	"/>
</a>
<a xlink:href="Plot-11" >
	<polygon class="st0" points="442.5,616.7 423.8,614.4 423.8,574.8 443.2,574.8 	"/>
</a>
<a xlink:href="Plot-10" >
	<polygon class="st0" points="461.8,618.8 442.5,616.7 443.2,574.8 462.6,574.8 	"/>
</a>
<a xlink:href="Plot-9" >
	<polygon class="st0" points="481.1,621.6 461.8,618.8 462.5,574.8 481.9,574.8 	"/>
</a>
<a xlink:href="Plot-8" >
	<polygon class="st0" points="499.3,623.2 481.1,621.6 481.7,574.8 501.1,574.8 	"/>
</a>
<a xlink:href="Plot-7" >
	<polygon class="st0" points="517.5,628.4 499.3,623.2 500.2,574.8 519.5,574.8 	"/>
</a>
<a xlink:href="Plot-6" >
	<polygon class="st0" points="536.1,634 515.5,627.9 516.5,574.8 535.9,574.8 	"/>
</a>
<a xlink:href="Plot-5" >
	<polygon class="st0" points="553.4,639.3 534.2,633.8 533.9,574.8 553.3,574.8 	"/>
</a>
<a xlink:href="Plot-26" >
	<polygon class="st0" points="309.4,556.6 290.7,556.5 290.7,524.2 309.4,524.2 	"/>
</a>
<a xlink:href="Plot-27" >
	<polygon class="st0" points="328.2,556.6 309.4,556.5 309.4,524.2 328.2,524.2 	"/>
</a>
<a xlink:href="Plot-28" >
	<polygon class="st0" points="346.9,556.6 328.2,556.5 328.2,524.2 346.9,524.2 	"/>
</a>
<a xlink:href="Plot-29" >
	<polygon class="st0" points="365.7,556.6 346.9,556.5 346.9,524.2 365.7,524.2 	"/>
</a>
<a xlink:href="Plot-30" >
	<polygon class="st0" points="384.4,556.6 365.7,556.5 365.7,524.2 384.4,524.2 	"/>
</a>
<a xlink:href="Plot-31" >
	<polygon class="st0" points="403.2,556.6 384.4,556.5 384.4,524.2 403.2,524.2 	"/>
</a>
<a xlink:href="Plot-32" >
	<polygon class="st0" points="421.9,556.6 403.2,556.5 403.2,524.2 421.9,524.2 	"/>
</a>
<a xlink:href="Plot-33" >
	<polygon class="st0" points="440.7,556.6 421.9,556.5 421.9,524.2 440.7,524.2 	"/>
</a>
<a xlink:href="Plot-34" >
	<polygon class="st0" points="459.4,556.6 440.7,556.5 440.7,524.2 459.4,524.2 	"/>
</a>
<a xlink:href="Plot-35" >
	<polygon class="st0" points="478.2,556.6 459.4,556.5 459.4,524.2 478.2,524.2 	"/>
</a>
<a xlink:href="Plot-36" >
	<polygon class="st0" points="496.9,556.7 478.1,556.6 478.1,524.3 496.9,524.3 	"/>
</a>
<a xlink:href="Plot-37" >
	<polygon class="st0" points="515.6,556.7 496.9,556.6 496.9,524.3 515.6,524.3 	"/>
</a>
<a xlink:href="Plot-38" >
	<polygon class="st0" points="551.9,556.8 515.6,556.7 515.6,524.4 551.9,524.4 	"/>
</a>
<a xlink:href="Plot-206" >
	<polygon class="st0" points="606.7,393.1 570.5,393 570.5,361.4 614.1,393.1 	"/>
</a>
<a xlink:href="Plot-63" >
	<polygon class="st0" points="123.8,464.6 105.1,457.9 105.3,442.3 124.1,442.3 	"/>
</a>
<a xlink:href="Plot-65" >
	<polygon class="st0" points="162.3,473.9 150.5,473.9 142.6,470.9 143,442.3 162.1,442.3 	"/>
</a>
<path class="st0" d="M149.8,473.2"/>
<a xlink:href="Plot-66" >
	<polygon class="st0" points="180.9,473.9 161.3,473.9 161.7,442.4 181.1,442.4 	"/>
</a>
<a xlink:href="Plot-61" >
	<polygon class="st0" points="187.6,524.5 170,524.5 170.4,493 187.8,493 	"/>
</a>
<a xlink:href="Plot-60" >
	<polygon class="st0" points="212.3,524.5 187.6,524.5 187.8,493 212.6,493 	"/>
</a>
<a xlink:href="Plot-23" >
	<polygon class="st0" points="212,556.1 187.3,556.1 187.6,524.5 212.3,524.5 	"/>
</a>
<a xlink:href="Plot-21" >
	<polygon class="st0" points="212.6,600.1 170,584.6 170.5,574.8 212.3,574.8 	"/>
</a>
<a xlink:href="Plot-20" >
	<polygon class="st0" points="271.9,610.8 211.8,599.4 212.3,574.8 272.5,574.7 	"/>
</a>
<a xlink:href="Plot-22" >
	<polygon class="st0" points="187.3,556.1 169.7,556.1 170.1,524.6 187.6,524.6 	"/>
</a>
<a xlink:href="Plot-266" >
	<polygon class="st0" points="783.2,519.5 763.9,519.5 763.3,498.5 792.8,519.6 	"/>
</a>
<a xlink:href="Plot-247" >
	<polygon class="st0" points="804.4,600.9 786.1,600.9 786.1,571.9 804.4,571.9 	"/>
</a>
<a xlink:href="Plot-246" >
	<polygon class="st0" points="823.4,600.9 804.1,600.9 804.1,571.9 823.4,571.9 	"/>
</a>
<a xlink:href="Plot-233" >
	<polygon class="st0" points="712.3,602.6 674.3,602.6 674.3,575.3 712.3,575.3 	"/>
</a>
<a xlink:href="Plot-234" >
	<polygon class="st0" points="712.3,618.5 674.3,618.5 674.3,602.6 712.3,602.6 	"/>
</a>
<a xlink:href="Plot-235" >
	<polygon class="st0" points="712.3,641.5 674.3,641.4 674.3,618.5 712.3,618.5 	"/>
</a>
<a xlink:href="Plot-236" >
	<polygon class="st0" points="753.2,640.6 728.4,640.6 728.4,619.9 753.2,619.9 	"/>
</a>
<a xlink:href="Plot-239" >
	<polygon class="st0" points="841.6,698.2 821.9,676.2 823.4,620 861.4,620 861.3,677.9 	"/>
</a>
<a xlink:href="Plot-238" >
	<polygon class="st0" points="822.8,677.1 781.8,633.7 781.8,620 823.4,620 	"/>
</a>
<a xlink:href="Plot-237" >
	<polygon class="st0" points="781.9,634.6 753.2,640.8 753.2,619.9 782.4,619.9 	"/>
</a>
<path class="st0" d="M841.2,682.3"/>
<path class="st1" d="M839.6,677"/>
<text transform="matrix(1 0 0 1 244.0095 128.8346)" class="st2 st3">206</text>
<text transform="matrix(1 0 0 1 241.2483 134.5148)" class="st2 st3">128.51</text>
<rect x="241.1" y="129.5" width="16.2" height="0.2"/>
<text transform="matrix(1 0 0 1 184.6046 179.5692)" class="st2 st3">205</text>
<text transform="matrix(1 0 0 1 181.8434 185.2493)" class="st2 st3">191.83</text>
<rect x="181.7" y="180.2" width="16.2" height="0.2"/>
<text transform="matrix(1 0 0 1 266.6157 128.4352)" class="st2 st3">207, 218</text>
<text transform="matrix(1 0 0 1 268.7325 134.6823)" class="st2 st3">208.31</text>
<rect x="266.9" y="129.7" width="20.9" height="0.2"/>
<text transform="matrix(1 0 0 1 295.9644 127.9651)" class="st2 st3">208, 217</text>
<text transform="matrix(1 0 0 1 297.9465 134.2122)" class="st2 st3">201.05</text>
<rect x="296.3" y="129.2" width="20.9" height="0.2"/>
<text transform="matrix(1 0 0 1 324.5485 127.2526)" class="st2 st3">209, 216</text>
<text transform="matrix(1 0 0 1 326.7412 133.4997)" class="st2 st3">201.05</text>
<rect x="325.1" y="128.5" width="20.9" height="0.2"/>
<text transform="matrix(1 0 0 1 353.3653 139.1389)" class="st2 st3">210,216,215</text>
<text transform="matrix(1 0 0 1 359.6567 145.386)" class="st2 st3">175.67</text>
<rect x="357.6" y="140.4" width="20.9" height="0.2"/>
<text transform="matrix(1 0 0 1 249.2422 181.466)" class="st2 st3">204</text>
<text transform="matrix(1 0 0 1 244.7646 187.1461)" class="st2 st3">244.44</text>
<rect x="246.4" y="182.1" width="16.2" height="0.2"/>
<text transform="matrix(1 0 0 1 279.6891 181.1247)" class="st2 st3">203</text>
<text transform="matrix(1 0 0 1 276.3273 186.8049)" class="st2 st3">133.33</text>
<rect x="276.7" y="181.8" width="16.2" height="0.2"/>
<text transform="matrix(1 0 0 1 304.5694 181.231)" class="st2 st3">202</text>
<text transform="matrix(1 0 0 1 301.1375 186.9111)" class="st2 st3">133.33</text>
<rect x="301.5" y="181.9" width="16.2" height="0.2"/>
<text transform="matrix(1 0 0 1 166.977 207.2579)" class="st2 st3">181</text>
<text transform="matrix(1 0 0 1 162.634 212.9381)" class="st2 st3">160.01</text>
<rect x="162.7" y="207.9" width="16.2" height="0.2"/>
<text transform="matrix(1 0 0 1 191.7836 205.4901)" class="st2 st3">182</text>
<text transform="matrix(1 0 0 1 189.0328 211.1703)" class="st2 st3">261.11</text>
<rect x="188.1" y="206.1" width="16.2" height="0.2"/>
<text transform="matrix(1 0 0 1 250.1851 204.8771)" class="st2 st3">183</text>
<text transform="matrix(1 0 0 1 244.931 210.5573)" class="st2 st3">244.44</text>
<rect x="246.6" y="205.5" width="16.2" height="0.2"/>
<text transform="matrix(1 0 0 1 280.2964 204.715)" class="st2 st3">184</text>
<text transform="matrix(1 0 0 1 276.5057 210.3952)" class="st2 st3">133.33</text>
<rect x="276.9" y="205.4" width="16.2" height="0.2"/>
<text transform="matrix(1 0 0 1 304.9763 204.9669)" class="st2 st3">185</text>
<text transform="matrix(1 0 0 1 301.1377 210.6471)" class="st2 st3">133.33</text>
<rect x="301.5" y="205.6" width="16.2" height="0.2"/>
<text transform="matrix(1 0 0 1 330.5854 180.923)" class="st2 st3">201</text>
<text transform="matrix(1 0 0 1 326.559 186.6032)" class="st2 st3">133.33</text>
<rect x="326.9" y="181.6" width="16.2" height="0.2"/>
<text transform="matrix(1 0 0 1 330.218 204.4177)" class="st2 st3">186</text>
<text transform="matrix(1 0 0 1 326.3684 210.0979)" class="st2 st3">133.33</text>
<rect x="326.7" y="205.1" width="16.2" height="0.2"/>
<text transform="matrix(1 0 0 1 354.6033 181.2755)" class="st2 st3">200</text>
<text transform="matrix(1 0 0 1 351.3734 186.9557)" class="st2 st3">133.33</text>
<rect x="351.7" y="181.9" width="16.2" height="0.2"/>
<text transform="matrix(1 0 0 1 355.4811 204.012)" class="st2 st3">187</text>
<text transform="matrix(1 0 0 1 351.3734 209.6922)" class="st2 st3">133.33</text>
<rect x="351.7" y="204.7" width="16.2" height="0.2"/>
<text transform="matrix(1 0 0 1 380.1659 181.2703)" class="st2 st3">199</text>
<text transform="matrix(1 0 0 1 376.2291 186.9504)" class="st2 st3">133.33</text>
<rect x="376.6" y="181.9" width="16.2" height="0.2"/>
<text transform="matrix(1 0 0 1 380.2487 204.715)" class="st2 st3">188</text>
<text transform="matrix(1 0 0 1 376.4074 210.3952)" class="st2 st3">133.33</text>
<rect x="376.8" y="205.4" width="16.2" height="0.2"/>
<text transform="matrix(1 0 0 1 405.2826 181.2704)" class="st2 st3">198</text>
<text transform="matrix(1 0 0 1 401.3936 186.9506)" class="st2 st3">133.33</text>
<rect x="401.8" y="181.9" width="16.2" height="0.2"/>
<text transform="matrix(1 0 0 1 405.2572 204.7148)" class="st2 st3">189</text>
<text transform="matrix(1 0 0 1 401.3683 210.395)" class="st2 st3">133.33</text>
<rect x="401.7" y="205.4" width="16.2" height="0.2"/>
<text transform="matrix(1 0 0 1 423.523 200.2271)" class="st2 st4">190,197</text>
<text transform="matrix(1 0 0 1 424.494 206.0598)" class="st2 st4">212.59</text>
<rect x="424.2" y="201.5" width="16" height="0.2"/>
<text transform="matrix(1 0 0 1 446.3458 210.3045)" class="st2 st5">191,192,196</text>
<text transform="matrix(1 0 0 1 450.2172 215.0049)" class="st2 st5">162.24</text>
<rect x="447" y="211.5" width="18.4" height="0.1"/>
<text transform="matrix(1 0 0 1 149.1198 257.7738)" class="st2 st6">180</text>
<text transform="matrix(1 0 0 1 147.3263 261.4628)" class="st2 st6">140.41</text>
<rect x="147.2" y="258.2" width="10.5" height="0.1"/>
<text transform="matrix(1 0 0 1 167.2199 255.91)" class="st2 st3">179</text>
<text transform="matrix(1 0 0 1 162.6049 261.5901)" class="st2 st3">166.66</text>
<rect x="163.4" y="256.6" width="16.2" height="0.2"/>
<text transform="matrix(1 0 0 1 192.5716 255.3586)" class="st2 st3">178</text>
<text transform="matrix(1 0 0 1 188.4417 261.0388)" class="st2 st3">277.77</text>
<rect x="188.8" y="256" width="16.2" height="0.2"/>
<text transform="matrix(1 0 0 1 250.3134 253.0698)" class="st2 st3">177</text>
<text transform="matrix(1 0 0 1 244.7648 258.75)" class="st2 st3">305.55</text>
<rect x="246.3" y="253.7" width="16.2" height="0.2"/>
<text transform="matrix(1 0 0 1 280.5605 253.2342)" class="st2 st3">176</text>
<text transform="matrix(1 0 0 1 279.6743 259.4105)" class="st2 st3">200</text>
<text transform="matrix(1 0 0 1 305.2204 252.5632)" class="st2 st3">175</text>
<text transform="matrix(1 0 0 1 304.3456 259.0336)" class="st2 st3">200</text>
<text transform="matrix(1 0 0 1 330.1896 252.5632)" class="st2 st3">174</text>
<text transform="matrix(1 0 0 1 329.3625 258.7388)" class="st2 st3">200</text>
<text transform="matrix(1 0 0 1 354.471 253.0701)" class="st2 st3">173</text>
<text transform="matrix(1 0 0 1 353.47 258.7503)" class="st2 st3">200</text>
<text transform="matrix(1 0 0 1 380.973 252.7867)" class="st2 st3">172</text>
<text transform="matrix(1 0 0 1 379.9016 259.0338)" class="st2 st3">200</text>
<text transform="matrix(1 0 0 1 406.3833 252.5185)" class="st2 st3">171</text>
<text transform="matrix(1 0 0 1 404.7178 258.1987)" class="st2 st3">200</text>
<text transform="matrix(1 0 0 1 430.9206 252.2278)" class="st2 st3">170</text>
<text transform="matrix(1 0 0 1 430.0512 257.908)" class="st2 st3">200</text>
<text transform="matrix(1 0 0 1 465.1533 251.8964)" class="st2 st3">168, 169</text>
<text transform="matrix(1 0 0 1 466.0198 258.2433)" class="st2 st3">383.86</text>
<rect x="467.4" y="253.2" width="16.2" height="0.2"/>
<text transform="matrix(6.123234e-17 -1 1 6.123234e-17 508.4006 280.4481)" class="st2 st3">162,167</text>
<text transform="matrix(6.123234e-17 -1 1 6.123234e-17 514.6949 279.8929)" class="st2 st3">292.22</text>
<rect x="501.7" y="270.9" transform="matrix(6.123234e-17 -1 1 6.123234e-17 238.7853 780.7299)" width="16.2" height="0.2"/>
<text transform="matrix(6.123234e-17 -1 1 6.123234e-17 535.7354 295.3632)" class="st2 st3">163, 164, 166</text>
<text transform="matrix(6.123234e-17 -1 1 6.123234e-17 541.4156 287.7318)" class="st2 st3">301.64</text>
<rect x="528.4" y="278.8" transform="matrix(6.123234e-17 -1 1 6.123234e-17 257.629 815.3273)" width="16.2" height="0.2"/>
<text transform="matrix(1 0 0 1 480.4245 283.7854)" class="st2 st3">161</text>
<text transform="matrix(1 0 0 1 479.017 289.4655)" class="st2 st3">200</text>
<text transform="matrix(1 0 0 1 455.7962 284.6312)" class="st2 st3">160</text>
<text transform="matrix(1 0 0 1 455.256 290.8811)" class="st2 st3">200</text>
<text transform="matrix(1 0 0 1 429.3345 284.226)" class="st2 st3">159</text>
<text transform="matrix(1 0 0 1 428.6783 289.9061)" class="st2 st3">200</text>
<text transform="matrix(1 0 0 1 405.3151 285.5634)" class="st2 st3">158</text>
<text transform="matrix(1 0 0 1 404.7065 291.2436)" class="st2 st3">200</text>
<text transform="matrix(1 0 0 1 380.7766 284.2259)" class="st2 st3">157</text>
<text transform="matrix(1 0 0 1 379.9016 289.9061)" class="st2 st3">200</text>
<text transform="matrix(1 0 0 1 354.4478 285.3148)" class="st2 st3">156</text>
<text transform="matrix(1 0 0 1 353.8308 290.995)" class="st2 st3">200</text>
<text transform="matrix(1 0 0 1 328.9544 283.7496)" class="st2 st3">155</text>
<text transform="matrix(1 0 0 1 328.3487 289.4298)" class="st2 st3">200</text>
<text transform="matrix(1 0 0 1 304.4368 285.9331)" class="st2 st3">154</text>
<text transform="matrix(1 0 0 1 303.8787 291.6133)" class="st2 st3">200</text>
<text transform="matrix(1 0 0 1 279.7216 285.5749)" class="st2 st3">153</text>
<text transform="matrix(1 0 0 1 278.9897 291.255)" class="st2 st3">200</text>
<rect x="279" y="286.2" width="10.4" height="0.2"/>
<text transform="matrix(1 0 0 1 250.4752 285.552)" class="st2 st3">152</text>
<text transform="matrix(1 0 0 1 245.2686 291.2322)" class="st2 st3">305.55</text>
<rect x="246.8" y="286.2" width="16.2" height="0.2"/>
<text transform="matrix(1 0 0 1 192.755 284.2369)" class="st2 st3">151</text>
<text transform="matrix(1 0 0 1 188.1065 289.9171)" class="st2 st3">277.77</text>
<rect x="188.5" y="284.9" width="16.2" height="0.2"/>
<text transform="matrix(1 0 0 1 166.6339 284.0969)" class="st2 st3">150</text>
<text transform="matrix(1 0 0 1 162.3441 289.7771)" class="st2 st3">166.66</text>
<rect x="163.2" y="284.8" width="16.2" height="0.2"/>
<text transform="matrix(1 0 0 1 142.5494 286.106)" class="st2 st3">149</text>
<text transform="matrix(1 0 0 1 138.369 291.7861)" class="st2 st3">241.68</text>
<rect x="139.1" y="286.8" width="16.2" height="0.2"/>
<text transform="matrix(1 0 0 1 122.3082 344.8804)" class="st2 st3">148</text>
<text transform="matrix(1 0 0 1 118.4251 350.5605)" class="st2 st3">272.08</text>
<rect x="119.4" y="345.5" width="16.2" height="0.2"/>
<text transform="matrix(1 0 0 1 147.354 344.226)" class="st2 st7">147</text>
<text transform="matrix(1 0 0 1 144.355 349.1654)" class="st2 st7">176.66</text>
<rect x="144.8" y="344.8" width="14.1" height="0.2"/>
<text transform="matrix(1 0 0 1 168.1437 373.0697)" class="st2 st8">113</text>
<text transform="matrix(1 0 0 1 163.5119 378.1166)" class="st2 st8">166.66</text>
<rect x="164.2" y="373.7" width="14.4" height="0.2"/>
<text transform="matrix(1 0 0 1 149.6175 374.7653)" class="st2 st9">112</text>
<text transform="matrix(1 0 0 1 145.369 379.3337)" class="st2 st9">166.66</text>
<rect x="146" y="375.3" width="13" height="0.1"/>
<text transform="matrix(1 0 0 1 131.0722 373.8575)" class="st2 st10">111</text>
<text transform="matrix(1 0 0 1 126.2876 378.4825)" class="st2 st10">166.66</text>
<rect x="127" y="374.4" width="13.2" height="0.1"/>
<text transform="matrix(1 0 0 1 109.056 375.7113)" class="st2 st3">110</text>
<text transform="matrix(1 0 0 1 104.1129 381.3915)" class="st2 st3">193.88</text>
<rect x="104.8" y="376.4" width="16.2" height="0.2"/>
<text transform="matrix(1 0 0 1 190.69 373.0941)" class="st2 st3">114</text>
<text transform="matrix(1 0 0 1 186.0892 378.7743)" class="st2 st3">277.77</text>
<rect x="186.5" y="373.7" width="16.2" height="0.2"/>
<text transform="matrix(1 0 0 1 191.6957 343.2905)" class="st2 st3">145</text>
<text transform="matrix(1 0 0 1 186.7162 348.9706)" class="st2 st3">294.44</text>
<rect x="188.3" y="343.9" width="16.2" height="0.2"/>
<text transform="matrix(1 0 0 1 166.9933 343.9037)" class="st2 st11">146</text>
<text transform="matrix(1 0 0 1 163.7785 349.1991)" class="st2 st11">176.66</text>
<rect x="164.3" y="344.5" width="15.1" height="0.2"/>
<text transform="matrix(1 0 0 1 250.7366 342.6358)" class="st2 st3">144</text>
<text transform="matrix(1 0 0 1 246.155 348.316)" class="st2 st3">323.88</text>
<rect x="247.4" y="343.3" width="16.2" height="0.2"/>
<text transform="matrix(1 0 0 1 277.1232 343.2132)" class="st2 st3">143</text>
<text transform="matrix(1 0 0 1 278.1046 348.8934)" class="st2 st3">212</text>
<rect x="276.5" y="343.9" width="11.7" height="0.2"/>
<text transform="matrix(1 0 0 1 299.6667 342.5585)" class="st2 st3">142</text>
<text transform="matrix(1 0 0 1 300.6482 348.2387)" class="st2 st3">212</text>
<rect x="299.2" y="343.2" width="11.3" height="0.2"/>
<text transform="matrix(1 0 0 1 322.2521 342.5473)" class="st2 st3">141</text>
<text transform="matrix(1 0 0 1 323.2336 348.2274)" class="st2 st3">212</text>
<rect x="321.2" y="343.2" transform="matrix(1 -6.458357e-03 6.458357e-03 1 -2.2102 2.1221)" width="12.5" height="0.2"/>
<text transform="matrix(1 0 0 1 344.8818 342.8716)" class="st2 st3">140</text>
<text transform="matrix(1 0 0 1 345.8633 348.5518)" class="st2 st3">212</text>
<rect x="344.2" y="343.5" width="11.8" height="0.2"/>
<text transform="matrix(1 0 0 1 367.6627 343.0481)" class="st2 st3">139</text>
<text transform="matrix(1 0 0 1 368.6441 348.7283)" class="st2 st3">212</text>
<rect x="366.9" y="343.7" width="11.9" height="0.2"/>
<text transform="matrix(1 0 0 1 412.792 342.6359)" class="st2 st3">137</text>
<text transform="matrix(1 0 0 1 413.7734 348.3161)" class="st2 st3">212</text>
<rect x="412.3" y="343.3" width="11.5" height="0.2"/>
<text transform="matrix(1 0 0 1 391.1636 343.0482)" class="st2 st3">138</text>
<text transform="matrix(1 0 0 1 392.1451 348.7284)" class="st2 st3">212</text>
<rect x="390.6" y="343.7" width="11.6" height="0.2"/>
<text transform="matrix(1 0 0 1 436.7769 342.8717)" class="st2 st3">136</text>
<text transform="matrix(1 0 0 1 437.7584 348.5518)" class="st2 st3">212</text>
<rect x="436.3" y="343.5" width="11.4" height="0.2"/>
<text transform="matrix(1 0 0 1 458.2052 343.173)" class="st2 st3">135</text>
<text transform="matrix(1 0 0 1 459.1867 348.8531)" class="st2 st3">212</text>
<rect x="457.8" y="343.7" width="11.3" height="0.2"/>
<text transform="matrix(1 0 0 1 482.7655 342.5185)" class="st2 st3">134</text>
<text transform="matrix(1 0 0 1 483.747 348.1986)" class="st2 st3">212</text>
<rect x="481.9" y="343.2" width="12.1" height="0.2"/>
<text transform="matrix(1 0 0 1 504.4025 342.636)" class="st2 st3">133</text>
<text transform="matrix(1 0 0 1 505.3839 348.3161)" class="st2 st3">212</text>
<rect x="503.7" y="343.3" width="11.8" height="0.2"/>
<text transform="matrix(1 0 0 1 530.6829 342.5185)" class="st2 st3">132</text>
<text transform="matrix(1 0 0 1 527.9217 348.1986)" class="st2 st3">247.57</text>
<rect x="527.8" y="343.2" width="16.2" height="0.2"/>
<text transform="matrix(1 0 0 1 527.5558 373.3256)" class="st2 st12">129</text>
<text transform="matrix(1 0 0 1 527.4733 378.7328)" class="st2 st12">300</text>
<rect x="524.8" y="373.9" width="15.4" height="0.2"/>
<text transform="matrix(1 0 0 1 501.4957 373.8294)" class="st2 st13">128</text>
<text transform="matrix(1 0 0 1 498.1476 378.9603)" class="st2 st13">166.66</text>
<rect x="498.9" y="374.4" width="14.6" height="0.2"/>
<text transform="matrix(1 0 0 1 483.297 373.8491)" class="st2 st14">127</text>
<text transform="matrix(1 0 0 1 480.2535 378.5131)" class="st2 st14">166.66</text>
<rect x="480.9" y="374.4" width="13.3" height="0.1"/>
<text transform="matrix(1 0 0 1 464.1237 374.1059)" class="st2 st15">126</text>
<text transform="matrix(1 0 0 1 460.797 379.2045)" class="st2 st15">166.66</text>
<rect x="461.5" y="374.7" width="14.5" height="0.2"/>
<text transform="matrix(1 0 0 1 446.0023 374.1282)" class="st2 st16">125</text>
<text transform="matrix(1 0 0 1 442.7518 379.1086)" class="st2 st16">166.66</text>
<rect x="443.5" y="374.7" width="14.2" height="0.2"/>
<text transform="matrix(1 0 0 1 426.992 373.8862)" class="st2 st17">124</text>
<text transform="matrix(1 0 0 1 424.1075 378.476)" class="st2 st18">166.66</text>
<rect x="424.4" y="374.5" width="14.7" height="0.2"/>
<text transform="matrix(1 0 0 1 407.9722 373.687)" class="st2 st19">123</text>
<text transform="matrix(1 0 0 1 404.7176 378.6743)" class="st2 st19">166.66</text>
<rect x="405.4" y="374.3" width="14.2" height="0.2"/>
<text transform="matrix(1 0 0 1 389.558 373.3969)" class="st2 st20">122</text>
<text transform="matrix(1 0 0 1 386.2025 378.5385)" class="st2 st20">166.66</text>
<rect x="386.9" y="374" width="14.7" height="0.2"/>
<text transform="matrix(1 0 0 1 370.6702 373.605)" class="st2 st21">121</text>
<text transform="matrix(1 0 0 1 367.3083 378.7564)" class="st2 st21">166.66</text>
<rect x="368" y="374.2" width="14.7" height="0.2"/>
<text transform="matrix(1 0 0 1 333.207 373.6893)" class="st2 st22">119</text>
<text transform="matrix(1 0 0 1 329.9543 378.6736)" class="st2 st22">166.66</text>
<rect x="330.7" y="374.3" width="14.2" height="0.2"/>
<text transform="matrix(1 0 0 1 352.0936 373.7143)" class="st2 st23">120</text>
<text transform="matrix(1 0 0 1 348.8006 378.7611)" class="st2 st23">166.66</text>
<rect x="349.5" y="374.3" width="14.4" height="0.2"/>
<text transform="matrix(1 0 0 1 314.5428 373.7313)" class="st2 st24">118</text>
<text transform="matrix(1 0 0 1 311.2522 378.7743)" class="st2 st24">166.66</text>
<rect x="312" y="374.3" width="14.4" height="0.2"/>
<text transform="matrix(1 0 0 1 296.004 373.8532)" class="st2 st25">117</text>
<text transform="matrix(1 0 0 1 292.6866 378.9362)" class="st2 st25">166.66</text>
<rect x="293.4" y="374.4" width="14.5" height="0.2"/>
<text transform="matrix(1 0 0 1 277.0513 373.4101)" class="st2 st26">116</text>
<text transform="matrix(1 0 0 1 273.7569 378.4579)" class="st2 st26">166.66</text>
<rect x="274.5" y="374" width="14.4" height="0.2"/>
<text transform="matrix(1 0 0 1 249.8083 374.3856)" class="st2 st3">115</text>
<text transform="matrix(1 0 0 1 244.0075 380.0658)" class="st2 st3">305.55</text>
<rect x="245.5" y="375" width="16.2" height="0.2"/>
<text transform="matrix(1 0 0 1 579.0076 382.7295)" class="st2 st3">206</text>
<text transform="matrix(1 0 0 1 576.2464 388.4097)" class="st2 st3">180.75</text>
<rect x="576.1" y="383.4" width="16.2" height="0.2"/>
<rect x="303.9" y="286.7" width="10.4" height="0.2"/>
<rect x="328.4" y="284.5" width="10.4" height="0.2"/>
<rect x="353.9" y="286" width="10.4" height="0.2"/>
<rect x="379.9" y="284.7" width="10.4" height="0.2"/>
<rect x="404.7" y="286.1" width="10.4" height="0.2"/>
<rect x="428.7" y="284.9" width="10.4" height="0.2"/>
<rect x="455.3" y="285.8" width="10.4" height="0.2"/>
<rect x="479" y="284.5" width="10.4" height="0.2"/>
<rect x="430.1" y="253.1" width="10.4" height="0.2"/>
<rect x="404.7" y="253.5" width="10.4" height="0.2"/>
<rect x="379.9" y="253.8" width="10.4" height="0.2"/>
<rect x="353.5" y="253.7" width="10.4" height="0.2"/>
<rect x="329.4" y="253.6" width="10.4" height="0.2"/>
<rect x="304.4" y="253.7" width="10.4" height="0.2"/>
<rect x="279.7" y="254.3" width="10.4" height="0.2"/>
<text transform="matrix(1 0 0 1 87.255 442.7831)" class="st2 st3">62</text>
<text transform="matrix(1 0 0 1 82.3119 448.4632)" class="st2 st3">128.93</text>
<rect x="83" y="443.4" width="16.2" height="0.2"/>
<text transform="matrix(1 0 0 1 111.2926 450.099)" class="st2 st27">63</text>
<text transform="matrix(1 0 0 1 107.6002 455.1771)" class="st2 st27">99.92</text>
<rect x="107.2" y="450.7" width="14.5" height="0.2"/>
<text transform="matrix(1 0 0 1 130.4641 453.889)" class="st2 st28">64</text>
<text transform="matrix(1 0 0 1 125.9446 458.8461)" class="st2 st28">134.96</text>
<rect x="126.6" y="454.5" width="14.1" height="0.2"/>
<text transform="matrix(1 0 0 1 148.9103 453.973)" class="st2 st29">65</text>
<text transform="matrix(1 0 0 1 144.4464 458.8422)" class="st2 st29">163.66</text>
<rect x="145" y="454.5" width="13.9" height="0.2"/>
<text transform="matrix(1 0 0 1 167.7218 454.1532)" class="st2 st27">66</text>
<text transform="matrix(1 0 0 1 163.0572 459.2313)" class="st2 st27">163.66</text>
<rect x="163.7" y="454.7" width="14.5" height="0.2"/>
<text transform="matrix(1 0 0 1 194.1316 455.3483)" class="st2 st27">67</text>
<text transform="matrix(1 0 0 1 189.5246 460.4264)" class="st2 st27">277.77</text>
<rect x="189.9" y="455.9" width="14.5" height="0.2"/>
<text transform="matrix(1 0 0 1 197.3621 508.3337)" class="st2 st27">60</text>
<text transform="matrix(1 0 0 1 192.7552 513.4119)" class="st2 st27">222.22</text>
<rect x="193.1" y="508.9" width="14.5" height="0.2"/>
<text transform="matrix(1 0 0 1 196.3907 536.6802)" class="st2 st27">23</text>
<text transform="matrix(1 0 0 1 191.7837 541.7583)" class="st2 st27">222.22</text>
<rect x="192.1" y="537.3" width="14.5" height="0.2"/>
<text transform="matrix(1 0 0 1 192.4343 426.1036)" class="st2 st27">104</text>
<text transform="matrix(1 0 0 1 189.033 431.1817)" class="st2 st27">277.77</text>
<rect x="189.4" y="426.7" width="14.5" height="0.2"/>
<text transform="matrix(1 0 0 1 167.7872 426.6885)" class="st2 st27">105</text>
<text transform="matrix(1 0 0 1 163.9522 431.7667)" class="st2 st27">166.66</text>
<rect x="164.7" y="427.3" width="14.5" height="0.2"/>
<text transform="matrix(1 0 0 1 149.0343 426.1036)" class="st2 st27">106</text>
<text transform="matrix(1 0 0 1 145.1894 431.1817)" class="st2 st27">166.66</text>
<rect x="145.9" y="426.7" width="14.5" height="0.2"/>
<text transform="matrix(1 0 0 1 129.6217 426.6885)" class="st2 st27">107</text>
<text transform="matrix(1 0 0 1 125.546 431.7667)" class="st2 st27">166.66</text>
<rect x="126.3" y="427.3" width="14.5" height="0.2"/>
<text transform="matrix(1 0 0 1 110.9043 426.6888)" class="st2 st30">108</text>
<text transform="matrix(1 0 0 1 107.3516 431.39)" class="st2 st30">166.66</text>
<rect x="108" y="427.2" width="13.4" height="0.1"/>
<text transform="matrix(1 0 0 1 90.2694 425.4876)" class="st2 st27">109</text>
<text transform="matrix(1 0 0 1 87.0609 430.5657)" class="st2 st27">141.98</text>
<rect x="87.1" y="426.1" width="14.5" height="0.2"/>
<text transform="matrix(1 0 0 1 251.4809 455.5764)" class="st2 st27">68</text>
<text transform="matrix(1 0 0 1 246.0817 460.6546)" class="st2 st27">305.55</text>
<rect x="247.5" y="456.2" width="14.5" height="0.2"/>
<text transform="matrix(1 0 0 1 251.1397 424.9082)" class="st2 st27">103</text>
<text transform="matrix(1 0 0 1 247.7383 429.9863)" class="st2 st27">277.77</text>
<rect x="248.1" y="425.5" width="14.5" height="0.2"/>
<text transform="matrix(1 0 0 1 277.2671 425.487)" class="st2 st27">102</text>
<text transform="matrix(1 0 0 1 273.8658 430.5651)" class="st2 st27">277.77</text>
<rect x="274.2" y="426.1" width="14.5" height="0.2"/>
<text transform="matrix(1 0 0 1 296.6342 424.9086)" class="st2 st27">101</text>
<text transform="matrix(1 0 0 1 293.2328 429.9867)" class="st2 st27">277.77</text>
<rect x="293.6" y="425.5" width="14.5" height="0.2"/>
<text transform="matrix(1 0 0 1 315.3088 424.7346)" class="st2 st27">100</text>
<text transform="matrix(1 0 0 1 311.9074 429.8128)" class="st2 st27">277.77</text>
<rect x="312.2" y="425.3" width="14.5" height="0.2"/>
<text transform="matrix(1 0 0 1 278.6599 455.5763)" class="st2 st27">69</text>
<text transform="matrix(1 0 0 1 273.8574 460.6544)" class="st2 st27">166.66</text>
<rect x="274.6" y="456.2" width="14.5" height="0.2"/>
<text transform="matrix(1 0 0 1 277.7521 507.1388)" class="st2 st27">58</text>
<text transform="matrix(1 0 0 1 272.9496 512.217)" class="st2 st27">166.66</text>
<rect x="273.7" y="507.7" width="14.5" height="0.2"/>
<text transform="matrix(1 0 0 1 278.1172 537.6824)" class="st2 st27">25</text>
<text transform="matrix(1 0 0 1 273.3147 542.7606)" class="st2 st27">166.66</text>
<rect x="274" y="538.3" width="14.5" height="0.2"/>
<text transform="matrix(1 0 0 1 278.5831 592.5638)" class="st2 st31">19</text>
<text transform="matrix(1 0 0 1 274.486 596.8969)" class="st2 st31">191.49</text>
<rect x="275.1" y="593.1" width="12.4" height="0.1"/>
<text transform="matrix(1 0 0 1 297.2708 592.5638)" class="st2 st31">18</text>
<text transform="matrix(1 0 0 1 293.1737 596.8969)" class="st2 st31">191.26</text>
<rect x="293.8" y="593.1" width="12.4" height="0.1"/>
<text transform="matrix(1 0 0 1 297.2579 507.149)" class="st2 st27">57</text>
<text transform="matrix(1 0 0 1 292.4554 512.2272)" class="st2 st27">166.66</text>
<rect x="293.2" y="507.7" width="14.5" height="0.2"/>
<text transform="matrix(1 0 0 1 316.0074 507.159)" class="st2 st27">56</text>
<text transform="matrix(1 0 0 1 311.2049 512.2371)" class="st2 st27">166.66</text>
<rect x="311.9" y="507.7" width="14.5" height="0.2"/>
<text transform="matrix(1 0 0 1 334.7568 507.1395)" class="st2 st27">55</text>
<text transform="matrix(1 0 0 1 329.9543 512.2176)" class="st2 st27">166.66</text>
<rect x="330.7" y="507.7" width="14.5" height="0.2"/>
<text transform="matrix(1 0 0 1 352.6729 507.1395)" class="st2 st27">54</text>
<text transform="matrix(1 0 0 1 347.8704 512.2176)" class="st2 st27">166.66</text>
<rect x="348.6" y="507.7" width="14.5" height="0.2"/>
<text transform="matrix(1 0 0 1 372.2557 507.1395)" class="st2 st27">53</text>
<text transform="matrix(1 0 0 1 367.4532 512.2176)" class="st2 st27">166.66</text>
<rect x="368.2" y="507.7" width="14.5" height="0.2"/>
<text transform="matrix(1 0 0 1 391.0052 507.1692)" class="st2 st27">52</text>
<text transform="matrix(1 0 0 1 386.2027 512.2473)" class="st2 st27">166.66</text>
<rect x="386.9" y="507.8" width="14.5" height="0.2"/>
<text transform="matrix(1 0 0 1 409.7546 507.1389)" class="st2 st27">51</text>
<text transform="matrix(1 0 0 1 404.9521 512.217)" class="st2 st27">166.66</text>
<rect x="405.7" y="507.7" width="14.5" height="0.2"/>
<text transform="matrix(1 0 0 1 428.1122 507.1386)" class="st2 st27">50</text>
<text transform="matrix(1 0 0 1 423.3097 512.2167)" class="st2 st27">166.66</text>
<rect x="424" y="507.7" width="14.5" height="0.2"/>
<text transform="matrix(1 0 0 1 446.7124 507.1383)" class="st2 st27">49</text>
<text transform="matrix(1 0 0 1 441.9099 512.2164)" class="st2 st27">166.66</text>
<rect x="442.6" y="507.7" width="14.5" height="0.2"/>
<text transform="matrix(1 0 0 1 465.0432 507.1383)" class="st2 st27">48</text>
<text transform="matrix(1 0 0 1 460.2407 512.2164)" class="st2 st27">166.66</text>
<rect x="461" y="507.7" width="14.5" height="0.2"/>
<text transform="matrix(1 0 0 1 483.8193 507.1792)" class="st2 st27">47</text>
<text transform="matrix(1 0 0 1 479.0168 512.2573)" class="st2 st27">166.66</text>
<rect x="479.7" y="507.8" width="14.5" height="0.2"/>
<text transform="matrix(1 0 0 1 503.431 507.2144)" class="st2 st27">46</text>
<text transform="matrix(1 0 0 1 498.6285 512.2925)" class="st2 st27">166.66</text>
<rect x="499.4" y="507.8" width="14.5" height="0.2"/>
<text transform="matrix(1 0 0 1 502.9406 539.2191)" class="st2 st27">37</text>
<text transform="matrix(1 0 0 1 498.1382 544.2972)" class="st2 st27">166.66</text>
<rect x="498.9" y="539.8" width="14.5" height="0.2"/>
<text transform="matrix(1 0 0 1 581.4634 507.9574)" class="st2 st27">44</text>
<text transform="matrix(1 0 0 1 576.6609 513.0355)" class="st2 st27">277.77</text>
<rect x="577.4" y="508.5" width="14.5" height="0.2"/>
<text transform="matrix(1 0 0 1 581.9229 538.0089)" class="st2 st27">39</text>
<text transform="matrix(1 0 0 1 577.1204 543.087)" class="st2 st27">277.77</text>
<rect x="577.9" y="538.6" width="14.5" height="0.2"/>
<text transform="matrix(1 0 0 1 690.2626 506.756)" class="st2 st27">227</text>
<text transform="matrix(1 0 0 1 685.4601 511.8341)" class="st2 st27">286.66</text>
<rect x="686.2" y="507.3" width="14.5" height="0.2"/>
<text transform="matrix(1 0 0 1 688.304 538.1664)" class="st2 st27">228</text>
<text transform="matrix(1 0 0 1 688.0611 543.2446)" class="st2 st27">380</text>
<rect x="685.5" y="538.8" width="14.5" height="0.2"/>
<text transform="matrix(1 0 0 1 643.0807 537.1859)" class="st2 st32">230</text>
<text transform="matrix(1 0 0 1 638.8009 541.7113)" class="st2 st32">166.66</text>
<rect x="639.5" y="537.7" width="12.9" height="0.1"/>
<text transform="matrix(1 0 0 1 662.0021 536.6189)" class="st2 st32">229</text>
<text transform="matrix(1 0 0 1 657.7223 541.1443)" class="st2 st32">166.66</text>
<rect x="658.4" y="537.1" width="12.9" height="0.1"/>
<text transform="matrix(1 0 0 1 661.7023 510.9095)" class="st2 st32">226</text>
<text transform="matrix(1 0 0 1 657.4225 515.4349)" class="st2 st32">166.66</text>
<rect x="658.1" y="511.4" width="12.9" height="0.1"/>
<text transform="matrix(1 0 0 1 642.5213 510.3127)" class="st2 st32">225</text>
<text transform="matrix(1 0 0 1 638.2415 514.8381)" class="st2 st32">166.66</text>
<rect x="638.9" y="510.8" width="12.9" height="0.1"/>
<text transform="matrix(1 0 0 1 483.8193 539.2192)" class="st2 st27">36</text>
<text transform="matrix(1 0 0 1 479.0168 544.2973)" class="st2 st27">166.66</text>
<rect x="479.7" y="539.8" width="14.5" height="0.2"/>
<text transform="matrix(1 0 0 1 465.5996 539.2193)" class="st2 st27">35</text>
<text transform="matrix(1 0 0 1 460.7971 544.2974)" class="st2 st27">166.66</text>
<rect x="461.5" y="539.8" width="14.5" height="0.2"/>
<text transform="matrix(1 0 0 1 446.7125 539.2195)" class="st2 st27">34</text>
<text transform="matrix(1 0 0 1 441.91 544.2976)" class="st2 st27">166.66</text>
<rect x="442.6" y="539.8" width="14.5" height="0.2"/>
<text transform="matrix(1 0 0 1 428.1122 539.6638)" class="st2 st27">33</text>
<text transform="matrix(1 0 0 1 423.3097 544.7419)" class="st2 st27">166.66</text>
<rect x="424" y="540.2" width="14.5" height="0.2"/>
<text transform="matrix(1 0 0 1 409.2275 539.6638)" class="st2 st27">32</text>
<text transform="matrix(1 0 0 1 404.425 544.7419)" class="st2 st27">166.66</text>
<rect x="405.2" y="540.2" width="14.5" height="0.2"/>
<text transform="matrix(1 0 0 1 372.1109 539.9628)" class="st2 st27">30</text>
<text transform="matrix(1 0 0 1 367.3084 545.0409)" class="st2 st27">166.66</text>
<rect x="368" y="540.5" width="14.5" height="0.2"/>
<text transform="matrix(1 0 0 1 391.0052 539.6639)" class="st2 st27">31</text>
<text transform="matrix(1 0 0 1 386.2028 544.742)" class="st2 st27">166.66</text>
<rect x="386.9" y="540.2" width="14.5" height="0.2"/>
<text transform="matrix(1 0 0 1 334.165 540.2215)" class="st2 st27">28</text>
<text transform="matrix(1 0 0 1 329.3625 545.2996)" class="st2 st27">166.66</text>
<rect x="330.1" y="540.8" width="14.5" height="0.2"/>
<text transform="matrix(1 0 0 1 353.5063 540.2215)" class="st2 st27">29</text>
<text transform="matrix(1 0 0 1 348.7038 545.2996)" class="st2 st27">166.66</text>
<rect x="349.4" y="540.8" width="14.5" height="0.2"/>
<text transform="matrix(1 0 0 1 296.8585 539.2195)" class="st2 st27">26</text>
<text transform="matrix(1 0 0 1 292.056 544.2977)" class="st2 st27">166.66</text>
<rect x="292.8" y="539.8" width="14.5" height="0.2"/>
<text transform="matrix(1 0 0 1 315.3293 539.0208)" class="st2 st27">27</text>
<text transform="matrix(1 0 0 1 310.5268 544.0989)" class="st2 st27">166.66</text>
<rect x="311.3" y="539.6" width="14.5" height="0.2"/>
<text transform="matrix(1 0 0 1 297.5243 455.5765)" class="st2 st27">70</text>
<text transform="matrix(1 0 0 1 292.5414 460.6546)" class="st2 st27">166.66</text>
<rect x="293.3" y="456.2" width="14.5" height="0.2"/>
<text transform="matrix(1 0 0 1 317.1376 455.5768)" class="st2 st27">71</text>
<text transform="matrix(1 0 0 1 311.4427 460.655)" class="st2 st27">166.66</text>
<rect x="312.2" y="456.2" width="14.5" height="0.2"/>
<text transform="matrix(1 0 0 1 335.0777 425.6519)" class="st2 st27">99</text>
<text transform="matrix(1 0 0 1 330.2401 430.73)" class="st2 st27">166.66</text>
<rect x="331" y="426.2" width="14.5" height="0.2"/>
<text transform="matrix(1 0 0 1 353.7986 425.652)" class="st2 st27">98</text>
<text transform="matrix(1 0 0 1 349.0036 430.7301)" class="st2 st27">166.66</text>
<rect x="349.7" y="426.2" width="14.5" height="0.2"/>
<text transform="matrix(1 0 0 1 372.6459 425.6523)" class="st2 st27">97</text>
<text transform="matrix(1 0 0 1 367.6127 430.7304)" class="st2 st27">166.66</text>
<rect x="368.3" y="426.2" width="14.5" height="0.2"/>
<text transform="matrix(1 0 0 1 391.0049 425.5817)" class="st2 st27">96</text>
<text transform="matrix(1 0 0 1 386.2025 430.6598)" class="st2 st27">166.66</text>
<rect x="386.9" y="426.2" width="14.5" height="0.2"/>
<text transform="matrix(1 0 0 1 409.4991 426.3999)" class="st2 st27">95</text>
<text transform="matrix(1 0 0 1 404.7067 431.478)" class="st2 st27">166.66</text>
<rect x="405.4" y="427" width="14.5" height="0.2"/>
<text transform="matrix(1 0 0 1 428.4069 425.7788)" class="st2 st27">94</text>
<text transform="matrix(1 0 0 1 423.6569 430.857)" class="st2 st27">166.66</text>
<rect x="424.4" y="426.4" width="14.5" height="0.2"/>
<text transform="matrix(1 0 0 1 466.8883 425.194)" class="st2 st27">92</text>
<text transform="matrix(1 0 0 1 461.1935 430.2721)" class="st2 st27">166.66</text>
<rect x="461.9" y="425.8" width="14.5" height="0.2"/>
<text transform="matrix(1 0 0 1 447.5773 425.194)" class="st2 st27">93</text>
<text transform="matrix(1 0 0 1 441.8824 430.2722)" class="st2 st27">166.66</text>
<rect x="442.6" y="425.8" width="14.5" height="0.2"/>
<text transform="matrix(1 0 0 1 485.0039 425.7794)" class="st2 st27">91</text>
<text transform="matrix(1 0 0 1 479.5046 430.8575)" class="st2 st27">166.66</text>
<rect x="480.2" y="426.4" width="14.5" height="0.2"/>
<text transform="matrix(1 0 0 1 502.9075 425.7785)" class="st2 st27">90</text>
<text transform="matrix(1 0 0 1 498.1199 430.8566)" class="st2 st27">166.66</text>
<rect x="498.9" y="426.4" width="14.5" height="0.2"/>
<text transform="matrix(1 0 0 1 581.5079 425.1936)" class="st2 st27">88</text>
<text transform="matrix(1 0 0 1 577.1466 430.2718)" class="st2 st27">277.77</text>
<rect x="577.5" y="425.8" width="14.5" height="0.2"/>
<text transform="matrix(1 0 0 1 609.0144 427.0674)" class="st2 st27">87</text>
<text transform="matrix(1 0 0 1 607.8589 432.1455)" class="st2 st27">150</text>
<rect x="607.4" y="427.7" width="9.2" height="0.2"/>
<text transform="matrix(1 0 0 1 629.2964 426.3952)" class="st2 st27">86,219</text>
<text transform="matrix(1 0 0 1 628.7245 432.276)" class="st2 st27">293.85</text>
<rect x="629.9" y="427.8" width="14.5" height="0.2"/>
<text transform="matrix(1 0 0 1 640.572 452.8091)" class="st2 st27">224</text>
<text transform="matrix(1 0 0 1 637.1306 457.8872)" class="st2 st27">166.66</text>
<rect x="637.9" y="453.4" width="14.5" height="0.2"/>
<text transform="matrix(1 0 0 1 659.9135 444.8127)"><tspan x="0" y="0" class="st2 st27">220</tspan><tspan x="0" y="6" class="st2 st27">223</tspan></text>
<text transform="matrix(1 0 0 1 655.828 456.6213)" class="st2 st27">240.86</text>
<rect x="657.2" y="452.1" width="14.5" height="0.2"/>
<text transform="matrix(1 0 0 1 678.9219 458.9104)" class="st2 st27">221</text>
<text transform="matrix(1 0 0 1 675.4981 463.9885)" class="st2 st27">169.91</text>
<rect x="675.5" y="459.5" width="14.5" height="0.2"/>
<text transform="matrix(1 0 0 1 698.0528 465.0204)" class="st2 st27">222</text>
<text transform="matrix(1 0 0 1 695.3531 470.0986)" class="st2 st27">98.95</text>
<rect x="695.1" y="465.6" width="14.5" height="0.2"/>
<text transform="matrix(1 0 0 1 734.4782 488.3431)" class="st2 st33">269</text>
<text transform="matrix(1 0 0 1 732.5544 491.9623)" class="st2 st33">84.88</text>
<rect x="732.4" y="488.8" width="10.3" height="0.1"/>
<text transform="matrix(1 0 0 1 766.1306 512.2162)" class="st2 st34">266,267</text>
<text transform="matrix(1 0 0 1 767.5789 515.0216)" class="st2 st34">78.59</text>
<rect x="767.4" y="512.8" width="7.3" height="0.1"/>
<text transform="matrix(1 0 0 1 739.179 505.6192)" class="st2 st35">268</text>
<text transform="matrix(1 0 0 1 738.4466 510.5685)" class="st2 st35">231.1</text>
<rect x="736.7" y="506.2" width="14.1" height="0.2"/>
<text transform="matrix(1 0 0 1 741.9498 553.483)" class="st2 st35">250</text>
<text transform="matrix(1 0 0 1 741.2173 558.4323)" class="st2 st35">366.66</text>
<rect x="739.4" y="554.1" width="14.1" height="0.2"/>
<text transform="matrix(1 0 0 1 742.7407 583.9429)" class="st2 st35">249</text>
<text transform="matrix(1 0 0 1 739.6265 588.8922)" class="st2 st35">301.98</text>
<rect x="740.2" y="584.5" width="14.1" height="0.2"/>
<text transform="matrix(1 0 0 1 772.6119 554.2151)" class="st2 st35">251</text>
<text transform="matrix(1 0 0 1 768.9918 559.1643)" class="st2 st35">183.33</text>
<rect x="769.4" y="554.8" width="14.1" height="0.2"/>
<text transform="matrix(1 0 0 1 771.3534 584.5908)" class="st2 st35">248</text>
<text transform="matrix(1 0 0 1 768.2123 589.54)" class="st2 st35">150.99</text>
<rect x="768.9" y="585.2" width="14.1" height="0.2"/>
<text transform="matrix(1 0 0 1 790.7589 554.786)" class="st2 st35">252</text>
<text transform="matrix(1 0 0 1 787.6569 559.7352)" class="st2 st35">183.33</text>
<rect x="788.1" y="555.4" width="14.1" height="0.2"/>
<text transform="matrix(1 0 0 1 790.7811 584.7393)" class="st2 st35">247</text>
<text transform="matrix(1 0 0 1 787.4081 589.6885)" class="st2 st35">150.99</text>
<rect x="788.1" y="585.3" width="14.1" height="0.2"/>
<text transform="matrix(1 0 0 1 809.5359 554.9399)" class="st2 st35">253</text>
<text transform="matrix(1 0 0 1 806.4949 559.8891)" class="st2 st35">183.33</text>
<rect x="806.9" y="555.5" width="14.1" height="0.2"/>
<text transform="matrix(1 0 0 1 809.1999 584.9634)" class="st2 st35">246</text>
<text transform="matrix(1 0 0 1 806.0515 589.9127)" class="st2 st35">150.99</text>
<rect x="806.7" y="585.5" width="14.1" height="0.2"/>
<text transform="matrix(1 0 0 1 857.1068 586.4893)" class="st2 st35">245</text>
<text transform="matrix(1 0 0 1 854.0365 591.4385)" class="st2 st35">301.98</text>
<rect x="854.6" y="587.1" width="14.1" height="0.2"/>
<text transform="matrix(1 0 0 1 847.4626 554.7869)" class="st2 st35">254</text>
<text transform="matrix(1 0 0 1 844.573 559.7361)" class="st2 st35">183.33</text>
<rect x="845" y="555.4" width="14.1" height="0.2"/>
<text transform="matrix(1 0 0 1 866.6058 554.7875)" class="st2 st35">255</text>
<text transform="matrix(1 0 0 1 863.6747 559.7368)" class="st2 st35">183.33</text>
<rect x="864.1" y="555.4" width="14.1" height="0.2"/>
<text transform="matrix(1 0 0 1 885.3021 554.7875)" class="st2 st35">256</text>
<text transform="matrix(1 0 0 1 882.3611 559.7368)" class="st2 st35">183.33</text>
<rect x="882.8" y="555.4" width="14.1" height="0.2"/>
<text transform="matrix(1 0 0 1 905.0746 554.7869)" class="st2 st35">257</text>
<text transform="matrix(1 0 0 1 901.9091 559.7361)" class="st2 st35">183.33</text>
<rect x="902.3" y="555.4" width="14.1" height="0.2"/>
<text transform="matrix(1 0 0 1 885.3232 586.7723)" class="st2 st35">244</text>
<text transform="matrix(1 0 0 1 882.2261 591.7216)" class="st2 st35">150.99</text>
<rect x="882.9" y="587.3" width="14.1" height="0.2"/>
<text transform="matrix(1 0 0 1 905.0334 586.4178)" class="st2 st35">243</text>
<text transform="matrix(1 0 0 1 901.7849 591.3671)" class="st2 st35">150.99</text>
<rect x="902.5" y="587" width="14.1" height="0.2"/>
<text transform="matrix(1 0 0 1 921.0707 587.4372)" class="st2 st35">241,242</text>
<text transform="matrix(1 0 0 1 922.8613 592.3864)" class="st2 st35">177.74</text>
<rect x="923" y="588" width="14.1" height="0.2"/>
<text transform="matrix(1 0 0 1 923.1626 557.6947)" class="st2 st36">258</text>
<text transform="matrix(1 0 0 1 921.1118 562.0316)" class="st2 st36">149.17</text>
<rect x="921" y="558.2" width="12.4" height="0.1"/>
<text transform="matrix(1 0 0 1 529.4474 425.7792)" class="st2 st27">89</text>
<text transform="matrix(1 0 0 1 527.8884 430.8573)" class="st2 st27">300</text>
<rect x="526.9" y="426.4" width="11.4" height="0.2"/>
<text transform="matrix(1 0 0 1 334.9606 455.736)" class="st2 st27">72</text>
<text transform="matrix(1 0 0 1 329.797 460.8141)" class="st2 st27">166.66</text>
<rect x="330.5" y="456.3" width="14.5" height="0.2"/>
<text transform="matrix(1 0 0 1 353.6682 455.7352)" class="st2 st27">73</text>
<text transform="matrix(1 0 0 1 348.5674 460.8133)" class="st2 st27">166.66</text>
<rect x="349.3" y="456.3" width="14.5" height="0.2"/>
<text transform="matrix(1 0 0 1 372.4901 455.3483)" class="st2 st37">74</text>
<text transform="matrix(1 0 0 1 367.64 460.1764)" class="st2 st37">166.66</text>
<rect x="368.3" y="455.9" width="13.8" height="0.2"/>
<text transform="matrix(1 0 0 1 391.3012 455.1774)" class="st2 st37">75</text>
<text transform="matrix(1 0 0 1 386.4511 460.0055)" class="st2 st37">166.66</text>
<rect x="387.1" y="455.7" width="13.8" height="0.2"/>
<text transform="matrix(1 0 0 1 410.1764 454.6601)" class="st2 st37">76</text>
<text transform="matrix(1 0 0 1 405.3263 459.4882)" class="st2 st37">166.66</text>
<rect x="406" y="455.2" width="13.8" height="0.2"/>
<text transform="matrix(1 0 0 1 428.5342 454.4997)" class="st2 st37">77</text>
<text transform="matrix(1 0 0 1 423.6841 459.3278)" class="st2 st37">166.66</text>
<rect x="424.4" y="455.1" width="13.8" height="0.2"/>
<text transform="matrix(1 0 0 1 446.76 454.2069)" class="st2 st37">78</text>
<text transform="matrix(1 0 0 1 441.9099 459.0351)" class="st2 st37">166.66</text>
<rect x="442.6" y="454.8" width="13.8" height="0.2"/>
<text transform="matrix(1 0 0 1 466.425 454.6586)" class="st2 st37">79</text>
<text transform="matrix(1 0 0 1 461.5749 459.4867)" class="st2 st37">166.66</text>
<rect x="462.3" y="455.2" width="13.8" height="0.2"/>
<text transform="matrix(1 0 0 1 485.1035 454.659)" class="st2 st37">80</text>
<text transform="matrix(1 0 0 1 480.2534 459.4872)" class="st2 st37">166.66</text>
<rect x="480.9" y="455.2" width="13.8" height="0.2"/>
<text transform="matrix(1 0 0 1 502.9974 454.6595)" class="st2 st37">81</text>
<text transform="matrix(1 0 0 1 498.1473 459.4876)" class="st2 st37">166.66</text>
<rect x="498.8" y="455.2" width="13.8" height="0.2"/>
<text transform="matrix(1 0 0 1 528.5381 454.659)" class="st2 st37">82</text>
<text transform="matrix(1 0 0 1 526.9316 459.4871)" class="st2 st37">300</text>
<rect x="527" y="455.2" width="8.8" height="0.2"/>
<text transform="matrix(1 0 0 1 529.4946 507.7239)" class="st2 st37">45</text>
<text transform="matrix(1 0 0 1 527.8882 512.5521)" class="st2 st37">300</text>
<rect x="528" y="508.3" width="8.8" height="0.2"/>
<text transform="matrix(1 0 0 1 528.5834 538.2916)" class="st2 st37">38</text>
<text transform="matrix(1 0 0 1 526.9769 543.1198)" class="st2 st37">300</text>
<rect x="527.1" y="538.8" width="8.8" height="0.2"/>
<text transform="matrix(1 0 0 1 583.9954 456.8176)" class="st2 st37">83</text>
<text transform="matrix(1 0 0 1 579.1453 461.6458)" class="st2 st37">277.77</text>
<rect x="579.8" y="457.4" width="13.8" height="0.2"/>
<text transform="matrix(1 0 0 1 625.772 456.9471)" class="st2 st37">85</text>
<text transform="matrix(1 0 0 1 624.9021 461.7752)" class="st2 st37">150</text>
<rect x="623.9" y="457.5" width="9.8" height="0.2"/>
<text transform="matrix(1 0 0 1 607.4172 456.6215)" class="st2 st37">84</text>
<text transform="matrix(1 0 0 1 606.5879 461.4496)" class="st2 st37">150</text>
<rect x="605.9" y="457.2" width="9.3" height="0.2"/>
<text transform="matrix(1 0 0 1 606.9785 508.1547)" class="st2 st37">43</text>
<text transform="matrix(1 0 0 1 606.1492 512.9828)" class="st2 st37">150</text>
<rect x="605.4" y="508.7" width="9.3" height="0.2"/>
<text transform="matrix(1 0 0 1 623.5612 507.8533)" class="st2 st37">42</text>
<text transform="matrix(1 0 0 1 622.7318 512.6814)" class="st2 st37">150</text>
<rect x="622" y="508.4" width="9.3" height="0.2"/>
<text transform="matrix(1 0 0 1 625.6163 537.2598)" class="st2 st37">41</text>
<text transform="matrix(1 0 0 1 624.787 542.088)" class="st2 st37">150</text>
<rect x="624.1" y="537.8" width="9.3" height="0.2"/>
<text transform="matrix(1 0 0 1 606.9785 536.8047)" class="st2 st37">40</text>
<text transform="matrix(1 0 0 1 606.1492 541.6329)" class="st2 st37">150</text>
<rect x="605.4" y="537.4" width="9.3" height="0.2"/>
<text transform="matrix(1 0 0 1 175.4726 508.3437)" class="st2 st37">61</text>
<text transform="matrix(1 0 0 1 173.9235 513.1718)" class="st2 st37">150</text>
<rect x="173.4" y="508.9" width="8.8" height="0.2"/>
<text transform="matrix(1 0 0 1 175.7746 537.3744)" class="st2 st37">22</text>
<text transform="matrix(1 0 0 1 174.5737 542.2025)" class="st2 st37">150</text>
<rect x="174.1" y="537.9" width="8.8" height="0.2"/>
<text transform="matrix(1 0 0 1 251.9753 507.1388)" class="st2 st27">59</text>
<text transform="matrix(1 0 0 1 246.5761 512.2169)" class="st2 st27">305.55</text>
<rect x="247.9" y="507.7" width="14.5" height="0.2"/>
<text transform="matrix(1 0 0 1 251.975 537.7634)" class="st2 st27">24</text>
<text transform="matrix(1 0 0 1 246.5759 542.8415)" class="st2 st27">305.55</text>
<rect x="247.9" y="538.3" width="14.5" height="0.2"/>
<text transform="matrix(1 0 0 1 240.2292 587.7455)" class="st2 st27">20</text>
<text transform="matrix(1 0 0 1 236.3344 592.8236)" class="st2 st27">318.17</text>
<rect x="236" y="588.3" width="14.5" height="0.2"/>
<text transform="matrix(1 0 0 1 189.3145 582.3595)" class="st2 st27">21</text>
<text transform="matrix(1 0 0 1 184.7075 587.4376)" class="st2 st27">209.62</text>
<rect x="185" y="582.9" width="14.5" height="0.2"/>
<text transform="matrix(1 0 0 1 316.4052 592.3402)" class="st2 st38">17</text>
<text transform="matrix(1 0 0 1 314.4872 597.7074)" class="st2 st38">190</text>
<rect x="313.6" y="593" width="10.4" height="0.2"/>
<text transform="matrix(1 0 0 1 334.9206 591.9115)" class="st2 st38">16</text>
<text transform="matrix(1 0 0 1 333.4611 597.2787)" class="st2 st38">187</text>
<rect x="332.4" y="592.5" width="10.4" height="0.2"/>
<text transform="matrix(1 0 0 1 353.6007 591.4385)" class="st2 st38">15</text>
<text transform="matrix(1 0 0 1 348.8007 596.8057)" class="st2 st38">181.78</text>
<rect x="351.1" y="592.1" width="10.4" height="0.2"/>
<text transform="matrix(1 0 0 1 372.5929 591.2748)" class="st2 st39">14</text>
<text transform="matrix(1 0 0 1 367.173 596.4476)" class="st2 st39">180.42</text>
<rect x="370.2" y="591.9" width="10" height="0.2"/>
<text transform="matrix(1 0 0 1 392.321 591.1462)" class="st2 st38">13</text>
<text transform="matrix(1 0 0 1 386.4509 596.5134)" class="st2 st38">188.89</text>
<rect x="389.7" y="591.8" width="10.4" height="0.2"/>
<text transform="matrix(1 0 0 1 411.6804 591.9113)" class="st2 st38">12</text>
<text transform="matrix(1 0 0 1 406.8698 597.2784)" class="st2 st38">201.17</text>
<rect x="409" y="592.5" width="10.4" height="0.2"/>
<text transform="matrix(1 0 0 1 431.5865 593.0451)" class="st2 st38">11</text>
<text transform="matrix(1 0 0 1 426.6675 598.4123)" class="st2 st38">214.11</text>
<rect x="428.3" y="593.7" width="10.4" height="0.2"/>
<text transform="matrix(1 0 0 1 449.7427 594.7375)" class="st2 st40">10</text>
<text transform="matrix(1 0 0 1 444.5146 599.4758)" class="st2 st40">227.55</text>
<rect x="447.5" y="595.3" width="9.1" height="0.1"/>
<text transform="matrix(1 0 0 1 468.0962 595.8732)" class="st2 st41">09</text>
<text transform="matrix(1 0 0 1 463.1553 600.5529)" class="st2 st41">240.59</text>
<rect x="466.5" y="596.4" width="9" height="0.1"/>
<text transform="matrix(1 0 0 1 487.224 596.7009)" class="st2 st42">08</text>
<text transform="matrix(1 0 0 1 482.7655 601.324)" class="st2 st42">252.78</text>
<rect x="485.7" y="597.2" width="8.9" height="0.1"/>
<text transform="matrix(1 0 0 1 505.0328 597.6019)" class="st2 st43">07</text>
<text transform="matrix(1 0 0 1 500.2999 602.3304)" class="st2 st43">270.70</text>
<rect x="503.3" y="598.1" width="9.1" height="0.1"/>
<text transform="matrix(1 0 0 1 521.691 599.2904)" class="st2 st44">06</text>
<text transform="matrix(1 0 0 1 517.2311 603.6683)" class="st2 st44">270.44</text>
<rect x="520.2" y="599.8" width="8.5" height="0.1"/>
<text transform="matrix(1 0 0 1 540.7549 602.2468)" class="st2 st45">05</text>
<text transform="matrix(1 0 0 1 536.126 606.863)" class="st2 st45">295.25</text>
<rect x="539.2" y="602.8" width="8.9" height="0.1"/>
<text transform="matrix(1 0 0 1 575.1968 585.9125)" class="st2 st46">04</text>
<text transform="matrix(1 0 0 1 572.5875 589.5785)" class="st2 st46">92.80</text>
<rect x="574" y="586.3" width="7.1" height="0.1"/>
<text transform="matrix(1 0 0 1 590.4521 585.9125)" class="st2 st46">03</text>
<text transform="matrix(1 0 0 1 587.2548 589.5786)" class="st2 st46">123.82</text>
<rect x="589.2" y="586.3" width="7.1" height="0.1"/>
<text transform="matrix(1 0 0 1 607.9163 585.9125)" class="st2 st46">02</text>
<text transform="matrix(1 0 0 1 604.2395 589.5786)" class="st2 st46">140.37</text>
<rect x="606.7" y="586.3" width="7.1" height="0.1"/>
<text transform="matrix(1 0 0 1 623.7711 586.3918)" class="st2 st46">01</text>
<text transform="matrix(1 0 0 1 620.3583 590.0578)" class="st2 st46">156.91</text>
<rect x="622.1" y="586.8" width="7.1" height="0.1"/>
<text transform="matrix(1 0 0 1 640.6408 586.4891)" class="st2 st46">231</text>
<text transform="matrix(1 0 0 1 640.5466 590.1552)" class="st2 st46">193</text>
<rect x="639.9" y="586.9" width="7.1" height="0.1"/>
<text transform="matrix(1 0 0 1 660.5339 587.0594)" class="st2 st46">232</text>
<text transform="matrix(1 0 0 1 658.6264 590.7255)" class="st2 st46">213.15</text>
<rect x="660.2" y="587.5" width="7.1" height="0.1"/>
<text transform="matrix(1 0 0 1 688.0896 588.1879)" class="st2 st47">233</text>
<text transform="matrix(1 0 0 1 684.5276 592.5638)" class="st2 st47">288.64</text>
<rect x="687.7" y="588.7" width="8.4" height="0.1"/>
<text transform="matrix(1 0 0 1 688.0043 609.9784)" class="st2 st47">234</text>
<text transform="matrix(1 0 0 1 685.2827 614.3544)" class="st2 st47">167.56</text>
<rect x="687.7" y="610.5" width="8.4" height="0.1"/>
<text transform="matrix(1 0 0 1 687.9877 628.0959)" class="st2 st47">235</text>
<text transform="matrix(1 0 0 1 685.3525 632.4719)" class="st2 st47">238.31</text>
<rect x="687.7" y="628.6" width="8.4" height="0.1"/>
<text transform="matrix(1 0 0 1 735.1404 628.1898)" class="st2 st47">236</text>
<text transform="matrix(1 0 0 1 735.6072 632.5658)" class="st2 st47">142</text>
<rect x="734.8" y="628.7" width="8.4" height="0.1"/>
<text transform="matrix(1 0 0 1 763.7491 627.1552)" class="st2 st47">237</text>
<text transform="matrix(1 0 0 1 760.8546 631.5311)" class="st2 st47">139.62</text>
<rect x="763.2" y="627.7" width="8.4" height="0.1"/>
<text transform="matrix(1 0 0 1 797.176 630.4086)" class="st2 st47">238</text>
<text transform="matrix(1 0 0 1 794.2165 634.7845)" class="st2 st47">414.38</text>
<rect x="796.9" y="630.9" width="8.4" height="0.1"/>
<text transform="matrix(1 0 0 1 836.6526 645.7323)" class="st2 st48">239</text>
<text transform="matrix(1 0 0 1 833.4505 651.3544)" class="st2 st48">714.27</text>
<rect x="836.2" y="646.4" width="10.9" height="0.2"/>
<text transform="matrix(1 0 0 1 867.3792 642.9174)" class="st2 st49">240</text>
<text transform="matrix(1 0 0 1 864.3743 647.2162)" class="st2 st49">235.02</text>
<rect x="867.2" y="643.4" width="8.3" height="0.1"/>
</svg>
